<?xml version="1.0" encoding="UTF-8" standalone="no"?>
<svg xmlns:dc="http://purl.org/dc/elements/1.1/" xmlns:cc="http://creativecommons.org/ns#" xmlns:rdf="http://www.w3.org/1999/02/22-rdf-syntax-ns#" xmlns:svg="http://www.w3.org/2000/svg" xmlns="http://www.w3.org/2000/svg" xmlns:sodipodi="http://sodipodi.sourceforge.net/DTD/sodipodi-0.dtd" xmlns:inkscape="http://www.inkscape.org/namespaces/inkscape" inkscape:version="1.0 (4035a4fb49, 2020-05-01)" sodipodi:docname="2.svg" id="svg1218" style="clip-rule:evenodd;fill-rule:evenodd;stroke-linejoin:round;stroke-miterlimit:2" xml:space="preserve" version="1.1" viewBox="0 0 453.83527 464.19434" height="464.19434" width="453.83527">
   <metadata id="metadata1224">
      <rdf:RDF>
         <cc:Work rdf:about="">
            <dc:format>
               image/svg+xml
            </dc:format>
            <dc:type rdf:resource="http://purl.org/dc/dcmitype/StillImage"/>
            <dc:title/>
         </cc:Work>
      </rdf:RDF>
   </metadata>
   <defs id="defs1222"/>
   <sodipodi:namedview inkscape:current-layer="svg1218" inkscape:window-maximized="1" inkscape:window-y="-8" inkscape:window-x="-8" inkscape:cy="758.26667" inkscape:cx="986.115" inkscape:zoom="0.26875" showgrid="false" id="namedview1220" inkscape:window-height="1017" inkscape:window-width="1920" inkscape:pageshadow="2" inkscape:pageopacity="0" guidetolerance="10" gridtolerance="10" objecttolerance="10" borderopacity="1" bordercolor="#666666" pagecolor="#ffffff"/>
   <g transform="translate(-4201.5615,-331.82982)" id="g1624">
      <g id="g1082" transform="matrix(10.395383,0,0,10.395383,4381.9202,759.95477)">
         <path id="path1080" style="fill:white;fill-rule:nonzero" d="m 0,-38.241 c -0.007,-0.505 -0.354,-0.873 -0.833,-0.884 -0.482,-0.011 -0.942,0.451 -0.929,0.934 0.013,0.465 0.463,0.893 0.929,0.883 0.498,-0.012 0.841,-0.396 0.833,-0.933 m -0.869,4.834 c 1.855,0 3.71,0.006 5.565,-0.003 0.819,-0.004 1.186,-0.372 1.2,-1.185 0.011,-0.725 -0.01,-1.451 0.007,-2.176 0.009,-0.338 -0.115,-0.453 -0.45,-0.449 -1.032,0.015 -2.064,0.016 -3.097,0 -0.3,-0.005 -0.468,0.095 -0.597,0.368 -0.203,0.428 -0.527,0.771 -0.912,1.048 -1.438,1.03 -3.376,0.573 -4.287,-1.011 -0.123,-0.214 -0.21,-0.411 -0.526,-0.405 -1.08,0.017 -2.161,0.012 -3.241,0.002 -0.298,-0.002 -0.397,0.122 -0.393,0.406 0.012,0.677 0.002,1.355 0.004,2.032 0.003,1.035 0.333,1.371 1.356,1.373 1.79,0.002 3.581,10e-4 5.371,0 m 5.865,22.778 c 0,3.581 10e-4,7.161 0,10.742 0,1.009 0.343,1.351 1.379,1.352 5.485,10e-4 10.972,0 16.458,0 1.168,0 1.47,-0.299 1.47,-1.453 v -21.251 c 0,-1.135 -0.307,-1.445 -1.429,-1.445 -5.486,-10e-4 -10.972,-10e-4 -16.458,0 -1.102,0 -1.419,0.314 -1.419,1.406 -0.002,3.55 -10e-4,7.099 -10e-4,10.649 m -2.004,-1.33 c 0,-3.244 -10e-4,-6.488 10e-4,-9.733 0.002,-1.748 1.241,-2.993 2.982,-2.995 2.388,-0.004 4.777,-0.004 7.167,0.003 0.314,0 0.513,-0.034 0.512,-0.435 -0.011,-3.648 -0.003,-7.296 -0.011,-10.944 -0.002,-0.764 -0.379,-1.138 -1.138,-1.146 -1.389,-0.015 -2.776,0.003 -4.165,-0.011 -0.344,-0.003 -0.448,0.127 -0.443,0.457 0.015,0.855 0.013,1.71 0.002,2.566 -0.019,1.486 -1.307,2.786 -2.795,2.79 -3.971,0.01 -7.942,0.011 -11.913,0 -1.49,-0.005 -2.77,-1.303 -2.789,-2.796 -0.009,-0.839 -0.017,-1.679 0.005,-2.517 0.01,-0.381 -0.117,-0.507 -0.499,-0.501 -1.307,0.018 -2.615,0.004 -3.923,0.007 -0.99,0.003 -1.33,0.346 -1.33,1.35 -10e-4,11.024 -10e-4,22.05 0,33.074 0,1.002 0.342,1.348 1.332,1.348 5.473,0.002 10.945,-0.004 16.416,0.011 0.468,0.002 0.602,-0.135 0.599,-0.6 -0.018,-3.31 -0.01,-6.618 -0.01,-9.928 m -20.341,-7.374 c -0.001,-5.601 -0.001,-11.202 0,-16.804 0,-1.882 1.203,-3.067 3.089,-3.084 1.888,-0.018 3.776,-0.012 5.662,-0.026 1.482,-0.01 2.968,-0.012 4.452,0.035 0.349,0.011 0.54,-0.099 0.718,-0.413 1.191,-2.087 3.984,-2.077 5.167,0.019 0.17,0.301 0.355,0.394 0.682,0.393 3.39,-0.008 6.779,-0.007 10.17,-0.005 1.845,0.001 3.059,1.216 3.059,3.063 0.002,3.616 0.01,7.232 -0.009,10.849 -0.002,0.484 0.122,0.634 0.62,0.628 2.356,-0.025 4.714,-0.013 7.07,-0.009 1.719,0.002 2.974,1.246 2.975,2.954 0.002,7.409 0.002,14.819 0,22.228 C 26.305,2.212 25.057,3.467 23.348,3.468 17.537,3.47 11.726,3.471 5.914,3.467 4.449,3.466 3.229,2.439 3.019,0.99 2.964,0.613 2.81,0.557 2.489,0.559 c -2.518,0.008 -5.036,0.004 -7.554,0.004 -3.1,0 -6.2,0.002 -9.299,-10e-4 -1.742,-0.002 -2.984,-1.246 -2.985,-2.992 -0.002,-5.635 0,-11.269 0,-16.903"/>
      </g>
      <g id="g1086" transform="matrix(10.395383,0,0,10.395383,4312.3368,674.97554)">
         <path id="path1084" style="fill:white;fill-rule:nonzero" d="m 0,-3.865 c 0,-0.5 -0.014,-1 0.005,-1.499 0.012,-0.303 -0.091,-0.383 -0.393,-0.36 -1.714,0.126 -3.469,1.68 -3.383,3.914 0.089,2.33 2.155,3.958 4.433,3.619 C 2.239,1.573 3.673,0.109 3.804,-1.48 3.832,-1.824 3.746,-1.93 3.398,-1.925 2.416,-1.905 1.432,-1.927 0.449,-1.914 0.115,-1.909 -0.015,-2.031 -0.003,-2.366 0.015,-2.865 0.002,-3.365 0,-3.865 m 5.879,1.922 C 5.878,1.332 3.295,3.869 0.001,3.902 -3.152,3.933 -5.881,1.207 -5.823,-2.009 c 0.057,-3.229 2.614,-5.789 5.888,-5.787 3.245,0.002 5.814,2.59 5.814,5.853"/>
      </g>
      <g id="g1090" transform="matrix(10.395383,0,0,10.395383,4322.5451,473.06288)">
         <path id="path1088" style="fill:white;fill-rule:nonzero" d="m 0,7.819 c -2.064,0 -4.13,-0.012 -6.194,0.01 C -6.655,7.834 -6.843,7.7 -6.797,7.228 -6.764,6.877 -6.783,6.519 -6.789,6.165 -6.792,5.919 -6.678,5.815 -6.437,5.818 -6.05,5.822 -5.662,5.803 -5.275,5.819 -4.963,5.833 -4.843,5.713 -4.85,5.397 -4.864,4.719 -4.843,4.042 -4.857,3.365 -4.864,3.039 -4.753,2.89 -4.412,2.907 c 0.387,0.018 0.774,0.013 1.161,0.002 0.289,-0.009 0.406,0.111 0.402,0.4 -0.009,0.694 0.008,1.388 -0.005,2.081 -0.006,0.308 0.098,0.446 0.418,0.429 0.322,-0.018 0.647,-0.024 0.967,0.002 0.387,0.03 0.5,-0.126 0.496,-0.502 -0.015,-1.58 0.006,-3.161 -0.014,-4.742 -0.006,-0.437 0.124,-0.585 0.573,-0.583 1.438,0.008 1.438,-0.009 1.438,1.404 0,1.307 0.011,2.613 -0.006,3.919 C 1.013,5.692 1.127,5.822 1.513,5.824 2.896,5.831 2.896,5.843 2.896,4.471 2.896,3.778 2.907,3.084 2.892,2.39 2.885,2.058 3.007,1.922 3.343,1.938 c 0.37,0.018 0.742,0.019 1.112,0 C 4.795,1.922 4.907,2.066 4.902,2.394 4.891,3.379 4.911,4.362 4.894,5.346 4.887,5.704 5.006,5.843 5.366,5.82 5.72,5.798 6.076,5.825 6.431,5.815 6.714,5.806 6.847,5.917 6.837,6.211 6.825,6.597 6.817,6.985 6.84,7.371 6.863,7.756 6.667,7.825 6.339,7.823 4.613,7.814 2.887,7.819 1.161,7.819 Z"/>
      </g>
      <g id="g1094" transform="matrix(10.395383,0,0,10.395383,4534.7953,583.8838)">
         <path id="path1092" style="fill:white;fill-rule:nonzero" d="m 0,-1.873 h -4.546 c -1.294,0 -1.272,10e-4 -1.298,1.293 -0.009,0.482 0.161,0.59 0.612,0.587 3.208,-0.017 6.415,-0.009 9.622,-0.009 1.35,0 1.333,0 1.345,-1.342 C 5.739,-1.783 5.584,-1.886 5.174,-1.881 3.449,-1.861 1.725,-1.873 0,-1.873 m -0.1,3.875 c -2.177,0 -4.355,0.001 -6.534,-10e-4 C -7.504,2 -7.833,1.671 -7.835,0.805 -7.838,-0.39 -7.84,-1.583 -7.834,-2.777 c 0.003,-0.753 0.347,-1.098 1.091,-1.098 4.437,-0.002 8.874,-0.003 13.311,0 0.808,0 1.157,0.344 1.16,1.141 0.003,1.21 0.004,2.42 -10e-4,3.63 C 7.724,1.636 7.365,1.998 6.629,2 4.386,2.005 2.144,2.001 -0.1,2.002"/>
      </g>
      <g id="g1098" transform="matrix(10.395383,0,0,10.395383,4473.7952,624.19633)">
         <path id="path1096" style="fill:white;fill-rule:nonzero" d="M 0,2.963 C -0.354,2.963 -0.709,2.98 -1.062,2.959 -1.567,2.93 -1.933,2.565 -1.961,2.059 -1.981,1.673 -1.981,1.285 -1.96,0.9 -1.933,0.395 -1.566,0.02 -1.059,0.004 -0.352,-0.017 0.357,-0.017 1.065,0.005 1.571,0.021 1.936,0.397 1.964,0.903 1.985,1.273 1.982,1.644 1.967,2.014 1.942,2.572 1.574,2.938 1.014,2.962 0.677,2.977 0.338,2.965 0,2.965 Z"/>
      </g>
      <g id="g1102" transform="matrix(10.395383,0,0,10.395383,4533.9203,624.1755)">
         <path id="path1100" style="fill:white;fill-rule:nonzero" d="m 0,2.966 c -0.338,0 -0.677,0.015 -1.014,-0.004 C -1.546,2.934 -1.91,2.569 -1.936,2.034 -1.953,1.664 -1.953,1.293 -1.935,0.924 -1.908,0.392 -1.541,0.02 -1.006,0.005 c 0.692,-0.019 1.385,-0.02 2.076,0 0.533,0.016 0.897,0.392 0.922,0.927 0.018,0.369 0.019,0.741 0,1.11 C 1.965,2.573 1.597,2.937 1.062,2.963 0.709,2.98 0.354,2.966 0,2.966"/>
      </g>
      <g id="g1106" transform="matrix(10.395383,0,0,10.395383,4594.7953,655.05052)">
         <path id="path1104" style="fill:white;fill-rule:nonzero" d="m 0,-2.972 c 0.321,0 0.644,-0.009 0.965,0.002 0.592,0.021 0.962,0.384 0.985,0.968 0.013,0.337 0.013,0.676 0,1.013 -0.02,0.59 -0.384,0.968 -0.969,0.982 -0.674,0.015 -1.351,0.017 -2.027,-0.002 -0.536,-0.015 -0.906,-0.385 -0.933,-0.915 -0.019,-0.369 -0.018,-0.74 -10e-4,-1.111 0.026,-0.553 0.4,-0.913 0.965,-0.934 0.338,-0.013 0.677,-0.002 1.015,-0.003"/>
      </g>
      <g id="g1110" transform="matrix(10.395383,0,0,10.395383,4473.3786,674.49637)">
         <path id="path1108" style="fill:white;fill-rule:nonzero" d="M 0,2.97 C -0.322,2.969 -0.645,2.981 -0.966,2.967 -1.528,2.943 -1.898,2.581 -1.924,2.024 -1.94,1.671 -1.939,1.316 -1.925,0.962 -1.902,0.4 -1.539,0.022 -0.98,0.006 c 0.674,-0.017 1.351,-0.017 2.027,0 0.581,0.014 0.941,0.396 0.961,0.989 0.011,0.322 0.01,0.644 0,0.965 C 1.99,2.579 1.627,2.949 1.014,2.968 0.676,2.98 0.338,2.97 0,2.97"/>
      </g>
      <g id="g1114" transform="matrix(10.395383,0,0,10.395383,4533.7536,674.52971)">
         <path id="path1112" style="fill:white;fill-rule:nonzero" d="m 0,2.966 c -0.322,0 -0.645,0.012 -0.966,-0.002 -0.561,-0.025 -0.93,-0.389 -0.953,-0.948 -0.016,-0.369 -0.018,-0.741 0.003,-1.111 0.028,-0.506 0.392,-0.882 0.897,-0.899 0.707,-0.022 1.417,-0.021 2.124,0 0.507,0.016 0.874,0.39 0.903,0.895 0.021,0.385 0.021,0.773 0,1.158 C 1.98,2.566 1.615,2.932 1.11,2.96 0.741,2.982 0.37,2.964 0,2.964 Z"/>
      </g>
      <g id="g1118" transform="matrix(10.395383,0,0,10.395383,4595.087,705.37556)">
         <path id="path1116" style="fill:white;fill-rule:nonzero" d="m 0,-2.968 c 0.321,0 0.644,-0.012 0.965,0.002 0.561,0.024 0.931,0.388 0.956,0.946 0.016,0.354 0.015,0.708 0,1.062 -0.024,0.561 -0.389,0.937 -0.947,0.953 -0.676,0.017 -1.353,0.016 -2.028,0 -0.562,-0.014 -0.93,-0.386 -0.956,-0.944 -0.015,-0.354 -0.014,-0.709 0,-1.063 0.024,-0.561 0.388,-0.921 0.948,-0.956 0.032,-0.002 0.064,-0.002 0.096,-0.002 H 0 Z"/>
      </g>
      <g id="g1122" transform="matrix(10.395383,0,0,10.395383,4473.6286,724.85058)">
         <path id="path1120" style="fill:white;fill-rule:nonzero" d="M 0,2.969 C -0.321,2.97 -0.644,2.979 -0.965,2.968 -1.556,2.947 -1.926,2.584 -1.949,1.999 c -0.013,-0.338 -0.012,-0.676 0,-1.013 0.02,-0.591 0.384,-0.967 0.97,-0.982 0.659,-0.015 1.319,-0.014 1.978,0 C 1.591,0.016 1.96,0.386 1.983,0.971 1.997,1.308 1.996,1.647 1.984,1.985 1.964,2.574 1.6,2.944 1.015,2.967 0.677,2.98 0.339,2.969 0,2.969"/>
      </g>
      <g id="g1126" transform="matrix(10.395383,0,0,10.395383,4533.8786,724.85058)">
         <path id="path1124" style="fill:white;fill-rule:nonzero" d="M 0,2.969 C -0.322,2.969 -0.645,2.98 -0.966,2.967 -1.53,2.944 -1.903,2.584 -1.929,2.029 -1.946,1.659 -1.947,1.288 -1.928,0.919 -1.899,0.39 -1.527,0.021 -0.991,0.006 -0.3,-0.011 0.393,-0.013 1.084,0.008 1.613,0.024 1.976,0.406 1.999,0.941 2.017,1.311 2.018,1.682 1.998,2.051 1.97,2.579 1.598,2.941 1.062,2.965 0.709,2.982 0.354,2.968 0,2.969"/>
      </g>
      <g id="g1130" transform="matrix(10.395383,0,0,10.395383,4594.337,724.87141)">
         <path id="path1128" style="fill:white;fill-rule:nonzero" d="m 0,2.966 c -0.338,0 -0.677,0.015 -1.014,-0.004 C -1.546,2.934 -1.91,2.568 -1.936,2.033 -1.952,1.663 -1.953,1.292 -1.935,0.923 -1.908,0.392 -1.539,0.02 -1.004,0.005 c 0.692,-0.019 1.384,-0.02 2.075,0 C 1.604,0.021 1.968,0.398 1.993,0.933 2.01,1.302 2.011,1.674 1.992,2.043 1.965,2.574 1.596,2.928 1.062,2.966 1.029,2.968 0.997,2.968 0.965,2.968 H 0 Z"/>
      </g>
   </g>
</svg>
