<?xml version="1.0" encoding="UTF-8" standalone="no"?>
<svg xmlns:dc="http://purl.org/dc/elements/1.1/" xmlns:cc="http://creativecommons.org/ns#" xmlns:rdf="http://www.w3.org/1999/02/22-rdf-syntax-ns#" xmlns:svg="http://www.w3.org/2000/svg" xmlns="http://www.w3.org/2000/svg" xmlns:sodipodi="http://sodipodi.sourceforge.net/DTD/sodipodi-0.dtd" xmlns:inkscape="http://www.inkscape.org/namespaces/inkscape" inkscape:version="1.0 (4035a4fb49, 2020-05-01)" sodipodi:docname="claim.svg" id="svg618" style="clip-rule:evenodd;fill-rule:evenodd;stroke-linejoin:round;stroke-miterlimit:2" xml:space="preserve" version="1.1" viewBox="0 0 484.69446 515.64453" height="515.64453" width="484.69446">
   <metadata id="metadata624">
      <rdf:RDF>
         <cc:Work rdf:about="">
            <dc:format>
               image/svg+xml
            </dc:format>
            <dc:type rdf:resource="http://purl.org/dc/dcmitype/StillImage"/>
            <dc:title/>
         </cc:Work>
      </rdf:RDF>
   </metadata>
   <defs id="defs622"/>
   <sodipodi:namedview inkscape:current-layer="svg618" inkscape:window-maximized="1" inkscape:window-y="-8" inkscape:window-x="-8" inkscape:cy="333.44437" inkscape:cx="1048.6379" inkscape:zoom="0.5245" showgrid="false" id="namedview620" inkscape:window-height="1017" inkscape:window-width="1920" inkscape:pageshadow="2" inkscape:pageopacity="0" guidetolerance="10" gridtolerance="10" objecttolerance="10" borderopacity="1" bordercolor="#666666" pagecolor="#ffffff"/>
   <g transform="translate(-51.657833,-3733.1277)" id="g943">
      <g id="g118" transform="matrix(11.065217,0,0,11.065217,536.27543,4020.8074)">
         <path id="path116" style="fill:#fff;fill-rule:nonzero" d="m 0,0.718 c 0,4.592 0.012,9.184 -0.004,13.776 -0.012,3.453 -2.684,6.103 -6.123,6.104 -7.229,0.003 -14.459,0.006 -21.688,0.002 -3.039,-0.002 -5.309,-1.729 -6.139,-4.647 -0.183,-0.642 -0.151,-0.671 0.491,-0.567 0.65,0.106 1.3,0.053 1.938,-0.101 0.279,-0.067 0.421,-0.031 0.568,0.271 0.631,1.307 1.621,2.036 3.153,2.031 7.23,-0.025 14.459,-0.038 21.688,0.002 1.904,0.01 3.256,-1.573 3.272,-3.23 0.027,-2.653 0.02,-5.306 0.019,-7.958 0,-6.346 -0.003,-12.69 -0.013,-19.036 0,-0.541 -0.036,-1.085 -0.092,-1.624 -0.133,-1.3 -1.539,-2.501 -2.97,-2.56 -1.127,-0.046 -1.127,-0.046 -1.128,-1.179 0,-0.451 0.018,-0.901 -0.005,-1.35 -0.019,-0.373 0.146,-0.481 0.494,-0.486 3.397,-0.052 5.825,2.149 6.372,5.067 0.236,1.262 0.162,2.534 0.166,3.803 0.012,3.894 0.004,7.788 0.004,11.682 z"/>
      </g>
      <g id="g122" transform="matrix(11.065217,0,0,11.065217,284.28189,4096.2033)">
         <path id="path120" style="fill:#fff;fill-rule:nonzero" d="m 0,-12.442 c 0.029,-0.64 -0.079,-0.75 -0.732,-0.764 -0.45,-0.009 -0.899,0.013 -1.346,-0.06 -2.299,-0.37 -4.427,-1.179 -6.36,-2.481 -0.416,-0.28 -0.737,-0.29 -1.17,0.007 -0.997,0.684 -2.049,1.277 -3.194,1.7 -1.599,0.59 -3.252,0.895 -4.945,1.006 -0.333,0.022 -0.524,0.13 -0.531,0.492 -0.033,1.893 0.041,3.777 0.388,5.646 0.928,4.989 3.779,8.454 8.337,10.577 0.203,0.095 0.388,0.217 0.648,0.064 2.984,-1.757 5.366,-4.087 6.895,-7.229 1.375,-2.825 1.897,-5.846 2.01,-8.958 m -21.023,0.853 c 0.042,-0.621 -0.035,-1.208 0.078,-1.797 0.271,-1.425 1.225,-2.334 2.684,-2.485 1.218,-0.125 2.431,-0.262 3.612,-0.616 1.319,-0.395 2.545,-0.986 3.693,-1.732 1.307,-0.85 2.438,-0.877 3.722,-0.01 1.709,1.156 3.563,1.932 5.615,2.22 0.448,0.063 0.897,0.042 1.347,0.046 1.672,0.014 3.054,1.407 3.001,3.085 -0.069,2.188 -0.288,4.36 -0.847,6.485 -1.341,5.096 -4.232,9.049 -8.716,11.829 -0.342,0.212 -0.674,0.441 -1.013,0.659 -0.866,0.559 -1.794,0.514 -2.671,0.118 -3.685,-1.664 -6.521,-4.256 -8.372,-7.875 -0.904,-1.768 -1.422,-3.663 -1.762,-5.613 -0.251,-1.439 -0.357,-2.889 -0.371,-4.314"/>
      </g>
      <g id="g126" transform="matrix(11.065217,0,0,11.065217,355.2232,3804.1322)">
         <path id="path124" style="fill:#fff;fill-rule:nonzero" d="m 0,-1.739 c 0.604,0 1.209,0.003 1.813,-10e-4 0.549,-0.003 0.645,-0.138 0.497,-0.684 -0.285,-1.044 -1.256,-1.743 -2.376,-1.71 -1.108,0.033 -2.03,0.807 -2.247,1.875 -0.071,0.346 0.007,0.534 0.407,0.524 0.635,-0.017 1.27,-0.004 1.906,-0.004 m 0.053,6.545 c -1.939,0 -3.878,0.005 -5.818,-0.001 C -7.136,4.801 -8.057,3.863 -8.061,2.482 -8.063,1.845 -8.069,1.209 -8.059,0.574 c 0.024,-1.359 0.929,-2.269 2.288,-2.312 1.048,-0.032 1.048,-0.032 1.252,-1.026 0.456,-2.216 2.545,-3.786 4.85,-3.644 2.269,0.139 4.138,1.955 4.3,4.209 0.026,0.377 0.179,0.475 0.518,0.464 0.403,-0.011 0.808,-0.033 1.205,0.063 0.986,0.24 1.794,1.252 1.812,2.287 0.011,0.635 0.012,1.271 0,1.907 C 8.142,3.891 7.236,4.794 5.87,4.8 3.932,4.809 1.992,4.802 0.053,4.802 Z"/>
      </g>
      <g id="g130" transform="matrix(11.065217,0,0,11.065217,245.7052,4130.6491)">
         <path id="path128" style="fill:#fff;fill-rule:nonzero" d="M 0,2.301 C 0.66,1.575 1.313,0.853 1.972,0.135 c 0.129,-0.14 0.309,-0.126 0.48,-0.126 5.305,-10e-4 10.61,-0.004 15.914,0 0.632,0 1.184,0.548 1.18,1.14 -0.004,0.624 -0.539,1.149 -1.219,1.15 C 15.086,2.306 11.844,2.304 8.603,2.303 5.888,2.303 3.174,2.302 0.459,2.301 H 0"/>
      </g>
      <g id="g134" transform="matrix(11.065217,0,0,11.065217,376.4128,4060.6116)">
         <path id="path132" style="fill:#fff;fill-rule:nonzero" d="m 0,2.39 c -2.154,0 -4.309,0.002 -6.463,-0.001 -0.508,-10e-4 -0.514,-0.022 -0.304,-0.491 0.228,-0.509 0.455,-1.019 0.67,-1.533 0.111,-0.263 0.283,-0.367 0.573,-0.366 3.998,0.008 7.997,0.004 11.996,0.012 0.697,0.002 1.262,0.576 1.26,1.233 C 7.731,1.881 7.18,2.387 6.464,2.388 4.31,2.392 2.155,2.39 0,2.39"/>
      </g>
      <g id="g138" transform="matrix(11.065217,0,0,11.065217,386.49448,3948.024)">
         <path id="path136" style="fill:#fff;fill-rule:nonzero" d="m 0,-2.453 c 1.782,0 3.565,0.003 5.348,-0.001 0.564,-10e-4 1.041,0.15 1.317,0.69 0.436,0.852 -0.144,1.751 -1.149,1.756 -1.907,0.01 -3.813,0.003 -5.719,0.002 -1.488,0 -2.977,-0.014 -4.464,0.005 -0.387,0.005 -0.565,-0.122 -0.62,-0.5 -0.073,-0.511 -0.284,-0.98 -0.509,-1.441 -0.214,-0.441 -0.182,-0.506 0.31,-0.508 1.828,-0.007 3.657,-0.003 5.486,-0.003"/>
      </g>
      <g id="g142" transform="matrix(11.065217,0,0,11.065217,388.19156,3990.9699)">
         <path id="path140" style="fill:#fff;fill-rule:nonzero" d="m 0,2.441 c -1.767,0 -3.533,0.001 -5.301,0 -0.576,-10e-4 -0.598,-0.035 -0.489,-0.62 0.08,-0.426 0.193,-0.851 0.217,-1.28 0.024,-0.43 0.21,-0.552 0.611,-0.55 1.581,0.012 3.162,0 4.743,-0.001 1.751,0 3.503,0.004 5.254,0.001 0.299,-0.001 0.587,0.033 0.86,0.16 C 6.43,0.4 6.735,0.916 6.647,1.416 6.542,2.014 6.077,2.423 5.44,2.436 4.542,2.452 3.643,2.444 2.743,2.445 1.829,2.446 0.915,2.445 0,2.445 Z"/>
      </g>
      <g id="g146" transform="matrix(11.065217,0,0,11.065217,235.47227,3849.9906)">
         <path id="path144" style="fill:#fff;fill-rule:nonzero" d="m 0,-2.795 c 0,0.341 -0.004,0.682 0.001,1.023 0.003,0.269 -0.114,0.397 -0.392,0.394 -0.325,-0.005 -0.656,-0.025 -0.975,0.025 -1.396,0.218 -2.284,1.037 -2.689,2.376 -0.078,0.261 -0.168,0.334 -0.445,0.31 -0.694,-0.059 -1.396,-0.11 -2.081,0.077 -0.44,0.12 -0.38,-0.158 -0.345,-0.409 0.282,-2.024 1.317,-3.541 3.08,-4.57 1.073,-0.626 2.245,-0.756 3.453,-0.743 0.277,0.003 0.393,0.133 0.39,0.4 -0.004,0.372 -0.001,0.744 -0.001,1.117 z"/>
      </g>
      <g id="g150" transform="matrix(11.065217,0,0,11.065217,156.63263,3978.8032)">
         <path id="path148" style="fill:#fff;fill-rule:nonzero" d="M 0,8.834 C -0.506,8.797 -0.92,8.533 -1.203,8.099 -1.914,7.008 -2.641,5.923 -3.122,4.704 -3.224,4.447 -3.301,4.173 -3.343,3.901 -3.428,3.346 -3.046,3.036 -2.516,3.233 c 0.62,0.23 1.11,0.673 1.626,1.067 0.271,0.207 0.541,0.418 0.791,0.649 0.225,0.207 0.411,0.195 0.646,0.01 C 1.838,3.943 3.128,2.926 4.437,1.932 5.275,1.295 6.123,0.667 7.063,0.179 7.217,0.099 7.365,0.015 7.539,0.01 7.946,-0.001 8.135,0.255 8.004,0.646 7.884,1.006 7.661,1.31 7.412,1.585 5.376,3.84 3.389,6.14 1.218,8.271 0.847,8.635 0.418,8.835 0,8.834"/>
      </g>
   </g>
</svg>
