<?xml version="1.0" encoding="UTF-8" standalone="no"?>
<svg xmlns:dc="http://purl.org/dc/elements/1.1/" xmlns:cc="http://creativecommons.org/ns#" xmlns:rdf="http://www.w3.org/1999/02/22-rdf-syntax-ns#" xmlns:svg="http://www.w3.org/2000/svg" xmlns="http://www.w3.org/2000/svg" xmlns:sodipodi="http://sodipodi.sourceforge.net/DTD/sodipodi-0.dtd" xmlns:inkscape="http://www.inkscape.org/namespaces/inkscape" inkscape:version="1.0 (4035a4fb49, 2020-05-01)" sodipodi:docname="8.svg" id="svg1218" style="clip-rule:evenodd;fill-rule:evenodd;stroke-linejoin:round;stroke-miterlimit:2" xml:space="preserve" version="1.1" viewBox="0 0 441.69447 441.42063" height="441.42062" width="441.69446">
  <metadata id="metadata1224">
    <rdf:RDF>
      <cc:Work rdf:about="">
        <dc:format>
          image/svg+xml
        </dc:format>
        <dc:type rdf:resource="http://purl.org/dc/dcmitype/StillImage"/>
        <dc:title/>
      </cc:Work>
    </rdf:RDF>
  </metadata>
  <defs id="defs1222"/>
  <sodipodi:namedview inkscape:current-layer="svg1218" inkscape:window-maximized="1" inkscape:window-y="-8" inkscape:window-x="-8" inkscape:cy="-336.24308" inkscape:cx="-129.37462" inkscape:zoom="0.38006989" showgrid="false" id="namedview1220" inkscape:window-height="1017" inkscape:window-width="1920" inkscape:pageshadow="2" inkscape:pageopacity="0" guidetolerance="10" gridtolerance="10" objecttolerance="10" borderopacity="1" bordercolor="#666666" pagecolor="#ffffff"/>
  <g transform="translate(-4178.017,75.227673)" id="g1711">
    <g id="g754" transform="matrix(10.082675,0,0,10.082675,4178.017,329.71886)">
      <path id="path752" style="fill:#fff;fill-rule:nonzero" d="m 0,-29.31 c 0.32,-1.217 0.959,-2.211 2.031,-2.901 0.765,-0.492 1.608,-0.714 2.51,-0.714 5.269,-0.002 10.538,-0.001 15.807,-0.001 0.939,0 1.88,-0.002 2.819,0.003 1.095,0.005 1.903,0.805 1.901,1.876 -0.001,1.09 -0.783,1.855 -1.905,1.855 -5.98,0 -11.961,-0.002 -17.941,-0.003 -0.158,0 -0.314,-0.003 -0.471,0.001 -0.791,0.022 -1.05,0.279 -1.05,1.064 -0.002,6.067 0,12.133 0,18.198 0,1.14 -0.004,2.279 0.002,3.418 0.004,0.669 0.268,0.929 0.936,0.929 6.792,0.002 13.585,0.003 20.377,0.003 4.671,0 9.34,-0.001 14.011,-0.002 0.779,0 1.02,-0.243 1.02,-1.015 -10e-4,-6.323 -0.002,-12.645 0,-18.967 0.001,-1.33 0.768,-2.168 1.951,-2.146 0.951,0.018 1.777,0.826 1.777,1.778 0.005,6.65 0.012,13.301 -0.003,19.951 -0.004,2.105 -2.063,4.118 -4.199,4.126 -3.83,0.016 -7.661,0.006 -11.491,0.007 -1.281,0 -2.563,0.009 -3.845,-0.007 -0.344,-0.005 -0.502,0.093 -0.472,0.456 0.023,0.283 0.026,0.571 0.004,0.854 -0.028,0.341 0.111,0.443 0.442,0.441 1.652,-0.012 3.304,-0.018 4.955,0 1.308,0.014 2.185,1.238 1.787,2.456 -0.251,0.769 -0.944,1.266 -1.786,1.266 -4.856,0.002 -9.712,0.002 -14.568,0 -1.05,0 -1.875,-0.789 -1.895,-1.797 -0.02,-1.054 0.793,-1.917 1.868,-1.928 1.61,-0.018 3.218,-0.002 4.827,-0.004 0.574,0 0.574,-0.004 0.58,-0.561 0.017,-1.178 0.017,-1.178 -1.154,-1.178 C 14.098,-1.851 9.369,-1.889 4.643,-1.832 2.563,-1.808 0.62,-3.139 0.076,-5.227 0.055,-5.31 0.025,-5.389 0,-5.47 Z"/>
    </g>
    <g id="g758" transform="matrix(10.082675,0,0,10.082675,4574.3506,201.48126)">
      <path id="path756" style="fill:#fff;fill-rule:nonzero" d="m 0,-23.739 c -0.366,0.001 -0.596,0.211 -0.822,0.435 -2.724,2.689 -5.449,5.377 -8.175,8.064 -0.396,0.389 -0.801,0.767 -1.196,1.157 -1.651,1.63 -3.295,3.265 -4.951,4.889 -0.222,0.218 -0.2,0.366 0.014,0.555 0.192,0.17 0.362,0.361 0.545,0.542 0.508,0.5 0.509,0.5 0.997,0.004 1.818,-1.844 3.635,-3.689 5.453,-5.533 2.818,-2.857 5.636,-5.713 8.453,-8.57 0.1,-0.101 0.206,-0.201 0.283,-0.319 0.169,-0.259 0.175,-0.536 0.033,-0.811 C 0.497,-23.589 0.265,-23.708 0,-23.739 m -23.447,23.61 c 0.295,-0.019 0.791,-0.057 1.288,-0.081 1.16,-0.054 2.292,-0.263 3.365,-0.705 1.356,-0.558 2.364,-1.459 2.733,-2.948 0.054,-0.214 0.041,-0.376 -0.124,-0.539 -0.83,-0.821 -1.652,-1.65 -2.477,-2.475 -0.112,-0.112 -0.226,-0.207 -0.407,-0.19 -1.868,0.181 -3.291,0.99 -4.065,2.786 -0.47,1.09 -0.756,2.235 -1.098,3.363 -0.238,0.78 -0.235,0.781 0.785,0.789 M 0.765,-27.444 c 1.673,0.392 2.898,1.339 3.456,2.983 0.556,1.64 0.283,3.174 -0.867,4.51 -0.232,0.269 -0.484,0.522 -0.734,0.774 -3.52,3.568 -7.043,7.133 -10.563,10.7 -1.33,1.348 -2.655,2.702 -3.985,4.05 -0.174,0.176 -0.313,0.359 -0.347,0.616 -0.362,2.758 -1.847,4.718 -4.283,5.991 -1.589,0.832 -3.301,1.218 -5.079,1.336 -2.858,0.189 -5.719,0.05 -8.58,0.078 -0.852,0.008 -1.553,-0.554 -1.773,-1.343 -0.236,-0.839 0.065,-1.636 0.798,-2.117 0.255,-0.167 0.531,-0.267 0.841,-0.263 0.342,0.004 0.684,0.001 1.026,-0.001 0.771,-0.005 0.829,-0.047 1.123,-0.779 0.426,-1.059 0.646,-2.182 1.009,-3.26 0.475,-1.413 1.077,-2.753 2.07,-3.894 1.358,-1.561 3.108,-2.352 5.113,-2.657 0.309,-0.047 0.622,-0.078 0.934,-0.083 0.249,-0.005 0.382,-0.165 0.532,-0.312 3.011,-2.971 6.021,-5.941 9.03,-8.911 2.038,-2.009 4.083,-4.011 6.112,-6.031 0.697,-0.694 1.518,-1.137 2.458,-1.387 z"/>
    </g>
  </g>
</svg>
