<?xml version="1.0" encoding="UTF-8" standalone="no"?>
<svg xmlns:dc="http://purl.org/dc/elements/1.1/" xmlns:cc="http://creativecommons.org/ns#" xmlns:rdf="http://www.w3.org/1999/02/22-rdf-syntax-ns#" xmlns:svg="http://www.w3.org/2000/svg" xmlns="http://www.w3.org/2000/svg" xmlns:sodipodi="http://sodipodi.sourceforge.net/DTD/sodipodi-0.dtd" xmlns:inkscape="http://www.inkscape.org/namespaces/inkscape" inkscape:version="1.0 (4035a4fb49, 2020-05-01)" sodipodi:docname="4.svg" id="svg1218" style="clip-rule:evenodd;fill-rule:evenodd;stroke-linejoin:round;stroke-miterlimit:2" xml:space="preserve" version="1.1" viewBox="0 0 500.09617 423.3783" height="423.3783" width="500.09616">
   <metadata id="metadata1224">
      <rdf:RDF>
         <cc:Work rdf:about="">
            <dc:format>
               image/svg+xml
            </dc:format>
            <dc:type rdf:resource="http://purl.org/dc/dcmitype/StillImage"/>
            <dc:title/>
         </cc:Work>
      </rdf:RDF>
   </metadata>
   <defs id="defs1222"/>
   <sodipodi:namedview inkscape:current-layer="svg1218" inkscape:window-maximized="1" inkscape:window-y="-8" inkscape:window-x="-8" inkscape:cy="189.16235" inkscape:cx="2507.9069" inkscape:zoom="0.26875" showgrid="false" id="namedview1220" inkscape:window-height="1017" inkscape:window-width="1920" inkscape:pageshadow="2" inkscape:pageopacity="0" guidetolerance="10" gridtolerance="10" objecttolerance="10" borderopacity="1" bordercolor="#666666" pagecolor="#ffffff"/>
   <g transform="translate(4074.1375,-1211.9889)" id="g1650">
      <g id="g1170" transform="matrix(10.399342,0,0,10.399342,-3677.9284,1362.7616)">
         <path id="path1168" style="fill:#fff;fill-rule:nonzero" d="m 0,-0.469 c -0.257,5.791 -2.868,10.137 -8.117,12.691 -3.737,1.819 -7.612,1.805 -11.46,0.209 -1.492,-0.618 -2.818,-1.499 -4,-2.596 -2.534,-2.351 -4.003,-5.254 -4.429,-8.674 -0.306,-2.466 0.046,-4.858 1.036,-7.136 1.485,-3.415 3.954,-5.866 7.354,-7.379 1.802,-0.802 3.699,-1.156 5.662,-1.144 2.55,0.015 4.922,0.691 7.113,1.996 0.336,0.2 0.343,0.24 0.109,0.547 -0.501,0.654 -1.008,1.304 -1.501,1.964 -0.142,0.189 -0.266,0.217 -0.479,0.1 -1.818,-1.005 -3.766,-1.506 -5.847,-1.395 -2.681,0.143 -5.017,1.124 -6.967,2.984 -1.827,1.742 -2.942,3.861 -3.255,6.368 -0.423,3.389 0.504,6.367 2.844,8.876 1.747,1.872 3.897,2.993 6.436,3.306 3.328,0.41 6.271,-0.483 8.763,-2.754 1.907,-1.738 3.031,-3.899 3.402,-6.451 0.12,-0.829 0.144,-1.662 0.05,-2.495 -0.027,-0.232 0.014,-0.426 0.163,-0.617 0.693,-0.886 1.376,-1.781 2.063,-2.672 0.06,-0.078 0.11,-0.195 0.221,-0.185 0.138,0.014 0.137,0.158 0.17,0.258 0.415,1.226 0.643,2.715 0.669,4.199"/>
      </g>
      <g id="g1174" transform="matrix(10.399342,0,0,10.399342,-3824.2602,1218.8532)">
         <path id="path1172" style="fill:#fff;fill-rule:nonzero" d="m 0,21.241 c -0.873,0.002 -1.525,-0.409 -2.06,-1.07 -1.794,-2.218 -3.614,-4.414 -5.385,-6.648 -1.212,-1.528 -0.265,-3.552 1.409,-3.914 1.083,-0.234 1.925,0.192 2.598,1.017 1.047,1.283 2.089,2.572 3.135,3.857 0.218,0.268 0.27,0.268 0.489,-0.017 1.045,-1.363 2.087,-2.728 3.132,-4.092 2.333,-3.047 4.666,-6.093 7.001,-9.138 0.663,-0.864 1.75,-1.238 2.702,-0.935 1.065,0.338 1.73,1.188 1.776,2.33 0.022,0.555 -0.152,1.073 -0.493,1.52 -0.858,1.128 -1.721,2.251 -2.58,3.376 C 10.845,8.677 9.97,9.828 9.09,10.976 7.788,12.674 6.482,14.368 5.18,16.066 4.097,17.476 3.018,18.889 1.934,20.298 1.47,20.902 0.765,21.241 0,21.241"/>
      </g>
      <g id="g1178" transform="matrix(10.399342,0,0,10.399342,-3749.098,1553.7993)">
         <path id="path1176" style="fill:#fff;fill-rule:nonzero" d="M 0,7.641 C 0.108,7.104 0.217,6.562 0.326,6.021 0.379,5.765 0.419,5.506 0.49,5.255 0.565,4.987 0.489,4.806 0.28,4.624 -0.296,4.123 -0.854,3.603 -1.416,3.086 -1.492,3.016 -1.626,2.952 -1.578,2.824 -1.534,2.703 -1.395,2.724 -1.288,2.713 -0.529,2.626 0.229,2.536 0.987,2.46 1.264,2.433 1.43,2.328 1.544,2.053 1.841,1.339 2.178,0.641 2.502,-0.061 c 0.039,-0.085 0.059,-0.214 0.187,-0.202 0.104,0.01 0.124,0.122 0.161,0.202 0.329,0.712 0.667,1.419 0.977,2.138 0.112,0.26 0.284,0.357 0.547,0.384 0.759,0.077 1.517,0.166 2.275,0.253 0.106,0.011 0.243,-0.01 0.285,0.118 0.039,0.116 -0.08,0.176 -0.15,0.24 C 6.215,3.595 5.647,4.12 5.066,4.63 4.87,4.801 4.796,4.97 4.854,5.232 5.023,5.987 5.17,6.747 5.322,7.505 5.344,7.609 5.407,7.735 5.296,7.812 5.186,7.89 5.088,7.785 4.996,7.734 4.312,7.351 3.627,6.971 2.951,6.575 2.751,6.457 2.594,6.464 2.396,6.58 1.702,6.985 0.999,7.374 0.299,7.768 0.153,7.849 0.008,7.916 0,7.641"/>
      </g>
      <g id="g1182" transform="matrix(10.399342,0,0,10.399342,-3646.1909,1553.8326)">
         <path id="path1180" style="fill:#fff;fill-rule:nonzero" d="M 0,7.621 C 0.157,6.863 0.298,6.092 0.484,5.332 0.57,4.987 0.476,4.779 0.216,4.558 -0.357,4.071 -0.904,3.553 -1.459,3.044 -1.522,2.987 -1.621,2.932 -1.586,2.825 -1.552,2.723 -1.444,2.725 -1.356,2.715 -0.618,2.631 0.118,2.537 0.858,2.471 1.196,2.441 1.423,2.349 1.563,1.996 1.84,1.308 2.173,0.642 2.485,-0.033 2.529,-0.127 2.543,-0.272 2.684,-0.265 2.8,-0.259 2.822,-0.13 2.862,-0.043 3.174,0.642 3.497,1.324 3.784,2.019 3.899,2.298 4.061,2.423 4.355,2.452 5.115,2.525 5.872,2.621 6.629,2.708 6.736,2.721 6.876,2.699 6.925,2.814 6.98,2.942 6.846,3.007 6.77,3.077 6.194,3.608 5.621,4.142 5.033,4.658 4.849,4.82 4.802,4.98 4.851,5.213 5.016,5.989 5.165,6.768 5.318,7.546 5.336,7.633 5.384,7.734 5.304,7.803 5.205,7.888 5.114,7.798 5.031,7.752 4.34,7.365 3.645,6.982 2.961,6.58 2.75,6.457 2.586,6.46 2.379,6.582 1.695,6.985 1.004,7.374 0.312,7.762 0.079,7.893 -0.012,7.849 0,7.621"/>
      </g>
      <g id="g1186" transform="matrix(10.399342,0,0,10.399342,-3954.8811,1553.6951)">
         <path id="path1184" style="fill:#fff;fill-rule:nonzero" d="M 0,7.67 C 0.104,7.168 0.204,6.675 0.306,6.184 0.375,5.849 0.439,5.513 0.521,5.181 0.569,4.982 0.522,4.843 0.366,4.705 -0.229,4.18 -0.813,3.643 -1.399,3.107 -1.478,3.036 -1.61,2.974 -1.579,2.851 -1.542,2.703 -1.386,2.736 -1.272,2.723 -0.523,2.636 0.225,2.546 0.975,2.472 1.25,2.445 1.421,2.345 1.538,2.072 1.841,1.36 2.181,0.664 2.508,-0.038 c 0.04,-0.086 0.053,-0.218 0.178,-0.214 0.118,0.004 0.14,0.131 0.18,0.219 C 3.193,0.68 3.529,1.388 3.833,2.11 3.937,2.356 4.094,2.438 4.331,2.463 5.1,2.546 5.868,2.634 6.637,2.722 6.744,2.734 6.884,2.713 6.931,2.83 6.983,2.958 6.85,3.024 6.773,3.094 6.197,3.625 5.623,4.158 5.034,4.676 4.86,4.829 4.806,4.982 4.853,5.204 5.014,5.971 5.166,6.74 5.316,7.509 5.337,7.613 5.407,7.741 5.305,7.822 5.198,7.906 5.098,7.798 5.006,7.747 4.322,7.364 3.637,6.984 2.96,6.588 2.762,6.473 2.604,6.468 2.403,6.585 1.71,6.991 1.007,7.381 0.306,7.775 0.164,7.855 0.019,7.926 0,7.67"/>
      </g>
      <g id="g1190" transform="matrix(10.399342,0,0,10.399342,-4057.6962,1553.5409)">
         <path id="path1188" style="fill:#fff;fill-rule:nonzero" d="M 0,7.704 C 0.124,7.079 0.202,6.467 0.374,5.881 0.565,5.23 0.53,4.728 -0.089,4.303 -0.564,3.977 -0.961,3.535 -1.388,3.139 -1.473,3.061 -1.614,2.989 -1.574,2.853 -1.531,2.712 -1.374,2.75 -1.26,2.736 -0.474,2.641 0.313,2.541 1.102,2.459 1.324,2.436 1.436,2.33 1.521,2.136 1.835,1.419 2.161,0.706 2.485,-0.006 2.528,-0.1 2.544,-0.246 2.686,-0.235 2.8,-0.227 2.819,-0.099 2.86,-0.01 3.185,0.692 3.518,1.39 3.823,2.1 3.936,2.358 4.105,2.459 4.369,2.486 5.128,2.562 5.886,2.652 6.644,2.739 6.749,2.751 6.889,2.729 6.929,2.856 6.968,2.984 6.836,3.046 6.759,3.117 6.182,3.645 5.606,4.177 5.018,4.693 4.819,4.867 4.803,5.053 4.854,5.286 5.015,6.032 5.167,6.78 5.32,7.527 5.342,7.631 5.406,7.757 5.298,7.836 5.189,7.916 5.09,7.812 4.998,7.761 4.333,7.386 3.664,7.019 3.01,6.626 2.77,6.482 2.583,6.489 2.347,6.629 1.673,7.028 0.985,7.404 0.303,7.788 0.166,7.865 0.021,7.95 0,7.704"/>
      </g>
      <g id="g1194" transform="matrix(10.399342,0,0,10.399342,-3851.9131,1553.8868)">
         <path id="path1192" style="fill:#fff;fill-rule:nonzero" d="M 0,7.66 C 0.139,6.976 0.24,6.297 0.423,5.641 0.572,5.099 0.488,4.727 0.016,4.374 -0.514,3.98 -0.971,3.491 -1.457,3.041 -1.521,2.982 -1.619,2.929 -1.589,2.823 -1.558,2.717 -1.449,2.721 -1.361,2.711 -0.624,2.626 0.113,2.527 0.854,2.468 1.224,2.438 1.453,2.312 1.597,1.947 1.853,1.293 2.159,0.659 2.451,0.019 2.502,-0.092 2.519,-0.269 2.677,-0.267 2.815,-0.265 2.836,-0.101 2.885,0.004 3.205,0.697 3.533,1.386 3.829,2.09 3.938,2.348 4.11,2.424 4.354,2.45 5.104,2.53 5.852,2.616 6.6,2.702 6.716,2.715 6.872,2.685 6.922,2.814 6.976,2.953 6.821,3.016 6.738,3.093 6.161,3.622 5.585,4.153 4.998,4.672 4.811,4.838 4.8,5.023 4.847,5.243 5,5.97 5.15,6.698 5.295,7.427 5.318,7.549 5.413,7.702 5.296,7.797 5.171,7.898 5.054,7.759 4.946,7.699 4.288,7.333 3.629,6.968 2.98,6.585 2.764,6.458 2.592,6.449 2.37,6.58 1.687,6.983 0.992,7.365 0.3,7.753 0.167,7.827 0.013,7.929 0,7.66"/>
      </g>
   </g>
</svg>
