<?xml version="1.0" encoding="UTF-8" standalone="no"?>
<svg xmlns:dc="http://purl.org/dc/elements/1.1/" xmlns:cc="http://creativecommons.org/ns#" xmlns:rdf="http://www.w3.org/1999/02/22-rdf-syntax-ns#" xmlns:svg="http://www.w3.org/2000/svg" xmlns="http://www.w3.org/2000/svg" xmlns:sodipodi="http://sodipodi.sourceforge.net/DTD/sodipodi-0.dtd" xmlns:inkscape="http://www.inkscape.org/namespaces/inkscape" inkscape:version="1.0 (4035a4fb49, 2020-05-01)" sodipodi:docname="4.svg" id="svg1218" style="clip-rule:evenodd;fill-rule:evenodd;stroke-linejoin:round;stroke-miterlimit:2" xml:space="preserve" version="1.1" viewBox="0 0 441.64896 434.29697" height="434.29697" width="441.64896">
   <metadata id="metadata1224">
      <rdf:RDF>
         <cc:Work rdf:about="">
            <dc:format>
               image/svg+xml
            </dc:format>
            <dc:type rdf:resource="http://purl.org/dc/dcmitype/StillImage"/>
            <dc:title/>
         </cc:Work>
      </rdf:RDF>
   </metadata>
   <defs id="defs1222"/>
   <sodipodi:namedview inkscape:current-layer="svg1218" inkscape:window-maximized="1" inkscape:window-y="-8" inkscape:window-x="-8" inkscape:cy="206.73262" inkscape:cx="-242.89026" inkscape:zoom="0.26875" showgrid="false" id="namedview1220" inkscape:window-height="1017" inkscape:window-width="1920" inkscape:pageshadow="2" inkscape:pageopacity="0" guidetolerance="10" gridtolerance="10" objecttolerance="10" borderopacity="1" bordercolor="#666666" pagecolor="#ffffff"/>
   <g transform="translate(-4207.6559,-1463.162)" id="g1634">
      <g id="g1134" transform="matrix(9.9188413,0,0,9.9188413,4475.8369,1870.2015)">
         <path id="path1132" style="fill:#fff;fill-rule:nonzero" d="m 0,-38.287 c 0,1.653 0.003,3.304 -0.002,4.954 -0.001,0.277 0.152,0.323 0.38,0.321 0.637,-0.005 1.273,-0.002 1.911,-10e-4 H 5.265 C 3.508,-34.773 1.769,-36.515 0,-38.287 m 7.25,38.115 c -2.625,0 -5.249,-0.003 -7.874,10e-4 -0.932,0.001 -0.799,-0.118 -0.843,0.817 -0.021,0.473 0.135,0.584 0.589,0.583 C 4.448,1.214 9.773,1.22 15.1,1.218 c 0.951,-10e-4 0.831,0.109 0.869,-0.844 0.018,-0.452 -0.145,-0.557 -0.571,-0.555 -2.715,0.017 -5.431,0.009 -8.148,0.009 m 1.426,-8.775 c 0,-1.289 -0.01,-2.579 0.006,-3.868 0.004,-0.354 -0.11,-0.488 -0.47,-0.476 -0.652,0.022 -1.305,0.016 -1.957,0.002 -0.303,-0.008 -0.436,0.08 -0.435,0.409 0.011,2.625 0.013,5.249 0.003,7.874 -0.001,0.336 0.145,0.408 0.441,0.403 C 6.916,-4.618 7.569,-4.626 8.221,-4.6 8.592,-4.586 8.687,-4.73 8.683,-5.079 8.666,-6.368 8.676,-7.658 8.676,-8.947 m -25.492,-20.087 c -0.001,-1.41 -0.006,-2.82 0,-4.23 10e-4,-0.274 -0.04,-0.433 -0.379,-0.375 -0.402,0.068 -0.812,0.07 -1.216,0.145 -4.184,0.778 -7.644,4.796 -6.971,9.711 0.622,4.548 4.715,7.827 9.249,7.453 2.62,-0.216 4.693,-1.404 6.283,-3.471 0.358,-0.464 0.353,-0.475 -0.15,-0.765 -2.141,-1.235 -4.279,-2.471 -6.428,-3.69 -0.292,-0.165 -0.397,-0.356 -0.394,-0.684 0.014,-1.365 0.007,-2.729 0.006,-4.094 m 6.605,-10.472 c -2.746,0 -5.492,0.002 -8.237,-0.002 -0.282,-10e-4 -0.502,0 -0.496,0.393 0.016,1.244 0.01,2.488 0.003,3.731 -0.002,0.287 0.088,0.358 0.381,0.312 0.915,-0.143 1.832,-0.176 2.761,-0.063 0.43,0.052 0.511,0.22 0.509,0.604 -0.012,2.837 0.006,5.674 -0.018,8.51 -0.004,0.494 0.166,0.748 0.589,0.989 2.345,1.337 4.667,2.713 7.003,4.065 0.26,0.151 0.284,0.289 0.149,0.544 -0.716,1.343 -1.632,2.522 -2.83,3.464 -2.356,1.85 -5.03,2.522 -7.988,2.12 -0.55,-0.075 -0.553,-0.064 -0.553,0.517 -0.001,4.46 0,8.92 0,13.38 0,0.703 0,0.704 0.684,0.704 4.794,0 9.588,0.002 14.382,-0.001 1.035,-0.001 0.901,0.115 0.885,-0.895 -0.007,-0.433 0.118,-0.573 0.562,-0.57 2.654,0.019 5.31,0.019 7.964,0.005 1.065,-0.005 0.937,0.215 0.954,-1.025 0.005,-0.28 -0.114,-0.374 -0.382,-0.367 -0.439,0.012 -0.88,-0.016 -1.319,0.008 -0.377,0.02 -0.502,-0.123 -0.495,-0.498 0.018,-1.092 0.007,-2.184 0.007,-3.276 0,-2.473 0.008,-4.946 -0.009,-7.419 -0.003,-0.424 0.143,-0.566 0.552,-0.537 0.392,0.026 0.79,-0.011 1.182,0.014 0.365,0.022 0.468,-0.124 0.468,-0.475 -0.01,-5.234 -0.014,-10.468 0,-15.701 0.001,-0.437 -0.149,-0.53 -0.552,-0.527 -2.29,0.016 -4.581,0.009 -6.872,0.007 -0.592,0 -0.596,-0.004 -0.596,-0.612 -0.001,-2.261 0.002,-4.521 0.002,-6.781 0,-0.616 -0.001,-0.618 -0.635,-0.618 h -8.055 M 7.252,2.738 c -3.217,0 -6.434,-0.008 -9.65,0.01 -0.462,0.003 -0.601,-0.137 -0.592,-0.593 0.016,-0.941 0.2,-0.872 -0.905,-0.872 -5.325,0.001 -10.65,0 -15.976,-0.002 -0.584,0 -0.586,-0.003 -0.586,-0.618 -10e-4,-5.113 -0.009,-10.226 0.011,-15.339 0.002,-0.525 -0.154,-0.781 -0.642,-1.015 -3.184,-1.527 -5.176,-4.047 -5.787,-7.516 -0.845,-4.791 1.68,-9.15 5.825,-11.065 0.459,-0.212 0.613,-0.444 0.602,-0.945 -0.034,-1.744 -0.002,-3.49 -0.021,-5.235 -0.005,-0.417 0.096,-0.586 0.552,-0.585 6.343,0.014 12.685,0.013 19.026,0.006 0.33,0 0.568,0.1 0.799,0.334 2.557,2.571 5.118,5.137 7.693,7.69 0.291,0.289 0.419,0.574 0.418,0.989 -0.013,5.523 -0.009,11.045 -0.009,16.568 0,0.638 10e-4,0.639 0.647,0.644 0.349,0.002 0.699,0.02 1.047,-0.003 0.374,-0.026 0.501,0.113 0.498,0.491 -0.015,1.624 -0.004,3.247 -0.004,4.87 0,1.943 -0.011,3.885 0.006,5.827 0.004,0.42 -0.135,0.567 -0.548,0.54 -0.423,-0.028 -0.849,0.002 -1.273,-0.01 -0.275,-0.008 -0.379,0.1 -0.375,0.374 0.013,1.22 -0.109,1.016 0.961,1.019 2.655,0.01 5.31,0.009 7.966,-0.006 0.405,-0.002 0.562,0.105 0.552,0.535 -0.026,1.107 -0.028,2.215 0.001,3.322 C 17.5,2.609 17.366,2.751 16.901,2.748 13.685,2.729 10.468,2.738 7.252,2.738"/>
      </g>
      <g id="g1138" transform="matrix(9.9188413,0,0,9.9188413,4634.1287,1766.5972)">
         <path id="path1136" style="fill:#fff;fill-rule:nonzero" d="m 0,0.088 c 0,-1.79 -0.007,-3.581 0.007,-5.371 0.002,-0.347 -0.089,-0.492 -0.462,-0.477 -0.651,0.027 -1.305,0.018 -1.957,0.006 -0.297,-0.006 -0.441,0.071 -0.44,0.405 0.008,3.596 0.009,7.191 0,10.787 -0.001,0.336 0.142,0.41 0.439,0.404 0.638,-0.014 1.275,-0.027 1.911,0.004 C -0.091,5.866 0.013,5.713 0.009,5.322 -0.01,3.578 0.001,1.833 0,0.088 M -4.369,0.043 c 0,-2.26 0.009,-4.519 -0.008,-6.778 -0.003,-0.413 0.121,-0.551 0.541,-0.546 1.607,0.02 3.215,0.018 4.821,-0.002 0.417,-0.005 0.543,0.132 0.542,0.547 C 1.516,-2.232 1.515,2.271 1.53,6.775 1.532,7.231 1.4,7.376 0.94,7.368 -0.651,7.342 -2.244,7.345 -3.836,7.364 -4.252,7.37 -4.383,7.238 -4.38,6.821 -4.363,4.562 -4.372,2.302 -4.372,0.043 Z"/>
      </g>
      <g id="g1142" transform="matrix(9.9188413,0,0,9.9188413,4353.0035,1605.6221)">
         <path id="path1140" style="fill:#fff;fill-rule:nonzero" d="m 0,-4.258 c 0,1.122 0.022,2.244 -0.011,3.365 -0.012,0.467 0.13,0.74 0.547,0.972 C 2.43,1.133 4.308,2.215 6.182,3.301 6.483,3.476 6.61,3.458 6.723,3.107 7.199,1.621 7.362,0.107 7.031,-1.417 6.252,-5.006 4.074,-7.297 0.516,-8.252 0.027,-8.383 0.001,-8.351 0.001,-7.85 0,-6.653 0.001,-5.455 0,-4.258 m -1.522,-0.333 c 0,-1.623 0.012,-3.245 -0.008,-4.867 -0.006,-0.435 0.154,-0.547 0.558,-0.521 5.003,0.322 8.758,3.867 9.588,8.486 C 9.05,0.917 8.563,3.204 7.433,5.366 7.261,5.695 7.104,5.747 6.77,5.551 4.181,4.034 1.584,2.531 -1.019,1.038 -1.371,0.836 -1.538,0.615 -1.53,0.183 -1.502,-1.408 -1.519,-3 -1.519,-4.591 Z"/>
      </g>
      <g id="g1146" transform="matrix(9.9188413,0,0,9.9188413,4489.6703,1795.7973)">
         <path id="path1144" style="fill:#fff;fill-rule:nonzero" d="m 0,0.023 c 0,-0.834 -0.005,-1.669 0.003,-2.503 0.003,-0.257 -0.065,-0.398 -0.356,-0.393 -0.712,0.011 -1.426,0.01 -2.139,0 -0.287,-0.004 -0.362,0.136 -0.361,0.394 0.007,1.669 0.01,3.337 0.003,5.006 -10e-4,0.28 0.111,0.374 0.38,0.37 C -1.803,2.886 -1.134,2.878 -0.468,2.9 -0.114,2.912 0.019,2.803 0.008,2.435 -0.016,1.632 0.001,0.827 0,0.023 M -4.369,0.008 c 0,-1.303 0.012,-2.608 -0.006,-3.911 -0.006,-0.379 0.127,-0.496 0.499,-0.493 1.637,0.015 3.274,0.016 4.911,0 C 1.416,-4.4 1.529,-4.263 1.527,-3.895 1.517,-1.288 1.515,1.319 1.526,3.927 1.528,4.306 1.396,4.423 1.026,4.419 -0.626,4.404 -2.278,4.406 -3.931,4.417 -4.268,4.419 -4.38,4.295 -4.377,3.965 -4.364,2.646 -4.372,1.327 -4.372,0.008 Z"/>
      </g>
   </g>
</svg>
