<?xml version="1.0" encoding="UTF-8" standalone="no"?>
<svg xmlns:dc="http://purl.org/dc/elements/1.1/" xmlns:cc="http://creativecommons.org/ns#" xmlns:rdf="http://www.w3.org/1999/02/22-rdf-syntax-ns#" xmlns:svg="http://www.w3.org/2000/svg" xmlns="http://www.w3.org/2000/svg" xmlns:sodipodi="http://sodipodi.sourceforge.net/DTD/sodipodi-0.dtd" xmlns:inkscape="http://www.inkscape.org/namespaces/inkscape" inkscape:version="1.0 (4035a4fb49, 2020-05-01)" sodipodi:docname="6.svg" id="svg1218" style="clip-rule:evenodd;fill-rule:evenodd;stroke-linejoin:round;stroke-miterlimit:2" xml:space="preserve" version="1.1" viewBox="0 0 479.07664 479.07258" height="479.07257" width="479.07663">
     <metadata id="metadata1224">
          <rdf:RDF>
               <cc:Work rdf:about="">
                    <dc:format>
                         image/svg+xml
                    </dc:format>
                    <dc:type rdf:resource="http://purl.org/dc/dcmitype/StillImage"/>
                    <dc:title/>
               </cc:Work>
          </rdf:RDF>
     </metadata>
     <defs id="defs1222"/>
     <sodipodi:namedview inkscape:current-layer="svg1218" inkscape:window-maximized="1" inkscape:window-y="-8" inkscape:window-x="-8" inkscape:cy="252.21049" inkscape:cx="250.62827" inkscape:zoom="1.075" showgrid="false" id="namedview1220" inkscape:window-height="1017" inkscape:window-width="1920" inkscape:pageshadow="2" inkscape:pageopacity="0" guidetolerance="10" gridtolerance="10" objecttolerance="10" borderopacity="1" bordercolor="#666666" pagecolor="#ffffff"/>
     <g transform="translate(-4159.1722,-1098.3842)" id="g1688">
          <g id="g1673">
               <g id="g1661">
                    <g id="g1654">
                         <g transform="matrix(11.792801,0,0,11.792801,4393.6838,1333.3322)" id="g1198">
                              <path d="M 0,0.779 C 0.374,0.707 0.683,0.549 0.931,0.342 1.184,0.131 0.831,0.036 0.741,-0.099 0.669,-0.207 0.53,-0.356 0.412,-0.134 0.262,0.148 0.085,0.422 0,0.779 m 18.144,-19 c -0.12,0.021 -0.313,0.041 -0.391,0.209 -0.068,0.145 0.103,0.224 0.188,0.313 0.2,0.21 0.42,0.401 0.613,0.617 0.217,0.242 0.33,0.127 0.418,-0.1 0.154,-0.396 -0.326,-1.034 -0.828,-1.039 M -17.379,1.411 c 0,-1.691 -10e-4,-3.382 0,-5.072 0,-2.353 0.001,-4.705 -0.003,-7.056 0,-0.123 0.072,-0.306 -0.077,-0.357 -0.158,-0.054 -0.245,0.123 -0.334,0.229 -0.29,0.346 -0.334,0.759 -0.333,1.192 0.003,7.464 0.002,14.928 0.002,22.392 0,0.396 0.003,0.793 0.002,1.189 0,0.222 0.099,0.269 0.305,0.207 0.325,-0.096 0.447,-0.283 0.446,-0.635 -0.012,-4.03 -0.008,-8.06 -0.008,-12.089 m 34.818,-17.023 c -0.038,-0.049 -0.077,-0.116 -0.129,-0.171 -0.193,-0.199 -0.408,-0.379 -0.58,-0.595 -0.242,-0.3 -0.411,-0.277 -0.683,-0.003 -4.576,4.594 -9.163,9.175 -13.747,13.76 -0.778,0.777 -0.765,0.764 0.031,1.554 0.265,0.263 0.408,0.242 0.659,-0.011 2.035,-2.054 4.084,-4.095 6.129,-6.14 2.689,-2.69 5.378,-5.378 8.067,-8.067 0.09,-0.092 0.208,-0.166 0.253,-0.327 M 5.969,-8.856 C 5.798,-8.864 5.721,-8.87 5.644,-8.87 c -6.896,-0.001 -13.792,-0.001 -20.688,0 -0.531,0 -0.536,0.003 -0.536,0.526 -0.002,6.288 -0.002,12.576 -0.003,18.864 0,1.334 10e-4,2.668 -0.007,4.003 -0.004,0.737 -0.259,1.012 -0.989,1.115 -0.327,0.046 -0.648,0.113 -0.915,0.338 -0.602,0.505 -0.789,1.146 -0.536,1.884 0.233,0.68 0.76,1.045 1.555,1.046 4.346,0.004 8.693,0.001 13.038,0.001 5.43,0 10.86,-0.001 16.29,-0.001 1.743,0 3.487,0.004 5.231,0.002 0.677,-0.002 0.852,-0.178 0.861,-0.837 0.003,-0.158 -0.001,-0.316 -0.001,-0.476 0,-2.799 0.001,-5.6 0,-8.401 -10e-4,-5.746 -0.002,-11.493 -0.006,-17.239 0,-0.63 -0.191,-0.821 -0.834,-0.823 -1.427,-0.008 -2.854,0.003 -4.281,-0.013 -0.358,-0.004 -0.617,0.111 -0.87,0.365 C 9.821,-5.37 6.681,-2.234 3.54,0.904 3.392,1.052 3.245,1.222 3.063,1.315 1.473,2.123 -0.124,2.917 -1.722,3.709 -2.058,3.876 -2.389,3.845 -2.687,3.603 -3.042,3.314 -3.119,2.896 -2.885,2.424 c 0.715,-1.445 1.443,-2.882 2.156,-4.328 0.154,-0.312 0.345,-0.586 0.593,-0.833 1.928,-1.92 3.851,-3.845 5.775,-5.77 0.091,-0.093 0.178,-0.19 0.33,-0.349 m -25.855,26.752 v -28.305 c 0.05,-0.15 0.09,-0.304 0.151,-0.45 0.528,-1.26 1.448,-2.061 2.798,-2.322 0.869,-0.168 1.349,0.25 1.351,1.13 10e-4,0.29 0.017,0.582 -0.005,0.871 -0.026,0.368 0.096,0.513 0.491,0.512 7.476,-0.011 14.952,-0.012 22.428,-0.003 0.349,10e-4 0.591,-0.107 0.832,-0.349 2.59,-2.603 5.197,-5.188 7.778,-7.801 0.569,-0.576 1.179,-1.007 1.996,-1.102 h 0.475 c 0.09,0.018 0.18,0.039 0.27,0.056 1.022,0.191 1.703,0.767 1.931,1.794 0.22,0.99 0.03,1.884 -0.714,2.624 -1.469,1.464 -2.934,2.932 -4.398,4.402 -0.096,0.096 -0.242,0.163 -0.258,0.373 0.958,0 1.906,-0.001 2.854,0 1.419,0.002 2.643,1.208 2.643,2.616 0.002,8.719 0.002,17.438 0,26.156 0,1.406 -1.194,2.602 -2.599,2.602 -11.533,0.002 -23.065,0.001 -34.598,0 -0.211,0 -0.421,0.001 -0.629,-0.056 -1.447,-0.393 -2.376,-1.311 -2.797,-2.748" style="fill:#fff;fill-rule:nonzero" id="path1196"/>
                         </g>
                    </g>
                    <g id="g1202" transform="matrix(11.792801,0,0,11.792801,4557.1839,1307.9196)">
                         <path id="path1200" style="fill:#fff;fill-rule:nonzero" d="m 0,15.223 c -0.004,-0.571 -0.206,-0.781 -0.747,-0.777 -0.593,0.003 -0.795,0.215 -0.79,0.823 0.005,0.522 0.226,0.717 0.813,0.713 C -0.206,15.979 0.004,15.759 0,15.223 M -0.73,6.83 C -1.286,6.823 -1.527,7.041 -1.539,7.561 -1.553,8.137 -1.337,8.369 -0.78,8.375 -0.227,8.382 0.001,8.165 0.005,7.629 0.009,7.068 -0.203,6.838 -0.73,6.83 M 0.005,0.007 c 0.004,-0.553 -0.215,-0.782 -0.749,-0.788 -0.562,-0.006 -0.787,0.203 -0.796,0.737 -0.008,0.575 0.213,0.807 0.769,0.808 0.554,0.001 0.773,-0.212 0.776,-0.757 m -11.397,6.695 c 1.388,0 2.776,-0.012 4.163,0.007 0.39,0.006 0.502,-0.131 0.494,-0.507 -0.023,-0.884 -0.007,-1.77 -0.006,-2.656 0.002,-1.947 1.226,-3.65 3.084,-4.254 0.311,-0.1 0.506,-0.265 0.681,-0.54 0.584,-0.906 1.395,-1.468 2.518,-1.309 1.06,0.149 1.763,0.816 2.138,1.794 C 2.085,0.291 1.57,1.522 0.498,2.195 -0.491,2.815 -1.665,2.66 -2.541,1.79 -2.653,1.68 -2.757,1.557 -2.851,1.43 -3.205,0.949 -3.265,0.929 -3.795,1.228 -4.546,1.65 -4.889,2.345 -4.927,3.159 c -0.051,1.054 -0.01,2.114 -0.017,3.17 -0.002,0.272 0.109,0.394 0.38,0.373 0.051,-0.003 0.106,-0.007 0.158,-0.001 0.724,0.086 1.272,-0.039 1.762,-0.734 C -1.975,5.017 -0.88,4.811 0.117,5.201 1.122,5.592 1.835,6.626 1.794,7.705 1.752,8.797 1.13,9.534 0.185,9.969 -0.777,10.413 -1.673,10.177 -2.453,9.486 -2.581,9.372 -2.731,9.254 -2.796,9.105 -3.046,8.523 -3.509,8.469 -4.061,8.494 -5.048,8.54 -4.931,8.396 -4.939,9.367 c -0.009,0.872 -0.023,1.745 0.008,2.616 0.036,0.975 0.478,1.711 1.395,2.127 0.255,0.116 0.409,0.099 0.581,-0.167 0.796,-1.232 2.095,-1.626 3.285,-1.031 1.091,0.545 1.71,1.835 1.397,2.91 -0.367,1.251 -1.581,2.117 -2.821,1.946 -0.88,-0.121 -1.516,-0.655 -1.948,-1.417 -0.122,-0.215 -0.269,-0.334 -0.501,-0.399 -1.812,-0.512 -3.282,-2.34 -3.204,-4.328 0.035,-0.883 -0.007,-1.77 0.009,-2.655 0.007,-0.335 -0.09,-0.474 -0.447,-0.472 -2.179,0.011 -4.36,0.012 -6.54,-10e-4 -0.379,-0.002 -0.506,0.132 -0.51,0.507 -0.008,0.896 -0.288,1.165 -1.162,1.166 -3.264,0.004 -6.528,0.004 -9.791,0.004 -0.659,0 -0.979,-0.317 -0.98,-0.965 -0.002,-1.056 -0.005,-2.114 10e-4,-3.171 0.003,-0.697 0.296,-0.999 0.98,-1 2.352,-0.003 4.705,0.008 7.056,-0.01 0.413,-0.003 0.54,0.145 0.51,0.529 -0.023,0.289 -0.018,0.582 -0.005,0.872 0.013,0.293 -0.125,0.4 -0.403,0.399 -0.806,-0.003 -1.613,0.004 -2.418,0.004 -1.15,0 -2.299,0.008 -3.449,-0.008 -0.359,-0.006 -0.52,0.116 -0.482,0.481 0.014,0.131 0.006,0.264 0.007,0.396 0.003,0.685 0.003,0.679 0.669,0.678 2.351,-0.002 4.704,-10e-4 7.056,0 0.626,10e-4 0.626,0.003 0.625,-0.603 0,-1.075 0,-1.074 1.062,-1.073 z"/>
                    </g>
               </g>
               <g transform="matrix(-0.36793571,-11.787093,-11.787093,0.36793571,4239.142,1247.9654)" id="g1206">
                    <path d="m -0.869,-0.835 c -0.986,0.049 -0.92,-0.126 -0.891,0.93 0.025,0.922 -0.071,0.889 0.891,0.865 1.082,-0.028 0.928,0.01 0.896,-0.967 -0.033,-0.985 0.082,-0.849 -0.896,-0.828" style="fill:#fff;fill-rule:nonzero" id="path1204"/>
               </g>
               <g transform="matrix(11.792801,0,0,11.792801,4289.4754,1257.7863)" id="g1210">
                    <path d="M 0,0.033 C -0.01,0.995 0.127,0.932 -0.883,0.929 -1.914,0.927 -1.794,1.018 -1.797,0.023 -1.801,-0.985 -1.904,-0.855 -0.915,-0.862 h 0.039 C 0.123,-0.848 -0.014,-0.979 0,0.033" style="fill:#fff;fill-rule:nonzero" id="path1208"/>
               </g>
          </g>
          <g id="g1214" transform="matrix(-0.00657713,-11.792801,-11.792801,0.00657713,4238.9753,1288.1405)">
               <path id="path1212" style="fill:#fff;fill-rule:nonzero" d="m -0.81,-0.876 c -1.029,0.017 -0.886,-0.136 -0.885,0.908 0,0.932 -0.167,0.878 0.885,0.885 0.988,0.007 0.908,0.061 0.903,-0.921 -0.006,-1.041 0.039,-0.853 -0.903,-0.872"/>
          </g>
     </g>
</svg>
