<?xml version="1.0" encoding="UTF-8" standalone="no"?>
<svg xmlns:dc="http://purl.org/dc/elements/1.1/" xmlns:cc="http://creativecommons.org/ns#" xmlns:rdf="http://www.w3.org/1999/02/22-rdf-syntax-ns#" xmlns:svg="http://www.w3.org/2000/svg" xmlns="http://www.w3.org/2000/svg" xmlns:sodipodi="http://sodipodi.sourceforge.net/DTD/sodipodi-0.dtd" xmlns:inkscape="http://www.inkscape.org/namespaces/inkscape" inkscape:version="1.0 (4035a4fb49, 2020-05-01)" sodipodi:docname="3.svg" id="svg1218" style="clip-rule:evenodd;fill-rule:evenodd;stroke-linejoin:round;stroke-miterlimit:2" xml:space="preserve" version="1.1" viewBox="0 0 481.47968 491.039" height="491.039" width="481.47968">
   <metadata id="metadata1224">
      <rdf:RDF>
         <cc:Work rdf:about="">
            <dc:format>
               image/svg+xml
            </dc:format>
            <dc:type rdf:resource="http://purl.org/dc/dcmitype/StillImage"/>
            <dc:title/>
         </cc:Work>
      </rdf:RDF>
   </metadata>
   <defs id="defs1222"/>
   <sodipodi:namedview inkscape:current-layer="svg1218" inkscape:window-maximized="1" inkscape:window-y="-8" inkscape:window-x="-8" inkscape:cy="-82.058426" inkscape:cx="1396.1631" inkscape:zoom="0.38006989" showgrid="false" id="namedview1220" inkscape:window-height="1017" inkscape:window-width="1920" inkscape:pageshadow="2" inkscape:pageopacity="0" guidetolerance="10" gridtolerance="10" objecttolerance="10" borderopacity="1" bordercolor="#666666" pagecolor="#ffffff"/>
   <g transform="translate(-100.12874,-1582.0807)" id="g1596">
      <g id="g1150" transform="matrix(11.923468,0,0,11.923468,302.22483,1881.8223)">
         <path id="path1148" style="fill:#fff;fill-rule:nonzero" d="m 0,-9.629 v -0.003 c -0.833,0 -1.665,-0.006 -2.498,0.002 -0.463,0.004 -0.746,0.257 -0.738,0.632 0.007,0.351 0.278,0.571 0.743,0.582 0.451,0.01 0.903,0.006 1.354,0.006 1.171,0 2.343,0.007 3.514,-0.006 0.451,-0.006 0.798,-0.332 0.774,-0.677 -0.022,-0.334 -0.312,-0.535 -0.779,-0.536 -0.79,-0.002 -1.58,0 -2.37,0 m -0.09,-2.764 c 0.82,0 1.641,0.002 2.46,-10e-4 0.49,-0.003 0.781,-0.224 0.781,-0.584 0.001,-0.365 -0.295,-0.63 -0.758,-0.631 -1.641,-0.008 -3.282,-0.007 -4.921,10e-4 -0.432,0.003 -0.713,0.274 -0.71,0.628 0.003,0.366 0.262,0.581 0.73,0.585 0.806,0.006 1.612,10e-4 2.418,0.002 m 3.763,-3.301 c 1.825,0 3.649,0.002 5.474,-10e-4 1.263,-0.003 2.003,-0.736 2.016,-1.994 0.007,-0.693 0.01,-1.386 -0.002,-2.079 -0.005,-0.324 0.113,-0.453 0.448,-0.444 0.736,0.019 1.472,-0.002 2.207,0.009 0.777,0.011 1.355,0.595 1.36,1.381 0.009,1.329 -0.007,2.659 0.009,3.988 0.003,0.362 -0.142,0.466 -0.48,0.457 -0.536,-0.014 -1.082,-0.047 -1.609,0.027 -0.89,0.124 -1.534,0.637 -1.877,1.473 -0.127,0.309 -0.251,0.35 -0.564,0.241 -1.023,-0.352 -1.95,-0.168 -2.731,0.611 -0.421,0.418 -0.845,0.835 -1.26,1.261 -0.797,0.818 -1.041,1.762 -0.596,2.836 0.115,0.277 0.061,0.39 -0.211,0.502 -1.045,0.43 -1.536,1.237 -1.539,2.356 -0.002,0.65 0.002,1.301 -10e-4,1.952 -0.004,1.109 0.519,1.887 1.516,2.337 0.28,0.126 0.354,0.222 0.228,0.526 -0.436,1.049 -0.242,1.99 0.568,2.796 0.4,0.399 0.805,0.796 1.199,1.201 0.82,0.842 1.785,1.042 2.871,0.628 0.271,-0.103 0.38,-0.077 0.502,0.202 0.425,0.974 1.155,1.505 2.255,1.463 0.409,-0.016 0.82,0.013 1.23,-0.005 0.355,-0.016 0.511,0.096 0.502,0.482 -0.024,0.876 -0.005,1.754 -0.01,2.63 -0.006,0.948 -0.557,1.502 -1.51,1.505 -2.164,0.007 -4.328,0.004 -6.492,0.005 -0.919,0 -1.839,-0.014 -2.758,0.004 C 4.049,10.664 3.929,10.536 3.922,10.167 3.903,9.137 4.011,8.103 3.849,7.076 3.494,4.828 1.403,2.941 -0.867,2.838 -1.403,2.813 -1.943,2.8 -2.479,2.826 -2.995,2.85 -3.091,2.442 -3.27,2.125 -3.43,1.842 -3.141,1.728 -3.003,1.574 c 1.544,-1.731 1.955,-3.722 1.161,-5.874 -0.771,-2.092 -2.346,-3.3 -4.567,-3.638 -0.364,-0.055 -0.723,-0.104 -1.093,-0.019 -0.338,0.076 -0.36,-0.164 -0.36,-0.412 0,-1.542 -0.004,-3.084 -0.004,-4.625 0,-1.854 0.02,-3.706 -0.003,-5.559 -0.013,-1.029 0.605,-1.74 1.67,-1.662 0.619,0.045 1.244,0.023 1.866,0 0.362,-0.014 0.511,0.104 0.499,0.481 -0.02,0.692 -0.011,1.385 -0.003,2.079 0.013,1.143 0.813,1.949 1.951,1.953 1.854,0.007 3.706,0.002 5.559,0.002 z"/>
      </g>
      <g id="g1154" transform="matrix(11.923468,0,0,11.923468,217.21184,2073.3017)">
         <path id="path1152" style="fill:#fff;fill-rule:nonzero" d="m 0,-11.991 c 1.924,0 3.848,0.002 5.771,0 2.3,-0.003 4.132,1.797 4.146,4.102 0.014,2.32 0.006,4.639 0.004,6.959 0,0.64 -0.304,0.903 -0.95,0.901 -1.61,-0.006 -3.219,0.015 -4.828,0.013 -1.398,-0.002 -2.795,-0.032 -4.193,-0.031 -2.018,0.003 -4.037,0.051 -6.055,0.023 -0.918,-0.014 -1.835,0.014 -2.753,-0.02 -0.732,-0.028 -0.952,-0.22 -0.956,-0.971 -0.008,-1.316 -0.005,-2.631 -0.005,-3.947 0,-0.948 0.006,-1.895 0.002,-2.842 -0.007,-2.407 1.774,-4.191 4.173,-4.184 1.881,0.005 3.763,10e-4 5.644,10e-4 z"/>
      </g>
      <g id="g1158" transform="matrix(11.923468,0,0,11.923468,474.63788,1877.0348)">
         <path id="path1156" style="fill:#fff;fill-rule:nonzero" d="m 0,-7.548 c -2.214,0.028 -3.814,1.706 -3.784,3.968 0.028,2.048 1.775,3.696 3.885,3.665 C 2.224,0.053 3.925,-1.681 3.89,-3.777 3.855,-5.898 2.126,-7.574 0,-7.548 M 7.59,-8.61 c -0.028,0.616 -0.311,0.941 -0.634,1.251 -0.438,0.423 -0.454,0.758 -0.104,1.248 0.113,0.16 0.267,0.15 0.417,0.136 1.262,-0.114 1.8,0.309 1.688,1.742 -0.038,0.493 0,0.99 -0.008,1.485 -0.011,0.825 -0.506,1.318 -1.321,1.331 -0.057,0.001 -0.113,0 -0.17,0.001 -0.627,0.005 -0.903,0.244 -1.001,0.846 -0.026,0.161 0.084,0.228 0.167,0.317 C 7.74,0.946 7.732,1.359 6.567,2.525 6.267,2.825 5.972,3.13 5.665,3.423 5.135,3.931 4.463,3.939 3.916,3.453 3.821,3.369 3.72,3.284 3.649,3.181 3.374,2.777 3.052,2.757 2.639,2.98 2.424,3.097 2.304,3.212 2.319,3.461 2.33,3.63 2.323,3.801 2.305,3.969 2.22,4.708 1.764,5.156 1.019,5.184 0.327,5.211 -0.367,5.211 -1.06,5.187 -1.752,5.163 -2.239,4.659 -2.293,3.968 -2.301,3.854 -2.297,3.741 -2.298,3.628 -2.3,3.057 -2.565,2.762 -3.127,2.689 -3.243,2.675 -3.315,2.728 -3.387,2.798 -3.509,2.915 -3.628,3.036 -3.748,3.155 -4.443,3.849 -5.07,3.863 -5.769,3.187 -6.185,2.783 -6.594,2.373 -6.995,1.954 -7.6,1.323 -7.592,0.677 -6.983,0.055 c 0.058,-0.061 0.119,-0.121 0.179,-0.181 0.416,-0.416 0.436,-0.779 0.083,-1.239 -0.117,-0.153 -0.274,-0.144 -0.423,-0.128 -1.317,0.134 -1.893,-0.403 -1.787,-1.822 0.036,-0.478 0.002,-0.962 0.008,-1.442 0.01,-0.802 0.494,-1.281 1.303,-1.296 0.071,-0.001 0.141,0 0.212,-0.001 0.583,-0.002 0.88,-0.265 0.965,-0.848 0.01,-0.077 10e-4,-0.139 -0.049,-0.195 -0.046,-0.054 -0.097,-0.102 -0.147,-0.153 -1.091,-1.119 -1.09,-1.52 0.012,-2.621 0.31,-0.311 0.617,-0.623 0.931,-0.93 0.547,-0.534 1.2,-0.555 1.782,-0.058 0.106,0.092 0.2,0.2 0.3,0.3 0.41,0.414 0.643,0.432 1.14,0.103 0.123,-0.081 0.167,-0.183 0.169,-0.318 0.002,-0.141 0.006,-0.283 0.007,-0.424 0.006,-1.002 0.418,-1.459 1.413,-1.517 0.663,-0.038 1.329,-0.044 1.991,0.021 0.722,0.071 1.15,0.522 1.205,1.24 0.007,0.098 -0.008,0.2 0.007,0.297 0.04,0.243 -0.13,0.551 0.23,0.697 0.39,0.157 0.775,0.4 1.14,-0.042 0.018,-0.022 0.045,-0.033 0.068,-0.051 1.093,-0.84 1.449,-0.815 2.408,0.161 0.347,0.353 0.699,0.7 1.048,1.052 0.239,0.24 0.376,0.525 0.378,0.73"/>
      </g>
      <g id="g1162" transform="matrix(11.923468,0,0,11.923468,346.37819,1582.0429)">
         <path id="path1160" style="fill:#fff;fill-rule:nonzero" d="m 0,8.302 c -1.823,0 -3.647,0.002 -5.471,-10e-4 C -6.124,8.3 -6.396,8.031 -6.399,7.373 -6.404,6.411 -6.403,5.45 -6.399,4.489 -6.396,3.592 -5.863,3.036 -4.961,3.001 -4.509,2.984 -4.055,2.975 -3.604,3.002 -3.203,3.027 -3.029,2.897 -3.067,2.479 -3.103,2.098 -3.065,1.718 -2.936,1.351 -2.65,0.54 -1.924,0.012 -1.068,0.008 -0.377,0.005 0.315,-0.003 1.006,0.012 2.115,0.037 2.944,0.869 2.984,1.981 2.99,2.136 2.988,2.291 2.99,2.447 c 0.006,0.547 0.006,0.547 0.573,0.549 0.425,0 0.849,-0.006 1.273,0.002 0.913,0.02 1.497,0.574 1.517,1.48 0.022,1.003 0.015,2.008 0.001,3.011 -0.007,0.586 -0.26,0.814 -0.84,0.815 -1.838,10e-4 -3.676,0 -5.514,0 z"/>
      </g>
      <g id="g1166" transform="matrix(-11.92126,-0.22899727,-0.22899727,11.92126,216.00142,1908.289)">
         <path id="path1164" style="fill:#fff;fill-rule:nonzero" d="m 0.045,-8.852 c -2.492,-0.032 -4.541,1.931 -4.532,4.396 0.01,2.815 2.339,4.543 4.532,4.508 C 2.407,0.016 4.457,-1.963 4.449,-4.416 4.442,-7.193 2.1,-8.939 0.045,-8.852"/>
      </g>
   </g>
</svg>
