<?xml version="1.0" encoding="UTF-8"?>
<svg width="368px" height="654px" viewBox="0 0 368 654" version="1.1" xmlns="http://www.w3.org/2000/svg" xmlns:xlink="http://www.w3.org/1999/xlink">
    <title>Group 16</title>
    <g id="Page-1" stroke="none" stroke-width="1" fill="none" fill-rule="evenodd">
        <g id="Group-16">
            <path d="M251.149875,556.693726 C212.683041,534.435425 150.316959,534.435425 111.850125,556.693726 C73.3832915,578.952028 73.3832915,615.044519 111.850125,637.306274 C150.316959,659.564575 212.683041,659.564575 251.149875,637.306274 C289.616708,615.044519 289.616708,578.952028 251.149875,556.693726" id="Fill-1" fill="#D4E7F9"></path>
            <path d="M235,568.998274 C235,597.166909 212.166909,620 183.998274,620 C155.833091,620 133,597.166909 133,568.998274 C133,540.833091 155.833091,518 183.998274,518 C212.166909,518 235,540.833091 235,568.998274" id="Fill-2" fill="#385FC6"></path>
            <path d="M267,543 C235.496124,564.750853 236.74165,569.102389 233.212084,582 L134.784466,581.996587 C131.2549,569.102389 132.500426,564.74744 101,543 L267,543 Z" id="Fill-3" fill="#385FC6"></path>
            <path d="M329,423.869292 C329,504.043306 264.08405,569 184.001725,569 C103.91595,569 39,504.043306 39,423.869292 C39,418.953351 39.2380527,414.116812 39.7072582,409.321699 C40.6525691,400.159546 42.3810391,391.232143 44.9340685,382.660318 C62.6948737,353.958338 118.219815,333 184.001725,333 C249.780185,333 305.305126,353.958338 323.065931,382.660318 C325.618961,391.232143 327.347431,400.159546 328.292742,409.321699 C328.761947,414.116812 329,418.953351 329,423.869292" id="Fill-4" fill="#82BAEE"></path>
            <path d="M329,402.501211 C329,404.863844 328.761947,407.188427 328.292742,409.474958 C320.985557,444.58238 259.171193,472 184.001725,472 C108.828807,472 47.0178926,444.58238 39.7072582,409.474958 C39.2380527,407.188427 39,404.863844 39,402.501211 C39,395.645076 41.0838241,389.024167 44.9340685,382.759556 C62.6948737,354.000804 118.219815,333 184.001725,333 C249.780185,333 305.305126,354.000804 323.065931,382.759556 C326.916176,389.024167 329,395.645076 329,402.501211" id="Fill-5" fill="#D8ECFD"></path>
            <path d="M329,402.499308 C329,440.882094 264.081423,472 184.001725,472 C103.918577,472 39,440.882094 39,402.499308 C39,364.113062 103.918577,333 184.001725,333 C264.081423,333 329,364.113062 329,402.499308" id="Fill-6" fill="#B5D8FF"></path>
            <path d="M368,183.998103 C368,285.618827 285.621772,368 184,368 C82.3782284,368 0,285.618827 0,183.998103 C0,82.3773792 82.3782284,0 184,0 C285.621772,0 368,82.3773792 368,183.998103" id="Fill-7" fill="#D8ECFD"></path>
            <path d="M314,384.499481 C314,419.018047 255.573394,447 183.5,447 C111.426606,447 53,419.018047 53,384.499481 C53,349.981953 111.426606,322 183.5,322 C255.573394,322 314,349.981953 314,384.499481" id="Fill-8" fill="#D8ECFD"></path>
            <path d="M337,287 C304.827103,334.600519 306.011784,341.914703 312.833198,382 L55.1668021,382 C61.9882162,341.914703 63.1728972,334.600519 31,287 L337,287 Z" id="Fill-9" fill="#D8ECFD"></path>
            <path d="M269,376.002247 C269,398.644707 230.721253,417 183.5,417 C136.278747,417 98,398.644707 98,376.002247 C98,353.358751 136.278747,335 183.5,335 C230.721253,335 269,353.358751 269,376.002247" id="Fill-10" fill="#82BAEE"></path>
            <path d="M243.033018,195 L243.033018,187.098052 C255.743035,187.098052 266.08274,177.198069 266.08274,165.032954 C266.08274,152.829681 255.743035,142.901948 243.033018,142.901948 C230.288245,142.901948 219.91726,152.829681 219.91726,165.032954 L212,165.032954 C212,148.472857 225.922978,135 243.033018,135 C260.108302,135 274,148.472857 274,165.032954 C274,181.558363 260.108302,195 243.033018,195" id="Fill-11" fill="#82BAEE"></path>
            <path d="M124.5,195 C107.682211,195 94,181.558363 94,165.032954 C94,148.472857 107.682211,135 124.5,135 C141.317789,135 155,148.472857 155,165.032954 L147.202132,165.032954 C147.202132,152.829681 137.01835,142.901948 124.5,142.901948 C111.98165,142.901948 101.797868,152.829681 101.797868,165.032954 C101.797868,177.198069 111.98165,187.098052 124.5,187.098052 L124.5,195 Z" id="Fill-12" fill="#82BAEE"></path>
            <polygon id="Fill-13" fill="#82BAEE" points="125 195 243 195 243 187 125 187"></polygon>
            <polygon id="Fill-14" fill="#82BAEE" points="148 394 156 394 156 165 148 165"></polygon>
            <polygon id="Fill-15" fill="#82BAEE" points="212 394 220 394 220 165 212 165"></polygon>
        </g>
    </g>
</svg>