<?xml version="1.0" encoding="UTF-8"?>
<svg width="108px" height="244px" viewBox="0 0 108 244" version="1.1" xmlns="http://www.w3.org/2000/svg" xmlns:xlink="http://www.w3.org/1999/xlink">
    <title>Group 2</title>
    <g id="Page-1" stroke="none" stroke-width="1" fill="none" fill-rule="evenodd">
        <g id="Group-2">
            <path d="M8.96389892,118.67636 L8.96389892,118.67636 L7.24187726,119 C5.1732852,119 3.44765343,118.349313 2.41516245,117.047938 C0.346570397,115.419516 0,112.493126 0,111.845845 L0.346570397,76.6746563 C0.346570397,76.0239689 1.37906137,68.2054995 10,63 L8.96389892,118.67636" id="Fill-34" fill="#6B6C67"></path>
            <path d="M82.0074372,56 L82.0074372,56 C90.3403983,56.9767837 106.336894,60.5765391 108,77.2228462 L108,129.777909 C108,134.029992 104.335589,137.291629 99.6774987,137.291629 C95.3366884,137.291629 91.6757641,134.029992 91.6757641,129.777909 L91.6757641,72.3286816 L87.6801266,72.3286816 L87.6801266,134.678904 C88.0113531,166.99815 88.0113531,199.317396 89.6779453,231.636641 C90.3403983,248.282948 61.3528508,247.958492 60.6869112,231.636641 C59.355032,202.251162 59.0063726,173.200385 59.0063726,143.821736 C57.67798,143.821736 56.3461009,143.821736 54.6795087,143.821736 C54.6795087,173.200385 54.3482822,202.251162 53.016403,231.636641 C52.0157504,247.958492 23.3454829,248.282948 24.0114225,231.636641 C25.6884745,199.317396 25.6884745,166.99815 25.6884745,134.678904 L25.6884745,119.661708 L56.0113878,119.661708 C61.6736175,119.661708 66.6803673,115.088584 66.6803673,109.545507 C66.6803673,104.316641 61.6736175,100.074804 56.0113878,100.074804 L48.3548261,100.074804 L35.3568014,56 L82.0074372,56" id="Fill-35" fill="#6B6C67"></path>
            <path d="M14,119 L14,119 L15.026482,59.3911356 C17.4239993,58.3741493 22.9117298,57.0240733 30.8041559,56 L33.89078,56 L47.9564542,104.099556 C50.7092922,109.857754 52.7658452,116.969571 51.7250069,118.663367 C51.3948099,119 51.3948099,119 51.0394892,119 L14,119" id="Fill-36" fill="#71C4E3"></path>
            <path d="M57.5018239,0 L57.5018239,0 C72.1444009,0 84,10.9608369 84,24.4983137 C84,38.0391631 72.1444009,49 57.5018239,49 C42.859247,49 31,38.0391631 31,24.4983137 C31,10.9608369 42.859247,0 57.5018239,0" id="Fill-37" fill="#6B6C67"></path>
            <path d="M52,105 L58.4802245,105 C62.5884154,105 66,108.418729 66,111.833886 C66,115.93136 62.5884154,119 58.4802245,119 L55.06864,119 C56.0939015,115.245471 53.7040061,108.761674 52,105" id="Fill-38" fill="#6B6C67"></path>
        </g>
    </g>
</svg>