<?xml version="1.0" encoding="UTF-8"?>
<svg width="74px" height="96px" viewBox="0 0 74 96" version="1.1" xmlns="http://www.w3.org/2000/svg" xmlns:xlink="http://www.w3.org/1999/xlink">
    <title>icon3</title>
    <g id="Page-1" stroke="none" stroke-width="1" fill="none" fill-rule="evenodd">
        <g id="icon3">
            <path d="M73.295,36.648 C73.295,56.888 56.887,73.296 36.647,73.296 C16.407,73.296 0,56.888 0,36.648 C0,16.408 16.407,0 36.647,0 C56.887,0 73.295,16.408 73.295,36.648" id="Fill-1" fill="#3FADCE"></path>
            <path d="M64.5499,36.648 C64.5499,52.058 52.0579,64.551 36.6469,64.551 C21.2369,64.551 8.7449,52.058 8.7449,36.648 C8.7449,21.238 21.2369,8.745 36.6469,8.745 C52.0579,8.745 64.5499,21.238 64.5499,36.648" id="Fill-2" fill="#FFFFFF"></path>
            <path d="M40.8399,81.5577 C40.8399,83.9317 38.9149,85.8557 36.5419,85.8557 C34.1679,85.8557 32.2429,83.9317 32.2429,81.5577 C32.2429,79.1837 34.1679,77.2597 36.5419,77.2597 C38.9149,77.2597 40.8399,79.1837 40.8399,81.5577" id="Fill-3" fill="#3FADCE"></path>
            <path d="M39.4122,92.691 C39.4122,94.277 38.1272,95.562 36.5412,95.562 C34.9552,95.562 33.6702,94.277 33.6702,92.691 C33.6702,91.105 34.9552,89.82 36.5412,89.82 C38.1272,89.82 39.4122,91.105 39.4122,92.691" id="Fill-4" fill="#3FADCE"></path>
            <path d="M36.5723,49.6959 C36.2553,49.6959 35.9973,49.4379 35.9973,49.1209 L35.9973,24.1749 C35.9973,23.8579 36.2553,23.5999 36.5723,23.5999 C36.8893,23.5999 37.1473,23.8579 37.1473,24.1749 L37.1473,49.1209 C37.1473,49.4379 36.8893,49.6959 36.5723,49.6959" id="Fill-5" fill="#3FADCE"></path>
            <path d="M32.1739,37.2232 L19.0579,37.2232 C18.7399,37.2232 18.4829,36.9652 18.4829,36.6482 C18.4829,36.3302 18.7399,36.0732 19.0579,36.0732 L32.1739,36.0732 C32.4909,36.0732 32.7489,36.3302 32.7489,36.6482 C32.7489,36.9652 32.4909,37.2232 32.1739,37.2232" id="Fill-6" fill="#3FADCE"></path>
            <path d="M28.0074,41.0968 C27.8534,41.0968 27.6994,41.0348 27.5864,40.9128 C27.3704,40.6798 27.3834,40.3168 27.6154,40.1008 L31.3294,36.6488 L27.6154,33.1958 C27.3834,32.9788 27.3704,32.6158 27.5864,32.3828 C27.8024,32.1508 28.1664,32.1378 28.3994,32.3538 L32.5654,36.2278 C32.6824,36.3358 32.7484,36.4888 32.7484,36.6488 C32.7484,36.8078 32.6814,36.9608 32.5654,37.0698 L28.3994,40.9428 C28.2884,41.0458 28.1474,41.0968 28.0074,41.0968" id="Fill-7" fill="#3FADCE"></path>
            <path d="M54.2364,37.2232 L41.1214,37.2232 C40.8034,37.2232 40.5464,36.9652 40.5464,36.6482 C40.5464,36.3302 40.8034,36.0732 41.1214,36.0732 L54.2364,36.0732 C54.5534,36.0732 54.8114,36.3302 54.8114,36.6482 C54.8114,36.9652 54.5534,37.2232 54.2364,37.2232" id="Fill-8" fill="#3FADCE"></path>
            <path d="M45.2872,41.0968 C45.1462,41.0968 45.0062,41.0458 44.8952,40.9428 L40.7292,37.0688 C40.6122,36.9598 40.5462,36.8068 40.5462,36.6478 C40.5462,36.4878 40.6122,36.3348 40.7292,36.2268 L44.8952,32.3538 C45.1272,32.1378 45.4912,32.1508 45.7082,32.3828 C45.9252,32.6158 45.9112,32.9798 45.6792,33.1958 L41.9662,36.6478 L45.6792,40.1008 C45.9112,40.3168 45.9252,40.6808 45.7082,40.9128 C45.5952,41.0348 45.4412,41.0968 45.2872,41.0968" id="Fill-9" fill="#3FADCE"></path>
        </g>
    </g>
</svg>