<?xml version="1.0" encoding="UTF-8"?>
<svg width="48px" height="48px" viewBox="0 0 48 48" version="1.1" xmlns="http://www.w3.org/2000/svg" xmlns:xlink="http://www.w3.org/1999/xlink">
    <!-- Generator: Sketch 53.2 (72643) - https://sketchapp.com -->
    <title>head</title>
    <desc>Created with Sketch.</desc>
    <g id="Page-1" stroke="none" stroke-width="1" fill="none" fill-rule="evenodd">
        <g id="About" transform="translate(-732.000000, -2172.000000)" fill="#FFFFFF" fill-rule="nonzero">
            <g id="Group-5-Copy" transform="translate(732.000000, 2133.000000)">
                <g id="head" transform="translate(0.000000, 39.000000)">
                    <path d="M13.8517034,33.9959759 L21.5470942,33.9959759 L21.5470942,35.5412475 L13.8517034,35.5412475 L13.8517034,33.9959759 Z M18.5234218,18.5432596 L20.0625,18.5432596 L20.0625,20.0885312 L18.5234218,20.0885312 L18.5234218,18.5432596 Z M9.23446894,17.7706237 C10.5071393,17.7706237 11.5430862,18.8107394 11.5430862,20.0885312 C11.5430862,21.366323 10.5071393,22.4064386 9.23446894,22.4064386 C7.96179857,22.4064386 6.9258517,21.366323 6.9258517,20.0885312 C6.9258517,18.8107394 7.96179857,17.7706237 9.23446894,17.7706237 Z M9.23446894,20.861167 C9.65906809,20.861167 10.004008,20.5152163 10.004008,20.0885312 C10.004008,19.6622234 9.65906809,19.3158954 9.23446894,19.3158954 C8.80986979,19.3158954 8.46492986,19.6622234 8.46492986,20.0885312 C8.46492986,20.5152163 8.80986979,20.861167 9.23446894,20.861167 Z M19.238477,12.362173 C21.0822896,12.362173 22.8182615,13.060488 24.1273798,14.3292254 L23.0568637,15.4402666 C22.0382014,14.4522133 20.6813627,13.9074447 19.238477,13.9074447 C17.7955912,13.9074447 16.4387525,14.4522133 15.4200902,15.4410211 L14.3495741,14.3299799 C15.6586924,13.060488 17.3946643,12.362173 19.238477,12.362173 Z M16.561999,16.4102112 C17.2823146,15.7926308 18.2325902,15.4527163 19.238477,15.4527163 C20.2443637,15.4527163 21.1946393,15.7926308 21.9142034,16.4102112 L20.9147044,17.5853873 C20.0309368,16.827842 18.4452655,16.827842 17.561498,17.5853873 L16.561999,16.4102112 Z M45.4028056,11.5895372 C45.4028056,13.5211268 44.5077655,15.4444165 43.0941884,16.6086519 L43.0941884,16.9979879 L44.6332665,16.9979879 L44.6332665,18.5432596 L43.0941884,18.5432596 L43.0941884,21.6338028 L40.0160321,21.6338028 L40.0160321,26.2696177 L38.4769539,26.2696177 L38.4769539,21.6338028 L35.3987976,21.6338028 L35.3987976,18.5432596 L33.8597194,18.5432596 L33.8597194,16.9979879 L35.3987976,16.9979879 L35.3987976,16.6086519 C33.9852205,15.4444165 33.0901804,13.5211268 33.0901804,11.5895372 C33.0901804,8.18133808 35.851954,5.4084507 39.246493,5.4084507 C42.641032,5.4084507 45.4028056,8.18133808 45.4028056,11.5895372 Z M41.5551102,20.0885312 L41.5551102,18.5432596 L36.9378758,18.5432596 L36.9378758,20.0885312 L41.5551102,20.0885312 Z M38.4769539,11.5895372 C38.4769539,12.0162224 38.8218938,12.362173 39.246493,12.362173 C39.6710921,12.362173 40.0160321,12.0162224 40.0160321,11.5895372 C40.0160321,11.1632294 39.6710921,10.8169014 39.246493,10.8169014 C38.8218938,10.8169014 38.4769539,11.1632294 38.4769539,11.5895372 Z M40.0160321,16.9979879 L41.5551102,16.9979879 L41.5551102,15.8228118 L41.8846443,15.5926811 C43.0866733,14.7479879 43.8637275,13.1774396 43.8637275,11.5895372 C43.8637275,9.03282196 41.7929609,6.95372233 39.246493,6.95372233 C36.7000251,6.95372233 34.6292585,9.03282196 34.6292585,11.5895372 C34.6292585,13.1774396 35.4063126,14.7479879 36.6083417,15.5926811 L36.9378758,15.8228118 L36.9378758,16.9979879 L38.4769539,16.9979879 L38.4769539,13.7652163 C37.5834169,13.4452968 36.9378758,12.5956992 36.9378758,11.5895372 C36.9378758,10.3117454 37.9738226,9.27162978 39.246493,9.27162978 C40.5191634,9.27162978 41.5551102,10.3117454 41.5551102,11.5895372 C41.5551102,12.5956992 40.9095691,13.4452968 40.0160321,13.7652163 L40.0160321,16.9979879 Z M38.4769539,-2.28705943e-14 L40.0160321,-2.28705943e-14 L40.0160321,3.86317907 L38.4769539,3.86317907 L38.4769539,-2.28705943e-14 Z M30.5395792,3.94089542 L31.6281312,2.84834009 L34.3481964,5.57935108 L33.26002,6.67228375 L30.5395792,3.94089542 Z M44.1436623,5.58010566 L46.8637275,2.84871733 L47.9519038,3.9416499 L45.2318387,6.67266099 L44.1436623,5.58010566 Z M38.4769539,42.4949698 L38.4769539,37.0865191 L40.0160321,37.0865191 L40.0160321,42.4949698 C40.0160321,45.4764839 37.5988227,47.9034205 34.6292585,47.9034205 L22.3166333,47.9034205 C19.3470691,47.9034205 16.9298597,45.4764839 16.9298597,42.4949698 L16.9298597,41.722334 L13.8517034,41.722334 L13.8517034,38.6317907 L9.23446894,38.6317907 C7.5368236,38.6317907 6.15631263,37.2457244 6.15631263,35.5412475 L6.15631263,28.819165 C2.57577658,27.5421277 -1.17239551e-13,24.1161972 -1.17239551e-13,20.0885312 C-1.17239551e-13,16.0608652 2.57577658,12.6349346 6.15631263,11.3578973 L6.15631263,3.09054326 C6.15631263,1.38606635 7.5368236,1.7408297e-13 9.23446894,1.7408297e-13 L26.1643287,1.7408297e-13 C27.861974,1.7408297e-13 29.242485,1.38606635 29.242485,3.09054326 L29.242485,35.5412475 C29.242485,37.2457244 27.861974,38.6317907 26.1643287,38.6317907 L21.5470942,38.6317907 L21.5470942,41.722334 L18.4689379,41.722334 L18.4689379,42.4949698 C18.4689379,44.625 20.1951402,46.3581489 22.3166333,46.3581489 L34.6292585,46.3581489 C36.7507516,46.3581489 38.4769539,44.625 38.4769539,42.4949698 Z M9.23446894,1.54527163 C8.38564627,1.54527163 7.69539078,2.2383048 7.69539078,3.09054326 L7.69539078,6.18108652 L27.7034068,6.18108652 L27.7034068,3.09054326 C27.7034068,2.2383048 27.0131513,1.54527163 26.1643287,1.54527163 L9.23446894,1.54527163 Z M1.53907816,20.0885312 C1.53907816,24.3489688 4.99110724,27.8148893 9.23446894,27.8148893 L16.9298597,27.8148893 L16.9298597,23.1790744 L14.6212425,23.1790744 C14.5250501,23.1790744 14.4341183,23.1620976 14.3401804,23.1504024 L14.5235471,23.5182344 L12.6496743,25.3996479 L11.6700901,24.9065644 C11.4232214,25.033325 11.1677104,25.1400906 10.9043086,25.2257294 L10.5582415,26.2696177 L7.90994491,26.2696177 L7.56387771,25.2249749 C7.30047593,25.139336 7.04496491,25.0325704 6.79809619,24.9058098 L5.818512,25.3988934 L3.94463923,23.5174799 L4.43574647,22.5339537 C4.30949396,22.2860915 4.20315626,22.0295523 4.11786075,21.7650905 L3.07815631,21.4176308 L3.07815631,18.7586771 L4.11786075,18.4112173 C4.20315626,18.1467555 4.30949396,17.8902163 4.43574647,17.6423541 L3.94463923,16.6580735 L5.81926355,14.7774144 L6.79884774,15.270498 C7.04571646,15.1437374 7.30122748,15.0369718 7.56462926,14.951333 L7.91069637,13.9074447 L10.558993,13.9074447 L10.9050602,14.951333 C11.1684619,15.0369718 11.423973,15.1437374 11.6708417,15.270498 L12.3126253,14.9475603 L12.3126253,13.0189889 C11.3420591,12.5915493 10.310997,12.362173 9.23446894,12.362173 C4.99110724,12.362173 1.53907816,15.8280936 1.53907816,20.0885312 Z M14.6212425,21.6338028 L23.8557114,21.6338028 C24.2803106,21.6338028 24.6252505,21.2878521 24.6252505,20.861167 L24.6252505,11.5895372 C24.6252505,11.1632294 24.2803106,10.8169014 23.8557114,10.8169014 L14.6212425,10.8169014 C14.1966433,10.8169014 13.8517034,11.1632294 13.8517034,11.5895372 L13.8517034,20.861167 C13.8517034,21.2878521 14.1966433,21.6338028 14.6212425,21.6338028 Z M12.6511773,23.2137827 L12.2825651,22.4743461 L12.5087675,22.1072686 C12.5410822,22.054829 12.5628757,21.9978621 12.5925601,21.9435362 C12.4197144,21.6190895 12.3126253,21.2542756 12.3126253,20.861167 L12.3126253,16.6750503 L11.6137275,17.0274145 L11.2492484,16.8018109 C10.8990481,16.5860161 10.5210421,16.4286972 10.1265031,16.3343813 L9.71017029,16.2347837 L9.44977453,15.4527163 L9.01991481,15.4527163 L8.76027049,16.2347837 L8.34393792,16.3343813 C7.94864725,16.4286972 7.57214429,16.5860161 7.22307117,16.8018109 L6.85821643,17.0274145 L6.12249504,16.6573189 L5.81776055,16.9625251 L6.18562129,17.6996982 L5.96092184,18.0656439 C5.74599198,18.4172535 5.58930363,18.7967807 5.49536571,19.1929074 L5.39616731,19.6109155 L4.61723447,19.8723592 L4.61723447,20.3039487 L5.39691886,20.5653924 L5.49611726,20.9834004 C5.59005509,21.3802817 5.74674354,21.7582998 5.9616733,22.1091549 L6.18637275,22.4751007 L5.81776055,23.2137827 L6.12174349,23.5189889 L6.85671343,23.1496478 L7.22119234,23.3752515 C7.57064128,23.5910463 7.94714434,23.7483652 8.34243482,23.8426811 L8.75876758,23.9422787 L9.01916335,24.7243461 L9.44902307,24.7243461 L9.70866738,23.9422787 L10.125,23.8426811 C10.5195391,23.7483652 10.897545,23.5910463 11.2477455,23.3752515 L11.6122244,23.1496478 L12.3464428,23.5197435 L12.6511773,23.2137827 Z M9.23446894,29.360161 C8.70879256,29.360161 8.19701906,29.3054578 7.69539078,29.2201962 L7.69539078,30.9054326 L27.7034068,30.9054326 L27.7034068,7.72635815 L7.69539078,7.72635815 L7.69539078,10.9568662 C8.19701906,10.8716046 8.70879256,10.8169014 9.23446894,10.8169014 C10.3087425,10.8169014 11.3461924,11.0017605 12.3355461,11.3578973 C12.4542835,10.189512 13.4278557,9.27162978 14.6212425,9.27162978 L23.8557114,9.27162978 C25.1283818,9.27162978 26.1643287,10.3117454 26.1643287,11.5895372 L26.1643287,20.861167 C26.1643287,22.1389588 25.1283818,23.1790744 23.8557114,23.1790744 L18.4689379,23.1790744 L18.4689379,29.360161 L9.23446894,29.360161 Z M7.69539078,35.5412475 C7.69539078,36.3934859 8.38564627,37.0865191 9.23446894,37.0865191 L26.1643287,37.0865191 C27.0131513,37.0865191 27.7034068,36.3934859 27.7034068,35.5412475 L27.7034068,32.4507042 L7.69539078,32.4507042 L7.69539078,35.5412475 Z M15.3907816,38.6317907 L15.3907816,40.1770624 L20.008016,40.1770624 L20.008016,38.6317907 L15.3907816,38.6317907 Z M38.4769539,27.8148893 L40.0160321,27.8148893 L40.0160321,29.360161 L38.4769539,29.360161 L38.4769539,27.8148893 Z M38.4769539,30.9054326 L40.0160321,30.9054326 L40.0160321,32.4507042 L38.4769539,32.4507042 L38.4769539,30.9054326 Z M38.4769539,33.9959759 L40.0160321,33.9959759 L40.0160321,35.5412475 L38.4769539,35.5412475 L38.4769539,33.9959759 Z" id="Combined-Shape"></path>
                </g>
            </g>
        </g>
    </g>
</svg>