<?xml version="1.0" encoding="UTF-8"?>
<svg width="48px" height="48px" viewBox="0 0 48 48" version="1.1" xmlns="http://www.w3.org/2000/svg" xmlns:xlink="http://www.w3.org/1999/xlink">
    <!-- Generator: Sketch 53.2 (72643) - https://sketchapp.com -->
    <title>idea</title>
    <desc>Created with Sketch.</desc>
    <g id="Page-1" stroke="none" stroke-width="1" fill="none" fill-rule="evenodd">
        <g id="About" transform="translate(-732.000000, -2374.000000)" fill="#FFFFFF" fill-rule="nonzero">
            <g id="Group-6-Copy" transform="translate(732.000000, 2335.000000)">
                <g id="idea" transform="translate(0.000000, 39.000000)">
                    <g id="blockchain">
                        <path d="M12.8192138,34.8028565 C12.7584229,34.8028565 12.6972656,34.7962646 12.6364746,34.7841797 C12.5764161,34.7717286 12.517456,34.7541504 12.4614258,34.7307129 C12.4050293,34.7072754 12.3504638,34.6779786 12.2991943,34.6442871 C12.2482911,34.6105958 12.1995849,34.5714112 12.1567383,34.5281982 C12.1135254,34.4849854 12.0739746,34.4370117 12.0402832,34.3857422 C12.0065918,34.3348388 11.9776612,34.2806396 11.9542237,34.2235107 C11.9307862,34.1671143 11.9128418,34.1081542 11.9007568,34.0480958 C11.8883057,33.9880371 11.8820801,33.9261474 11.8820801,33.8653565 C11.8820801,33.6188964 11.9820557,33.376831 12.1567383,33.2025146 C12.1999511,33.1593018 12.2482911,33.1201172 12.2991943,33.0853271 C12.3508301,33.0516357 12.4050293,33.0223388 12.4614258,32.9989013 C12.517456,32.9754638 12.5764161,32.9578857 12.6364746,32.9458008 C12.7576904,32.9212646 12.8822021,32.9212646 13.0030518,32.9458008 C13.0631104,32.9578857 13.1224365,32.9754638 13.1784668,32.9989013 C13.2348633,33.0223388 13.2890625,33.0516357 13.3406982,33.0853271 C13.3912354,33.1201172 13.4392089,33.1593018 13.4831543,33.2025146 C13.6574707,33.376831 13.7578125,33.6177979 13.7578125,33.8653565 C13.7578125,33.9261474 13.7512207,33.9880371 13.7391357,34.0480958 C13.7270508,34.1081543 13.7091065,34.1671143 13.685669,34.2235107 C13.6622315,34.2806396 13.6333008,34.3348388 13.5996094,34.3857422 C13.5648193,34.4370117 13.5263672,34.4849854 13.4831543,34.5281982 C13.4392089,34.5714112 13.3912354,34.6105958 13.3406982,34.6442871 C13.2890625,34.6779786 13.2348633,34.7072754 13.1784668,34.7307129 C13.1224365,34.7541504 13.0631104,34.7717286 13.003418,34.7841797 C12.9422607,34.7962646 12.8811036,34.8028565 12.8192138,34.8028565 Z" id="Path"></path>
                        <path d="M38.3961182,16.9837646 C38.3342286,16.9837646 38.2734375,16.9782714 38.2126464,16.9658203 C38.1525879,16.9537354 38.0943604,16.9357911 38.0372315,16.9123536 C37.9808349,16.8889161 37.9266357,16.8599854 37.8760987,16.826294 C37.8244629,16.7915039 37.7764893,16.7523193 37.7332763,16.7091065 C37.689331,16.6658935 37.6508789,16.6182862 37.6160888,16.5666504 C37.5823974,16.5161133 37.5534667,16.4615479 37.5300292,16.4051513 C37.5065917,16.3480224 37.4886474,16.2890625 37.4765625,16.2301026 C37.4644776,16.1689453 37.4586182,16.1074219 37.4586182,16.0462646 C37.4586182,15.9854737 37.4644776,15.9235839 37.4765625,15.8635254 C37.4886474,15.8034668 37.5065917,15.7445068 37.5300292,15.6881104 C37.5534667,15.6309815 37.5823974,15.5764161 37.6160888,15.5258789 C37.6508789,15.4742432 37.689331,15.4266357 37.7332763,15.3834229 C37.7764893,15.3402099 37.8244629,15.3010254 37.8760987,15.2673339 C37.9266357,15.2332763 37.9808349,15.2043458 38.0372315,15.1809083 C38.0943604,15.1574708 38.1525879,15.1395263 38.2126464,15.1274414 C38.3334961,15.1032714 38.4580078,15.1032714 38.5792237,15.1274414 C38.6389161,15.1395263 38.6982422,15.1574708 38.7542724,15.1809083 C38.810669,15.2043458 38.8659667,15.2332763 38.9165039,15.2673339 C38.9681396,15.3010254 39.0157471,15.3402099 39.0589599,15.3834229 C39.1021729,15.4266357 39.1417237,15.4742432 39.1754151,15.5258789 C39.2091065,15.5764161 39.2380371,15.6309815 39.2614746,15.6881104 C39.2849121,15.7445068 39.3028565,15.8034668 39.3149414,15.8635254 C39.3270263,15.9235839 39.3336182,15.9854737 39.3336182,16.0462646 C39.3336182,16.1070557 39.3270263,16.1689453 39.3149414,16.2301026 C39.3028565,16.2890625 39.2849121,16.3480224 39.2614746,16.4051513 C39.2380371,16.4615479 39.2091065,16.5161133 39.1754151,16.5666504 C39.1417237,16.6182862 39.1021729,16.6658935 39.0589599,16.7091065 C39.0161133,16.7523193 38.9681396,16.7915039 38.9165039,16.826294 C38.8659668,16.8599854 38.810669,16.8889161 38.7542724,16.9123536 C38.6982422,16.9357911 38.6389161,16.9537354 38.5792237,16.9658203 C38.5191651,16.9782714 38.4572754,16.9837646 38.3961182,16.9837646 Z" id="Path"></path>
                        <path d="M47.9285888,26.2924805 C47.7835693,25.9420166 47.4418945,25.7138672 47.0625,25.7138672 L39.3336182,25.7138672 L39.3336182,22.2861328 L42.661377,22.2861328 C42.6624756,22.2861328 42.6635742,22.286499 42.6650391,22.286499 C42.6807862,22.286499 42.6968994,22.2857666 42.7126464,22.2850342 C42.7155761,22.2850342 42.7181396,22.284668 42.7210693,22.284668 C42.7254638,22.2843018 42.7302246,22.2839355 42.7349854,22.2835693 C42.7408447,22.2832031 42.7470703,22.2828369 42.7529297,22.2821045 C42.7543945,22.2821045 42.7554932,22.2821045 42.7565917,22.2817383 C42.9052734,22.267456 43.0433349,22.2183838 43.1634521,22.1429443 C43.1634521,22.1429443 43.1634521,22.1429443 43.1638183,22.1425781 C43.1693115,22.1392823 43.1751709,22.1352539 43.1806641,22.1315917 C43.1821289,22.1308594 43.1832276,22.130127 43.1843261,22.1293945 C43.1890869,22.1260987 43.1938477,22.1228027 43.1986084,22.1195068 C43.2004395,22.1184083 43.2022705,22.1169433 43.2041016,22.1158448 C43.2081299,22.1129151 43.211792,22.1103516 43.2158203,22.1074219 C43.2183838,22.1052246 43.2209473,22.1037598 43.2235107,22.1019287 C43.2264404,22.0993652 43.2297364,22.097168 43.2326661,22.0949708 C43.2359619,22.0924073 43.2392578,22.0902099 43.2421875,22.0876464 C43.244751,22.0854492 43.2473145,22.0836182 43.2495117,22.0814209 C43.2531739,22.0788574 43.2568359,22.0759277 43.260498,22.0726318 C43.2623291,22.0715333 43.263794,22.0697021 43.265625,22.0686036 C43.2700195,22.0649414 43.2740479,22.0612792 43.2780761,22.0579834 C43.2791748,22.0568848 43.2802734,22.0561523 43.2813721,22.0550537 C43.2974854,22.0411377 43.3128662,22.0268555 43.3278808,22.0114746 L47.7253417,17.6143799 C47.901123,17.4382324 48,17.1998291 48,16.9511719 L48,1.21875 C48,1.17077634 47.9963379,1.12390134 47.9893799,1.07775881 C48.0142822,0.912597656 47.9952393,0.740112281 47.9285888,0.578979469 C47.7835693,0.228515625 47.4418945,0 47.0625,0 L31.0484619,0 C30.7998047,0 30.5614013,0.098877 30.3856201,0.27465825 L25.9885254,4.67211919 C25.9833984,4.67687991 25.9786377,4.68164062 25.973877,4.68676762 C25.9727783,4.68823238 25.9713135,4.68933103 25.9702148,4.69042969 C25.9665527,4.69445803 25.9632568,4.69812009 25.9595947,4.70178225 C25.9581299,4.70361328 25.9566651,4.70507812 25.9552002,4.70654297 C25.9519042,4.71020512 25.9486084,4.71423338 25.9453125,4.71789553 C25.9438477,4.71936037 25.942749,4.72082522 25.9416504,4.72229006 C25.9372558,4.72741697 25.9328614,4.73217769 25.928833,4.73730469 C25.9273682,4.73913572 25.9259033,4.74096675 25.9244385,4.74279787 C25.9215088,4.74609375 25.9189453,4.74938963 25.9160156,4.75305178 C25.9141846,4.75561519 25.9119873,4.75817869 25.9101562,4.760376 C25.9083252,4.7629395 25.9064942,4.76550291 25.9042969,4.76806641 C25.9020996,4.77136228 25.8995362,4.77429197 25.8973388,4.77758794 C25.8962402,4.7786865 25.8955078,4.78015134 25.8944092,4.78125 C25.7926026,4.92004397 25.7285156,5.08776853 25.7160645,5.26977544 L25.7160645,5.27050781 C25.715332,5.27929688 25.7149658,5.28771975 25.7145996,5.29650881 C25.7145996,5.29980469 25.7142334,5.30310056 25.7142334,5.30639644 C25.7142334,5.30969241 25.7138672,5.31262209 25.7138672,5.31591797 L25.7138672,5.32946775 L25.7138672,5.33496094 L25.7138672,10.1118164 L22.2861328,10.1118164 L22.2861328,1.21875 C22.2861328,1.17077634 22.2817383,0.740112281 22.2147217,0.578979469 C22.0697021,0.228515625 21.7280273,0 21.3486328,0 L5.33496094,0 C5.08630369,0 4.84790044,0.098877 4.67211919,0.27465825 L0.27465825,4.67211919 C0.264038062,4.682373 0.153076125,4.82116697 0.152709937,4.82189944 C0.0714111562,4.94641116 0.0186767812,5.09143069 0.004028325,5.2474365 C0.00366210937,5.25073238 0.00329589375,5.25439453 0.00329589375,5.25769041 C0.0029296875,5.26062009 0.00256348125,5.26318359 0.00256348125,5.26611328 C0.000732421875,5.29138181 -5.68434189e-14,21.3486328 -5.68434189e-14,21.3486328 C-5.68434189e-14,21.8664551 0.419677687,22.2861328 0.9375,22.2861328 L11.8824463,22.2861328 L11.8824463,25.7138672 L5.33496094,25.7138672 C5.08630369,25.7138672 4.84790044,25.8127442 4.67211919,25.9885254 L0.27465825,30.3856201 C0.264038062,30.3962402 -5.68352873e-14,30.6837158 -5.68352873e-14,31.0561523 L-5.68352873e-14,47.0625 C-5.68352873e-14,47.5803223 0.419677687,48 0.9375,48 L16.9475098,48 C17.3397217,48 17.6129151,47.7268067 17.6143799,47.7253417 L22.0114746,43.3278808 C22.1872558,43.1520996 22.2861328,42.9136963 22.2861328,42.6650391 L22.2861328,37.9819336 L25.7138672,37.9819336 L25.7138672,47.0625 C25.7138672,47.5803223 26.1335449,48 26.6513672,48 L42.661377,48 C43.0352783,48 43.3128662,47.7407227 43.3278808,47.7253417 L47.7253417,43.3278808 C47.901123,43.1520996 48,42.9136963 48,42.6650391 L48,26.9326172 C48,26.8846435 47.9956055,26.4536133 47.9285888,26.2924805 Z M44.7989502,27.5888672 L42.2768555,30.1109619 L28.9145508,30.1109619 L31.4370117,27.5888672 L37.4586182,27.5888672 L37.4586182,28.3751221 C37.4586182,28.8929443 37.8782959,29.3126221 38.3961182,29.3126221 C38.9135742,29.3126221 39.3336182,28.8929443 39.3336182,28.3751221 L39.3336182,27.5888672 L44.7989502,27.5888672 Z M27.5888672,6.27246094 L37.458252,6.27246094 L37.458252,12.4368896 C37.458252,12.9547119 37.8782959,13.3743896 38.395752,13.3743896 C38.9135742,13.3743896 39.333252,12.9547119 39.333252,12.4368896 L39.333252,6.27246094 L41.7275391,6.27246094 L41.7275391,20.4111328 L27.5888672,20.4111328 L27.5888672,6.27246094 Z M43.6025391,19.0854492 L43.6025391,5.72314453 L46.125,3.20104978 L46.125,16.5629883 L43.6025391,19.0854492 Z M31.4370117,1.875 L44.7989502,1.875 L42.2768555,4.39746094 L28.9145508,4.39746094 L31.4370117,1.875 Z M19.8065185,11.9868164 L20.4111328,11.9868164 L20.4111328,16.5629883 L17.8890381,19.0854492 L17.8890381,5.72314453 L20.4111328,3.20104978 L20.4111328,10.1118164 L19.8065185,10.1118164 C19.2886963,10.1118164 18.8690185,10.5314942 18.8690185,11.0493164 C18.8690185,11.5671386 19.2886963,11.9868164 19.8065185,11.9868164 Z M5.72314453,1.875 L19.0854492,1.875 L16.5629883,4.39746094 L3.20104978,4.39746094 L5.72314453,1.875 Z M1.875,6.27246094 L16.0140381,6.27246094 L16.0140381,20.4111328 L1.875,20.4111328 L1.875,6.27246094 Z M5.72314453,27.5888672 L11.8824463,27.5888672 L11.8824463,28.4373779 C11.8824463,28.9552002 12.302124,29.3748779 12.8199463,29.3748779 C13.3374023,29.3748779 13.7574463,28.9552002 13.7574463,28.4373779 L13.7574463,27.5888672 L19.0854492,27.5888672 L16.5629883,30.1109619 L3.20104978,30.1109619 L5.72314453,27.5888672 Z M1.875,31.9859619 L16.0140381,31.9859619 L16.0140381,46.125 L13.7574463,46.125 L13.7574463,37.4743652 C13.7574463,36.956543 13.3374023,36.5368652 12.8199463,36.5368652 C12.302124,36.5368652 11.8824463,36.956543 11.8824463,37.4743652 L11.8824463,46.125 L1.875,46.125 L1.875,31.9859619 Z M20.4111328,42.2768555 L17.8890381,44.7993164 L17.8890381,31.4370117 L20.4111328,28.9145508 L20.4111328,36.1069336 L19.8065185,36.1069336 C19.2886963,36.1069336 18.8690185,36.5266114 18.8690185,37.0444336 C18.8690185,37.5622558 19.2886963,37.9819336 19.8065185,37.9819336 L20.4111328,37.9819336 L20.4111328,42.2768555 Z M22.2861328,36.1069336 L22.2861328,27.0263672 C22.2861328,26.9619141 22.2879638,26.4689942 22.2147217,26.2924805 C22.0697021,25.9420166 21.7280273,25.7138672 21.3486328,25.7138672 L13.7574463,25.7138672 L13.7574463,22.2861328 L16.9475098,22.2861328 C16.9486084,22.2861328 17.041626,22.2821045 17.0427246,22.2817383 C17.1994629,22.2667237 17.3444824,22.2128906 17.4689942,22.1304932 C17.4693604,22.1304932 17.6129151,22.0129395 17.6143799,22.0114746 L22.0114746,17.6143799 C22.1872558,17.4385987 22.2861328,17.2001953 22.2861328,16.9515381 L22.2861328,11.9868164 L25.7138672,11.9868164 L25.7138672,21.3486328 C25.7138672,21.8664551 26.1335449,22.2861328 26.6513672,22.2861328 L37.4586182,22.2861328 L37.4586182,25.7138672 L31.0484619,25.7138672 C30.7998047,25.7138672 30.5614013,25.8127442 30.3856201,25.9885254 L25.9885254,30.3856201 C25.9833984,30.3903808 25.7138672,30.6463623 25.7138672,31.0484619 L25.7138672,36.1069336 L22.2861328,36.1069336 Z M27.5888672,31.9859619 L41.7275391,31.9859619 L41.7275391,46.125 L27.5888672,46.125 L27.5888672,31.9859619 Z M43.6025391,44.7993164 L43.6025391,31.4370117 L46.125,28.9145508 L46.125,42.2768555 L43.6025391,44.7993164 Z" id="Shape"></path>
                    </g>
                </g>
            </g>
        </g>
    </g>
</svg>