<?xml version="1.0" encoding="UTF-8"?>
<svg width="48px" height="48px" viewBox="0 0 48 48" version="1.1" xmlns="http://www.w3.org/2000/svg" xmlns:xlink="http://www.w3.org/1999/xlink">
    <!-- Generator: sketchtool 52.2 (67145) - http://www.bohemiancoding.com/sketch -->
    <title>3ACBAA17-B26D-431B-AA37-CD1D5542A0E8</title>
    <desc>Created with sketchtool.</desc>
    <g id="desktop" stroke="none" stroke-width="1" fill="none" fill-rule="evenodd">
        <g id="About" transform="translate(-156.000000, -1851.000000)" fill="#FFFFFF" fill-rule="nonzero">
            <g id="Group-4" transform="translate(156.000000, 1812.000000)">
                <g id="compass-pointing-north-east" transform="translate(0.000000, 39.000000)">
                    <path d="M24,0 C37.2548571,0 48,10.7451429 48,24 C48,37.2548571 37.2548571,48 24,48 C10.7451429,48 0,37.2548571 0,24 C0,10.7451429 10.7451429,0 24,0 Z M24,44.5714286 C35.3605714,44.5714286 44.5714286,35.3605714 44.5714286,24 C44.5714286,12.6394286 35.3605714,3.42857143 24,3.42857143 C12.6394286,3.42857143 3.42857143,12.6394286 3.42857143,24 C3.42857143,35.3605714 12.6394286,44.5714286 24,44.5714286 Z M10.6662857,37.332 C10.6662857,37.332 16.1228571,22.1811429 19.152,19.152 C22.1811429,16.1228571 37.332,10.6662857 37.332,10.6662857 C37.332,10.6662857 31.8788571,25.8171429 28.848,28.848 C25.8171429,31.8754286 10.6662857,37.332 10.6662857,37.332 Z M21.576,21.576 C20.364,20.364 15.516,32.484 15.516,32.484 C15.516,32.484 27.636,27.636 26.424,26.424 L21.576,21.576 Z" id="Combined-Shape"></path>
                </g>
            </g>
        </g>
    </g>
</svg>