<?xml version="1.0" encoding="UTF-8"?>
<svg width="48px" height="48px" viewBox="0 0 48 48" version="1.1" xmlns="http://www.w3.org/2000/svg" xmlns:xlink="http://www.w3.org/1999/xlink">
    <!-- Generator: Sketch 53.2 (72643) - https://sketchapp.com -->
    <title>vector</title>
    <desc>Created with Sketch.</desc>
    <g id="Page-1" stroke="none" stroke-width="1" fill="none" fill-rule="evenodd">
        <g id="About" transform="translate(-156.000000, -2172.000000)" fill="#FFFFFF" fill-rule="nonzero">
            <g id="Group-3-Copy" transform="translate(156.000000, 2133.000000)">
                <g id="vector" transform="translate(0.000000, 39.000000)">
                    <path d="M47.3010492,15.8163934 L44.9108852,13.4262295 C44.5076066,13.0229508 43.966623,12.7967213 43.3961311,12.7967213 C42.8256393,12.7967213 42.2846557,13.0229508 41.881377,13.4262295 L41.5567869,13.7508197 C38.3994098,11.6459016 34.7305574,10.5344262 30.8846557,10.5245902 C30.8748197,10.5245902 30.8649836,10.5245902 30.8453115,10.5245902 C28.4551475,10.5245902 26.1436721,10.947541 23.9699016,11.7737705 L28.1600656,7.58360656 C28.6912131,7.83934426 29.271541,7.96721311 29.871541,7.96721311 C30.9338361,7.96721311 31.9371148,7.55409836 32.6846557,6.79672131 C33.4321967,6.04918033 33.8551475,5.04590164 33.8551475,3.98360656 C33.8551475,2.92131148 33.4420328,1.91803279 32.6846557,1.1704918 C31.9272787,0.42295082 30.9338361,0 29.871541,0 C28.8092459,0 27.8059672,0.413114754 27.0584262,1.1704918 C26.3108852,1.92786885 25.8879344,2.92131148 25.8879344,3.98360656 C25.8879344,4.58360656 26.0256393,5.17377049 26.271541,5.69508197 L18.7272787,13.2393443 L18.471541,12.9836066 C18.0682623,12.5803279 17.5272787,12.3540984 16.9567869,12.3540984 C16.3862951,12.3540984 15.8453115,12.5803279 15.4420328,12.9836066 L13.0223607,15.3934426 C12.619082,15.7967213 12.3928525,16.3377049 12.3928525,16.9081967 C12.3928525,17.4786885 12.619082,18.0196721 13.0223607,18.4229508 L13.2780984,18.6786885 L5.73383607,26.2229508 C5.20268852,25.9672131 4.62236066,25.8393443 4.02236066,25.8393443 C2.96006557,25.8393443 1.95678689,26.252459 1.2092459,27.0098361 C-0.344852459,28.5639344 -0.344852459,31.0918033 1.2092459,32.6360656 C1.95678689,33.3836066 2.96006557,33.8065574 4.02236066,33.8065574 C5.08465574,33.8065574 6.08793443,33.3934426 6.83547541,32.6360656 C8.05514754,31.4163934 8.32072131,29.5868852 7.61252459,28.1114754 L11.8026885,23.9213115 C10.976459,26.104918 10.5436721,28.4360656 10.5535082,30.8360656 C10.5633443,34.6819672 11.6748197,38.3508197 13.7797377,41.5081967 L13.376459,41.9114754 C12.5403934,42.747541 12.5403934,44.1147541 13.376459,44.9508197 L15.776459,47.3508197 C16.1797377,47.7540984 16.7207213,47.9803279 17.2912131,47.9803279 C17.8617049,47.9803279 18.4026885,47.7540984 18.8059672,47.3508197 L21.2059672,44.9508197 C22.0420328,44.1147541 22.0420328,42.747541 21.2059672,41.9114754 L18.8059672,39.5114754 C18.4026885,39.1081967 17.8617049,38.8819672 17.2912131,38.8819672 C16.7207213,38.8819672 16.1797377,39.1081967 15.776459,39.5114754 L15.7076066,39.5803279 C12.2551475,33.9836066 12.4026885,26.7442623 16.1699016,21.295082 C16.4158033,21.3934426 16.671541,21.442623 16.9469508,21.442623 C17.5174426,21.442623 18.0584262,21.2163934 18.4617049,20.8131148 L20.8617049,18.4131148 C21.481377,17.7934426 21.6387541,16.8885246 21.3436721,16.1213115 C26.7928525,12.3540984 34.0321967,12.1967213 39.628918,15.6590164 L39.481377,15.8065574 C38.6453115,16.642623 38.6453115,18.0098361 39.481377,18.8459016 L41.881377,21.2459016 C42.2846557,21.6491803 42.8256393,21.8754098 43.3961311,21.8754098 C43.966623,21.8754098 44.5076066,21.6491803 44.9108852,21.2459016 L47.3108852,18.8459016 C48.1469508,18.0196721 48.1469508,16.6622951 47.3010492,15.8163934 Z M18.9633443,43.4459016 L17.281377,45.1278689 L15.5994098,43.4459016 L17.281377,41.7639344 L18.9633443,43.4459016 Z M28.9174426,3.05901639 C29.1633443,2.81311475 29.4977705,2.67540984 29.8518689,2.67540984 C30.2059672,2.67540984 30.5403934,2.81311475 30.7862951,3.05901639 C31.0321967,3.30491803 31.1699016,3.63934426 31.1699016,3.99344262 C31.1699016,4.34754098 31.0321967,4.68196721 30.7862951,4.92786885 C30.5403934,5.17377049 30.2059672,5.31147541 29.8518689,5.31147541 C29.4977705,5.31147541 29.1633443,5.17377049 28.9174426,4.92786885 L28.9174426,4.92786885 L28.9174426,4.92786885 C28.671541,4.68196721 28.5338361,4.34754098 28.5338361,3.99344262 C28.5338361,3.63934426 28.671541,3.3147541 28.9174426,3.05901639 Z M4.95678689,30.7672131 C4.71088525,31.0131148 4.37645902,31.1508197 4.02236066,31.1508197 C3.6682623,31.1508197 3.33383607,31.0131148 3.08793443,30.7672131 C2.56662295,30.2459016 2.56662295,29.4098361 3.08793443,28.8983607 C3.33383607,28.652459 3.6682623,28.5147541 4.02236066,28.5147541 C4.37645902,28.5147541 4.71088525,28.652459 4.95678689,28.8983607 C5.47809836,29.4098361 5.47809836,30.2557377 4.95678689,30.7672131 Z M16.9371148,18.5901639 L15.2551475,16.9081967 L16.9371148,15.2262295 L17.7731803,16.0622951 L17.7731803,16.0622951 L17.7731803,16.0622951 L18.6092459,16.8983607 L16.9371148,18.5901639 Z M43.3862951,19.0131148 L41.7043279,17.3311475 L43.3862951,15.6491803 L45.0682623,17.3311475 L43.3862951,19.0131148 Z" id="Shape"></path>
                </g>
            </g>
        </g>
    </g>
</svg>