<?xml version="1.0" encoding="UTF-8"?>
<svg width="74px" height="96px" viewBox="0 0 74 96" version="1.1" xmlns="http://www.w3.org/2000/svg" xmlns:xlink="http://www.w3.org/1999/xlink">
    <title>icon1</title>
    <g id="Page-1" stroke="none" stroke-width="1" fill="none" fill-rule="evenodd">
        <g id="icon1">
            <path d="M73.295,36.648 C73.295,56.888 56.887,73.296 36.647,73.296 C16.407,73.296 0,56.888 0,36.648 C0,16.408 16.407,0 36.647,0 C56.887,0 73.295,16.408 73.295,36.648" id="Fill-1" fill="#4B5C6D"></path>
            <path d="M64.5498,36.648 C64.5498,52.058 52.0578,64.551 36.6468,64.551 C21.2368,64.551 8.7448,52.058 8.7448,36.648 C8.7448,21.238 21.2368,8.745 36.6468,8.745 C52.0578,8.745 64.5498,21.238 64.5498,36.648" id="Fill-2" fill="#FFFFFF"></path>
            <path d="M40.9458,81.5577 C40.9458,83.9317 39.0218,85.8557 36.6478,85.8557 C34.2738,85.8557 32.3488,83.9317 32.3488,81.5577 C32.3488,79.1837 34.2738,77.2597 36.6478,77.2597 C39.0218,77.2597 40.9458,79.1837 40.9458,81.5577" id="Fill-3" fill="#4B5C6D"></path>
            <path d="M39.5186,92.691 C39.5186,94.277 38.2336,95.562 36.6476,95.562 C35.0616,95.562 33.7766,94.277 33.7766,92.691 C33.7766,91.105 35.0616,89.82 36.6476,89.82 C38.2336,89.82 39.5186,91.105 39.5186,92.691" id="Fill-4" fill="#4B5C6D"></path>
            <path d="M31.2369,37.6124 C29.3789,37.6124 27.5199,36.9054 26.1049,35.4904 C24.7339,34.1194 23.9779,32.2954 23.976899,30.3564 C23.9759,28.4174 24.7309,26.5934 26.1019,25.2224 C28.9339,22.3914 33.5409,22.3914 36.3729,25.2224 C39.2029,28.0524 39.2009,32.6584 36.3689,35.4904 C34.9549,36.9054 33.0959,37.6124 31.2369,37.6124 M31.2369,24.4644 C29.7269,24.4644 28.2169,25.0394 27.0679,26.1894 C25.9549,27.3014 25.3429,28.7814 25.3429,30.3564 C25.3439,31.9304 25.9579,33.4104 27.0709,34.5234 C29.3679,36.8214 33.1059,36.8214 35.4029,34.5234 C37.7019,32.2254 37.7039,28.4864 35.4059,26.1894 C34.2569,25.0394 32.7469,24.4644 31.2369,24.4644" id="Fill-5" fill="#4B5C6D"></path>
            <path d="M31.2369,37.6124 C29.3789,37.6124 27.5199,36.9054 26.1049,35.4904 C24.7339,34.1194 23.9779,32.2954 23.976899,30.3564 C23.9759,28.4174 24.7309,26.5934 26.1019,25.2224 C28.9339,22.3914 33.5409,22.3914 36.3729,25.2224 C39.2029,28.0524 39.2009,32.6584 36.3689,35.4904 C34.9549,36.9054 33.0959,37.6124 31.2369,37.6124 M31.2369,24.4644 C29.7269,24.4644 28.2169,25.0394 27.0679,26.1894 C25.9549,27.3014 25.3429,28.7814 25.3429,30.3564 C25.3439,31.9304 25.9579,33.4104 27.0709,34.5234 C29.3679,36.8214 33.1059,36.8214 35.4029,34.5234 C37.7019,32.2254 37.7039,28.4864 35.4059,26.1894 C34.2569,25.0394 32.7469,24.4644 31.2369,24.4644" id="Fill-6" fill="#4B5C6D"></path>
            <path d="M47.8765,51.9669 C46.7725,51.9669 45.7355,51.5379 44.9565,50.7589 L41.0905,46.8929 C40.0235,45.8249 39.6315,44.2789 40.0365,42.8469 L36.1835,38.9939 C32.3305,41.2039 27.3755,40.5719 24.1985,37.3959 C20.3185,33.5149 20.3185,27.2009 24.1985,23.3199 C28.0805,19.4399 34.3935,19.4399 38.2755,23.3199 C41.6935,26.7389 42.1465,32.0939 39.4305,36.0119 L43.3175,39.8999 C43.5455,39.8599 43.7775,39.8399 44.0105,39.8399 C45.1125,39.8399 46.1495,40.2709 46.9315,41.0519 L50.7965,44.9179 C51.5765,45.6979 52.0055,46.7339 52.0065017,47.8359 C52.0075,48.9399 51.5775,49.9779 50.7965,50.7589 C50.0175,51.5379 48.9805,51.9669 47.8765,51.9669 M36.2855,37.4469 C36.4615,37.4469 36.6365,37.5149 36.7695,37.6469 L41.3035,42.1819 C41.4985,42.3759 41.5575,42.6679 41.4535,42.9219 C41.0315,43.9589 41.2685,45.1379 42.0565,45.9269 L45.9225,49.7919 C46.4435,50.3139 47.1375,50.6009 47.8765,50.6009 C48.6155,50.6009 49.3095,50.3139 49.8305,49.7919 C50.3535,49.2699 50.6405,48.5749 50.6405,47.8369 C50.6395,47.0989 50.3525,46.4059 49.8305,45.8839 L45.9645,42.0179 C45.4415,41.4949 44.7475,41.2069 44.0105,41.2069 C43.7595,41.2069 43.5215,41.2389 43.2845,41.3059 C43.0465,41.3729 42.7925,41.3059 42.6165,41.1309 L38.0485,36.5629 C37.8035,36.3179 37.7805,35.9289 37.9945,35.6569 C40.6785,32.2489 40.3835,27.3609 37.3085,24.2859 C33.9605,20.9379 28.5125,20.9379 25.1655,24.2859 C21.8175,27.6339 21.8175,33.0819 25.1655,36.4299 C28.0185,39.2839 32.5385,39.7569 35.9125,37.5579 C36.0265,37.4829 36.1575,37.4469 36.2855,37.4469 M31.2375,37.6129 C29.3785,37.6129 27.5195,36.9049 26.1045,35.4899 C24.7335,34.1189 23.977499,32.2959 23.977499,30.3569 C23.9765,28.4169 24.7305,26.5939 26.1015,25.2229 C27.4725,23.8519 29.2965,23.0969 31.2375,23.0969 C33.1775,23.0969 35.0015,23.8519 36.3725,25.2229 C39.2025,28.0529 39.2005,32.6589 36.3695,35.4899 C34.9545,36.9049 33.0955,37.6129 31.2375,37.6129 M31.2375,24.4649 C29.7275,24.4649 28.2175,25.0399 27.0675,26.1889 C25.9545,27.3019 25.3425,28.7819 25.3434988,30.3559 C25.3445,31.9299 25.9575,33.4109 27.0715,34.5239 C29.3685,36.8209 33.1065,36.8209 35.4025,34.5239 C37.7015,32.2249 37.7035,28.4859 35.4065,26.1889 C34.2565,25.0399 32.7465,24.4649 31.2375,24.4649" id="Fill-7" fill="#4B5C6D"></path>
        </g>
    </g>
</svg>