<?xml version="1.0" encoding="UTF-8"?>
<svg width="74px" height="96px" viewBox="0 0 74 96" version="1.1" xmlns="http://www.w3.org/2000/svg" xmlns:xlink="http://www.w3.org/1999/xlink">
    <title>icon4</title>
    <g id="Page-1" stroke="none" stroke-width="1" fill="none" fill-rule="evenodd">
        <g id="icon4">
            <path d="M73.295,36.648 C73.295,56.888 56.887,73.296 36.648,73.296 C16.407,73.296 0,56.888 0,36.648 C0,16.408 16.407,0 36.648,0 C56.887,0 73.295,16.408 73.295,36.648" id="Fill-1" fill="#4B5C6D"></path>
            <path d="M64.5499,36.648 C64.5499,52.058 52.0579,64.551 36.6469,64.551 C21.2369,64.551 8.7449,52.058 8.7449,36.648 C8.7449,21.238 21.2369,8.745 36.6469,8.745 C52.0579,8.745 64.5499,21.238 64.5499,36.648" id="Fill-2" fill="#FFFFFF"></path>
            <path d="M40.7862,81.5577 C40.7862,83.9317 38.8622,85.8557 36.4882,85.8557 C34.1142,85.8557 32.1892,83.9317 32.1892,81.5577 C32.1892,79.1837 34.1142,77.2597 36.4882,77.2597 C38.8622,77.2597 40.7862,79.1837 40.7862,81.5577" id="Fill-3" fill="#4B5C6D"></path>
            <path d="M39.3595,92.691 C39.3595,94.277 38.0745,95.562 36.4885,95.562 C34.9025,95.562 33.6175,94.277 33.6175,92.691 C33.6175,91.105 34.9025,89.82 36.4885,89.82 C38.0745,89.82 39.3595,91.105 39.3595,92.691" id="Fill-4" fill="#4B5C6D"></path>
            <path d="M36.6476,28.9571 C32.4116,28.9571 28.9636,32.4041 28.9636,36.6401 C28.9636,40.8761 32.4116,44.3231 36.6476,44.3231 C40.8836,44.3231 44.3306,40.8761 44.3306,36.6401 C44.3306,32.4041 40.8836,28.9571 36.6476,28.9571 L36.6476,28.9571 Z M36.6476,45.3231 C31.8596,45.3231 27.9636,41.4281 27.9636,36.6401 C27.9636,31.8521 31.8596,27.9571 36.6476,27.9571 C41.4356,27.9571 45.3306,31.8521 45.3306,36.6401 C45.3306,41.4281 41.4356,45.3231 36.6476,45.3231 L36.6476,45.3231 Z M35.4106,51.5341 L37.8836,51.5341 L38.5516,49.2691 C38.6046,49.0881 38.7546,48.9531 38.9406,48.9181 C40.0066,48.7211 41.0396,48.3861 42.0086,47.9241 C42.1796,47.8451 42.3796,47.8651 42.5286,47.9801 L44.3956,49.4171 L46.3976,47.9631 L45.6066,45.7391 C45.5436,45.5611 45.5856,45.3641 45.7136,45.2281 C46.4636,44.4361 47.1046,43.5591 47.6186,42.6201 C47.7086,42.4551 47.8866,42.3581 48.0706,42.3591 L50.4216,42.4251 L51.1876,40.0711 L49.2446,38.7401 C49.0886,38.6331 49.0056,38.4491 49.0306,38.2621 C49.1026,37.7091 49.1396,37.1641 49.1396,36.6401 C49.1396,36.1191 49.1036,35.5781 49.0326,35.0321 C49.0076,34.8451 49.0906,34.6611 49.2466,34.5551 L51.1876,33.2251 L50.4216,30.8721 L48.0796,30.9361 C47.8916,30.9441 47.7166,30.8411 47.6266,30.6751 C47.1126,29.7331 46.4706,28.8521 45.7176,28.0571 C45.5886,27.9201 45.5466,27.7231 45.6106,27.5461 L46.3976,25.3321 L44.3956,23.8771 L42.5416,25.3051 C42.3916,25.4201 42.1906,25.4411 42.0216,25.3601 C41.0466,24.8961 40.0086,24.5601 38.9366,24.3611 C38.7516,24.3271 38.6006,24.1911 38.5476,24.0111 L37.8836,21.7621 L35.4106,21.7621 L34.7486,24.0101 C34.6956,24.1911 34.5446,24.3271 34.3596,24.3611 C33.2876,24.5601 32.2496,24.8961 31.2746,25.3601 C31.1056,25.4421 30.9046,25.4201 30.7546,25.3061 L28.8986,23.8771 L26.8966,25.3321 L27.6836,27.5461 C27.7476,27.7231 27.7056,27.9201 27.5766,28.0571 C26.8236,28.8531 26.1816,29.7341 25.6696,30.6751 C25.5806,30.8411 25.4056,30.9391 25.2166,30.9361 L22.8726,30.8721 L22.1076,33.2251 L24.0486,34.5551 C24.2046,34.6611 24.2866,34.8451 24.2626,35.0311 C24.1906,35.5931 24.1556,36.1201 24.1556,36.6401 C24.1556,37.1641 24.1926,37.7091 24.2646,38.2621 C24.2896,38.4491 24.2066,38.6331 24.0506,38.7401 L22.1076,40.0711 L22.8726,42.4251 L25.2256,42.3591 C25.4286,42.3631 25.5886,42.4551 25.6776,42.6201 C26.1916,43.5601 26.8316,44.4371 27.5806,45.2281 C27.7096,45.3641 27.7516,45.5611 27.6876,45.7391 L26.8966,47.9631 L28.8986,49.4171 L30.7666,47.9801 C30.9156,47.8641 31.1166,47.8441 31.2866,47.9241 C32.2556,48.3861 33.2886,48.7211 34.3536,48.9181 C34.5396,48.9531 34.6896,49.0881 34.7426,49.2691 L35.4106,51.5341 Z M38.2576,52.5341 L35.0366,52.5341 C34.8146,52.5341 34.6196,52.3881 34.5566,52.1761 L33.8696,49.8421 C32.9256,49.6441 32.0096,49.3481 31.1366,48.9571 L29.2116,50.4381 C29.0356,50.5741 28.7916,50.5761 28.6136,50.4461 L26.0056,48.5521 C25.8266,48.4221 25.7536,48.1891 25.8296,47.9801 L26.6446,45.6891 C25.9956,44.9731 25.4276,44.1941 24.9516,43.3681 L22.5256,43.4351 C22.3046,43.4371 22.1046,43.3001 22.0366,43.0891 L21.0416,40.0241 C20.9726,39.8131 21.0506,39.5831 21.2346,39.4571 L23.2366,38.0861 C23.1826,37.5951 23.1556,37.1091 23.1556,36.6401 C23.1556,36.1801 23.1816,35.7001 23.2346,35.2091 L21.2346,33.8391 C21.0506,33.7131 20.9726,33.4831 21.0416,33.2721 L22.0366,30.2071 C22.1046,29.9961 22.3016,29.8621 22.5256,29.8611 L24.9416,29.9281 C25.4186,29.1001 25.9886,28.3171 26.6406,27.5961 L25.8296,25.3141 C25.7546,25.1051 25.8266,24.8731 26.0056,24.7431 L28.6136,22.8491 C28.7936,22.7181 29.0376,22.7221 29.2116,22.8561 L31.1256,24.3281 C32.0026,23.9351 32.9246,23.6361 33.8746,23.4371 L34.5566,21.1211 C34.6196,20.9081 34.8146,20.7621 35.0366,20.7621 L38.2576,20.7621 C38.4796,20.7621 38.6746,20.9081 38.7376,21.1211 L39.4206,23.4371 C40.3716,23.6361 41.2936,23.9351 42.1706,24.3281 L44.0826,22.8571 C44.2576,22.7201 44.5016,22.7181 44.6806,22.8491 L47.2886,24.7431 C47.4676,24.8731 47.5396,25.1051 47.4646,25.3141 L46.6536,27.5961 C47.3056,28.3161 47.8766,29.0991 48.3536,29.9281 L50.7686,29.8611 C50.9736,29.8641 51.1886,29.9961 51.2576,30.2071 L52.2536,33.2711 C52.3226,33.4821 52.2446,33.7131 52.0606,33.8391 L50.0606,35.2091 C50.1136,35.6941 50.1396,36.1741 50.1396,36.6401 C50.1396,37.1091 50.1126,37.5951 50.0586,38.0861 L52.0606,39.4571 C52.2446,39.5831 52.3226,39.8141 52.2536,40.0241 L51.2576,43.0891 C51.1886,43.3001 50.9716,43.4361 50.7686,43.4351 L48.3446,43.3681 C47.8686,44.1931 47.2986,44.9721 46.6496,45.6891 L47.4646,47.9801 C47.5406,48.1891 47.4676,48.4221 47.2886,48.5521 L44.6806,50.4461 C44.5016,50.5771 44.2566,50.5741 44.0826,50.4381 L42.1586,48.9571 C41.2856,49.3481 40.3686,49.6441 39.4246,49.8421 L38.7376,52.1761 C38.6746,52.3881 38.4796,52.5341 38.2576,52.5341 L38.2576,52.5341 Z" id="Fill-5" fill="#4B5C6D"></path>
            <path d="M35.6095,39.3814 C35.5275,39.3814 35.4455,39.3504 35.3815,39.2874 L32.6335,36.5384 C32.5075,36.4134 32.5075,36.2104 32.6335,36.0854 C32.7585,35.9604 32.9625,35.9604 33.0875,36.0854 L35.8365,38.8334 C35.9615,38.9594 35.9615,39.1624 35.8365,39.2874 C35.7735,39.3504 35.6915,39.3814 35.6095,39.3814" id="Fill-6" fill="#4B5C6D"></path>
            <path d="M35.6095,39.3814 C35.5275,39.3814 35.4455,39.3504 35.3815,39.2874 C35.2565,39.1624 35.2565,38.9594 35.3815,38.8334 L40.2075,34.0084 C40.3335,33.8834 40.5365,33.8834 40.6615,34.0084 C40.7865,34.1344 40.7865,34.3374 40.6615,34.4624 L35.8365,39.2874 C35.7735,39.3504 35.6915,39.3814 35.6095,39.3814" id="Fill-7" fill="#4B5C6D"></path>
            <path d="M40.7501,33.92 C40.5761,33.747 40.2941,33.746 40.1181,33.92 L35.6081,38.43 L33.1761,35.997 C33.0021,35.823 32.7201,35.824 32.5461,35.997 C32.4611,36.081 32.4141,36.193 32.4141,36.312 C32.4141,36.431 32.4611,36.543 32.5451,36.627 L35.2941,39.376 C35.3791,39.46 35.4901,39.506 35.6091,39.506 C35.7291,39.506 35.8411,39.46 35.9251,39.376 L40.7501,34.551 C40.9231,34.378 40.9231,34.095 40.7501,33.92" id="Fill-8" fill="#4B5C6D"></path>
        </g>
    </g>
</svg>