<?xml version="1.0" encoding="UTF-8"?>
<svg width="185px" height="282px" viewBox="0 0 185 282" version="1.1" xmlns="http://www.w3.org/2000/svg" xmlns:xlink="http://www.w3.org/1999/xlink">
    <title>Group 3</title>
    <g id="Page-1" stroke="none" stroke-width="1" fill="none" fill-rule="evenodd">
        <g id="Group-3">
            <path d="M155.597264,161.016177 L155.597264,161.016177 C147.545546,161.396242 140.633752,169.049533 141.015064,177.458953 C141.396377,185.112245 148.681456,192.36947 156.745216,191.985405 C165.190288,191.605341 171.708728,184.348116 170.938075,175.54663 C170.556762,167.13321 164.042336,160.632113 155.597264,161.016177" id="Fill-140" fill="#71C4E3"></path>
            <path d="M24.8838264,180 L24.8838264,180 C31.6923674,180.383789 37.372749,186.880226 36.9808621,194.144241 C36.9808621,200.640677 30.5562911,206.365536 24.1277617,205.981747 C16.9352506,205.981747 11.6427975,199.873098 12.0188506,192.225293 C12.3988622,185.353063 18.0673684,180 24.8838264,180" id="Fill-141" fill="#71C4E3"></path>
            <path d="M111,123.062865 L111,123.062865 C111,132.466262 103.009166,140 93.4989208,140 C83.2448794,140 75.63191,132.09233 76.0137517,121.937135 C76.0137517,112.15587 84.0045854,105 93.8926951,105 C103.391008,105 111,113.285538 111,123.062865" id="Fill-142" fill="#71C4E3"></path>
            <path d="M70.806702,174.34247 L70.806702,174.34247 C69.2855435,176.622307 67.3860865,178.524161 66.6255073,180.803998 C60.1466466,193.738989 50.625469,203.622262 40.7379392,213.517471 C37.6956223,216.175292 36.5408161,219.215074 36.9350431,223.018781 C36.9350431,240.139443 36.9350431,257.252146 36.9350431,274.36485 C36.9350431,278.168557 37.3173237,281.976243 32.3596215,281.976243 C27.4138655,281.976243 26.2749877,278.928503 26.2749877,274.742833 C26.6572684,265.99749 26.6572684,257.63013 26.6572684,249.258791 C26.2749877,246.978954 27.7961461,243.179225 23.99325,243.179225 C20.5726346,243.179225 21.3332138,246.978954 21.3332138,248.876829 C21.3332138,257.252146 21.3332138,265.237544 21.3332138,273.600925 C21.3332138,277.400654 22.093793,281.976243 15.9932309,281.976243 C10.6691764,281.976243 11.051457,277.400654 11.051457,273.982887 C11.051457,258.012092 11.4297556,242.797263 11.051457,227.204451 C11.051457,224.54663 12.1903348,221.880852 8.00515804,217.695183 C8.00515804,224.928593 8.00515804,230.248212 8.00515804,235.571811 C8.00515804,238.997535 8.76971936,242.41928 3.81201711,242.41928 C-0.373159654,242.41928 0.00912100139,238.997535 0.00912100139,235.953773 C0.00912100139,229.86625 0.00912100139,224.168647 0.00912100139,217.695183 C0.00912100139,211.233655 3.05143788,207.429948 10.2908778,207.807931 C15.9932309,208.189894 21.3332138,207.807931 27.0355669,207.807931 C36.9350431,207.807931 40.7379392,204.382208 45.3014145,195.644822 C53.6837143,178.906123 63.1889635,162.545407 74.6095981,148.098482 C78.0302135,143.538808 82.2313186,140.499025 87.9336718,145.818645 C91.3582693,148.858428 96.3119895,148.476465 99.736587,145.436683 C104.29608,141.258971 107.354325,143.156846 111.157222,146.574612 C116.098995,151.142243 119.157241,156.847804 122.577856,162.545407 C127.901911,171.298709 133.237912,180.044052 138.944247,188.793374 C138.944247,189.55332 139.704826,190.313266 140.083125,190.691249 C143.125441,192.979044 147.322564,194.120952 153.024918,194.120952 C159.491832,194.120952 166.348991,194.498935 172.811924,194.120952 C181.194223,194.120952 184.993137,198.302642 184.993137,205.902099 C184.993137,213.135509 184.993137,220.353003 184.993137,227.586413 C184.993137,231.004179 185.375418,235.193827 180.433644,235.193827 C174.715363,235.193827 175.475942,231.004179 175.475942,227.204451 C175.475942,220.734966 175.475942,214.273438 175.475942,205.902099 C170.530186,210.855672 171.673046,213.895454 171.673046,216.935237 C171.673046,235.571811 171.673046,253.830401 171.673046,272.459017 C171.673046,276.640708 172.429643,281.976243 165.966711,281.976243 C159.109551,281.976243 159.491832,276.640708 159.491832,271.70305 C159.491832,262.189804 159.491832,252.688493 159.491832,242.797263 C159.491832,240.517426 160.63071,235.953773 156.827814,235.953773 C151.88604,235.953773 153.785497,240.517426 153.785497,243.179225 C153.407198,253.452418 153.785497,263.331712 153.785497,273.222942 C153.785497,278.168557 152.264338,282.354226 146.928337,281.976243 C140.843704,281.976243 141.225984,277.018691 141.225984,273.222942 C141.225984,252.688493 141.225984,232.528049 141.225984,211.993601 C141.604283,200.586458 135.886001,205.142153 129.423069,195.258881 C125.237892,188.411412 119.913838,180.044052 114.960118,174.34247 C118.380733,185.753592 121.805331,197.164713 125.237892,208.189894 C127.901911,218.455129 126.759051,220.353003 116.098995,220.353003 C110.396642,219.97502 109.632081,222.262815 109.632081,227.204451 C109.632081,241.659334 109.632081,256.110238 109.632081,270.561142 C109.632081,275.880762 109.632081,281.976243 102.774922,281.976243 C96.3119895,281.976243 96.690288,275.880762 96.690288,270.943105 C96.690288,256.870184 96.690288,242.41928 96.690288,228.346359 C96.690288,225.688538 98.5937271,220.734966 93.6360249,220.734966 C88.3119703,220.734966 90.593708,225.688538 90.593708,227.968375 C90.593708,242.797263 90.593708,257.252146 90.593708,272.459017 C90.593708,276.640708 89.8331288,280.826377 85.2696534,281.594281 C79.1850197,282.736189 77.6638612,278.168557 77.6638612,273.222942 C77.6638612,258.390075 77.2696343,243.179225 77.6638612,228.346359 C77.6638612,222.262815 76.1307565,219.97502 69.6638421,220.353003 C60.9072258,220.734966 59.3860674,218.073166 61.6678051,209.709785 C65.1003668,198.302642 68.5249643,186.891521 71.9455798,175.098437 C71.5672812,174.720453 71.1889826,174.720453 70.806702,174.34247" id="Fill-143" fill="#6B6C67"></path>
            <path d="M0,99.1077093 L0,99.1077093 C2.27211038,99.1077093 4.16025786,98.3504865 6.06423886,97.9678897 C14.0007917,96.4375025 21.5771319,96.8200993 29.1336802,99.1077093 C34.0618638,100.630126 34.0618638,100.630126 34.8179145,95.6762943 C35.9381362,82.3451872 39.3542185,69.7792736 44.6465732,57.5879861 C49.5747568,44.631505 56.755259,33.2014257 66.9757973,24.0629418 C68.1078941,22.9191368 69.6199955,22.1499578 70,20.6275414 C68.8639448,19.4877218 67.731848,20.24893 66.5997512,20.24893 C33.6699842,27.4903715 6.06423886,57.5879861 0.756050667,91.1010743 C0.756050667,91.4836711 0.380004524,92.2448793 0,93.0060875 C0,94.9150861 0,97.2066815 0,99.1077093" id="Fill-144" fill="#6B6C67"></path>
            <path d="M93.6937472,0 L93.6937472,0 C97.8590028,3.4220696 93.6937472,12.5542204 95.9667867,17.1183063 C97.101323,19.776379 101.270546,19.0163612 103.539618,20.1543983 C111.889964,24.344444 118.332226,30.8065847 123.271029,38.0367015 C134.632259,54.0090124 140.328742,72.2693349 143.359462,91.2777378 C143.736318,93.9397896 144.497965,96.6058206 144.874821,99.2718516 C145.255645,101.551905 144.874821,102.693921 142.220959,101.551905 C128.193964,96.6058206 113.786147,93.9397896 98.997506,92.8017525 C86.862728,91.6597363 75.1048065,93.5617703 63.3627526,95.8458028 C56.15091,96.9878191 49.3317916,98.8938322 42.5007724,101.551905 C39.4700531,102.315902 38.7123732,101.173886 39.0892297,98.5158129 C39.4700531,92.8017525 40.6045893,87.0996296 42.119949,81.3935275 C45.5275248,64.6532405 51.2279746,49.0629281 61.8473929,35.7486899 C67.1511517,28.9085298 73.2086235,22.4344516 81.5589692,19.3943805 C88.3780877,17.1183063 88.3780877,17.1183063 88.3780877,9.51017016 C88.3780877,6.08412141 87.2435514,2.66205182 90.2703038,0 C91.4207077,0 92.5433433,0 93.6937472,0" id="Fill-145" fill="#71C4E3"></path>
            <path d="M185,99.1077093 C182.73172,99.1077093 180.843465,98.3504865 178.951253,97.9678897 C170.998417,96.4375025 163.441441,96.8200993 155.868631,99.1077093 C150.952044,100.630126 150.952044,100.630126 150.195951,95.6762943 C148.683764,82.3451872 145.647515,69.7792736 140.350902,57.5879861 C135.046372,44.631505 128.241531,33.2014257 118.024374,24.0629418 C116.888254,22.9191368 115.380026,22.1499578 115,20.6275414 C116.132161,19.4877218 117.26828,20.24893 118.400441,20.24893 C151.33207,27.4903715 178.951253,57.5879861 184.243907,91.1010743 C184.243907,91.4836711 184.619974,92.2448793 185,93.0060875 C185,94.9150861 185,97.2066815 185,99.1077093" id="Fill-146" fill="#6B6C67"></path>
        </g>
    </g>
</svg>