<?xml version="1.0" encoding="UTF-8"?>
<svg width="48px" height="56px" viewBox="0 0 48 56" version="1.1" xmlns="http://www.w3.org/2000/svg" xmlns:xlink="http://www.w3.org/1999/xlink">
    <!-- Generator: sketchtool 52.2 (67145) - http://www.bohemiancoding.com/sketch -->
    <title>9E5A1ED0-B546-42D3-9C51-E2A96536B3FB</title>
    <desc>Created with sketchtool.</desc>
    <g id="desktop" stroke="none" stroke-width="1" fill="none" fill-rule="evenodd">
        <g id="About" transform="translate(-732.000000, -1649.000000)" fill="#FFFFFF" fill-rule="nonzero">
            <g id="Group-5" transform="translate(732.000000, 1610.000000)">
                <g id="head" transform="translate(0.000000, 39.000000)">
                    <path d="M39.9865507,35.0532174 C40.7517681,35.0532174 41.3778551,35.6793043 41.3778551,36.4445217 L41.3778551,48.803942 C41.3778551,50.2764058 40.2416232,51.6329275 38.7923478,51.888 L17.7836522,55.6097391 C17.6213333,55.6445217 17.4590145,55.6561159 17.2966957,55.6561159 C16.6937971,55.6561159 16.114087,55.4590145 15.6503188,55.088 C15.1169855,54.6590145 14.7807536,54.0213333 14.7227826,53.314087 C14.7111884,53.2561159 14.7111884,53.1981449 14.7111884,53.1401739 L14.7111884,48.8735072 L10.4793043,49.4995942 C10.4097391,49.5111884 10.3401739,49.5111884 10.2706087,49.5111884 C7.16336232,49.5111884 4.63582609,46.9836522 4.63582609,43.8764058 L4.63582609,37.8010435 L4.09089855,37.8010435 C2.52568116,37.8010435 1.23872464,37.1749565 0.577855072,36.0735072 C-0.0946086957,34.972058 -0.059826087,33.545971 0.670608696,32.1546667 L4.78655072,24.2937971 C5.14597101,23.6097391 5.98075362,23.3430725 6.66481159,23.7024928 C7.34886957,24.061913 7.61553623,24.8966957 7.25611594,25.5807536 L3.14017391,33.4416232 C2.87350725,33.9285797 2.80394203,34.3807536 2.95466667,34.6242319 C3.0937971,34.8677101 3.52278261,35.0184348 4.07930435,35.0184348 L6.01553623,35.0184348 C6.78075362,35.0184348 7.40684058,35.6445217 7.40684058,36.4097391 L7.40684058,43.8764058 C7.40684058,45.4184348 8.63582609,46.6822029 10.1662609,46.7285797 L15.8822029,45.8822029 C16.288,45.8242319 16.6937971,45.9401739 16.9952464,46.2068406 C17.3082899,46.4735072 17.4822029,46.8561159 17.4822029,47.261913 L17.4937971,52.8387246 L38.3053913,49.1517681 C38.4329275,49.1285797 38.5952464,48.9314783 38.5952464,48.803942 L38.5952464,36.4445217 C38.5952464,35.6793043 39.2213333,35.0532174 39.9865507,35.0532174 Z M8.87930435,11.1227826 C8.25321739,10.6822029 8.10249275,9.81263768 8.54307246,9.18655072 C8.98365217,8.56046377 9.85321739,8.40973913 10.4793043,8.85031884 C11.1053913,9.29089855 11.2561159,10.1604638 10.8155362,10.7865507 C10.5488696,11.1691594 10.1198841,11.3778551 9.67930435,11.3778551 C9.40104348,11.3778551 9.12278261,11.2966957 8.87930435,11.1227826 Z M36.7633623,5.9053913 C36.1256812,5.4764058 35.9517681,4.61843478 36.3807536,3.98075362 C36.8097391,3.34307246 37.6793043,3.16915942 38.3169855,3.59814493 C38.9546667,4.01553623 39.1285797,4.88510145 38.6995942,5.52278261 C38.4329275,5.91698551 37.9923478,6.13727536 37.5401739,6.13727536 C37.2735072,6.13727536 36.9952464,6.06771014 36.7633623,5.9053913 Z M5.96915942,21.0822029 C5.20394203,21.0010435 4.64742029,20.3285797 4.7053913,19.5633623 C4.77495652,18.7981449 5.45901449,18.2416232 6.22423188,18.3111884 C6.98944928,18.3807536 7.54597101,19.0648116 7.4764058,19.830029 C7.41843478,20.5488696 6.80394203,21.0937971 6.09669565,21.0937971 C6.06191304,21.0937971 6.01553623,21.0822029 5.96915942,21.0822029 Z M13.203942,7.54017391 C12.8097391,7.54017391 12.4155362,7.37785507 12.1372754,7.04162319 C11.6503188,6.45031884 11.7198841,5.58075362 12.3111884,5.0822029 C12.9024928,4.59524638 13.772058,4.66481159 14.2706087,5.25611594 C14.7575652,5.84742029 14.688,6.71698551 14.0966957,7.21553623 C13.8416232,7.43582609 13.5169855,7.54017391 13.203942,7.54017391 Z M6.76915942,15.9111884 C6.05031884,15.6445217 5.69089855,14.8445217 5.95756522,14.1256812 C6.22423188,13.4068406 7.02423188,13.0358261 7.74307246,13.3024928 C8.46191304,13.5691594 8.83292754,14.3691594 8.56626087,15.088 C8.35756522,15.6445217 7.82423188,15.9923478 7.25611594,15.9923478 C7.0937971,15.9923478 6.93147826,15.9691594 6.76915942,15.9111884 Z M45.9923478,26.4155362 C46.7227826,26.6590145 47.1285797,27.4358261 46.8966957,28.1778551 C46.7111884,28.7575652 46.1662609,29.1401739 45.5749565,29.1401739 C45.4358261,29.1401739 45.2851014,29.1169855 45.145971,29.0706087 C44.403942,28.8387246 44.0097391,28.0503188 44.2416232,27.3198841 C44.4735072,26.5778551 45.261913,26.1836522 45.9923478,26.4155362 Z M46.5836522,21.2213333 C47.3488696,21.2677101 47.9401739,21.9169855 47.9053913,22.6822029 C47.8706087,23.4242319 47.2561159,24.003942 46.514087,24.003942 C46.4908986,24.003942 46.4677101,24.003942 46.4445217,24.003942 C45.6677101,23.9691594 45.088,23.3082899 45.1227826,22.5430725 C45.1575652,21.7662609 45.8184348,21.1865507 46.5836522,21.2213333 Z M44.0908986,31.2851014 C44.7401739,31.7024928 44.9256812,32.5604638 44.5082899,33.2097391 C44.2416232,33.6155362 43.7894493,33.8474203 43.3372754,33.8474203 C43.0822029,33.8474203 42.8155362,33.7778551 42.5836522,33.6271304 C41.9343768,33.2097391 41.7488696,32.3517681 42.1662609,31.7024928 C42.5836522,31.0532174 43.4416232,30.8677101 44.0908986,31.2851014 Z M44.3923478,13.8822029 C43.8822029,13.8822029 43.3952464,13.603942 43.1517681,13.1169855 C42.803942,12.4329275 43.0822029,11.5981449 43.7662609,11.2503188 C44.4503188,10.9024928 45.2851014,11.1807536 45.6329275,11.8648116 C45.9807536,12.5488696 45.7024928,13.3836522 45.0184348,13.7314783 C44.8213333,13.8358261 44.6010435,13.8822029 44.3923478,13.8822029 Z M44.7517681,17.6966957 C44.5894493,16.9430725 45.0764058,16.2126377 45.830029,16.0503188 C46.5836522,15.888 47.314087,16.3749565 47.4764058,17.1285797 C47.6387246,17.8822029 47.1517681,18.6126377 46.3981449,18.7749565 C46.2937971,18.7981449 46.2010435,18.8097391 46.1082899,18.8097391 C45.4706087,18.8097391 44.8908986,18.3575652 44.7517681,17.6966957 Z M42.514087,7.25031884 C43.0242319,7.83002899 42.9662609,8.71118841 42.3981449,9.20973913 C42.1430725,9.44162319 41.8068406,9.55756522 41.4822029,9.55756522 C41.0995942,9.55756522 40.7169855,9.40684058 40.4387246,9.0937971 C39.9285797,8.52568116 39.9865507,7.64452174 40.5546667,7.13437681 C41.1227826,6.62423188 42.003942,6.6706087 42.514087,7.25031884 Z M32.4155362,3.74886957 C31.6966957,3.5053913 31.3024928,2.7053913 31.545971,1.99814493 C31.7894493,1.26771014 32.5778551,0.885101449 33.3082899,1.12857971 C34.0387246,1.37205797 34.4213333,2.16046377 34.1778551,2.89089855 C33.9807536,3.4706087 33.4474203,3.83002899 32.8677101,3.83002899 C32.7169855,3.83002899 32.5662609,3.79524638 32.4155362,3.74886957 Z M17.5981449,4.72278261 C17.0764058,4.72278261 16.5778551,4.43292754 16.3343768,3.93437681 C15.9981449,3.23872464 16.2995942,2.40394203 16.9952464,2.07930435 C17.6908986,1.74307246 18.5256812,2.04452174 18.8503188,2.74017391 C19.1865507,3.43582609 18.8851014,4.2706087 18.1894493,4.59524638 C17.9923478,4.6764058 17.7952464,4.72278261 17.5981449,4.72278261 Z M27.661913,2.78655072 C26.8966957,2.74017391 26.3169855,2.06771014 26.3749565,1.29089855 C26.4213333,0.525681159 27.0937971,-0.0540289855 27.8590145,0.00394202899 C28.6242319,0.0619130435 29.203942,0.722782609 29.145971,1.488 C29.088,2.23002899 28.4735072,2.78655072 27.7546667,2.78655072 C27.7314783,2.78655072 27.6966957,2.78655072 27.661913,2.78655072 Z M22.5488696,3.0995942 C21.8995942,3.0995942 21.3082899,2.63582609 21.1923478,1.96336232 C21.0532174,1.20973913 21.5517681,0.479304348 22.3053913,0.340173913 C23.0590145,0.201043478 23.7894493,0.699594203 23.9285797,1.45321739 C24.0677101,2.20684058 23.5691594,2.93727536 22.8155362,3.0764058 C22.7227826,3.088 22.630029,3.0995942 22.5488696,3.0995942 Z" id="Combined-Shape"></path>
                </g>
            </g>
        </g>
    </g>
</svg>