<?xml version="1.0" encoding="UTF-8"?>
<svg width="48px" height="48px" viewBox="0 0 48 48" version="1.1" xmlns="http://www.w3.org/2000/svg" xmlns:xlink="http://www.w3.org/1999/xlink">
    <!-- Generator: sketchtool 52.2 (67145) - http://www.bohemiancoding.com/sketch -->
    <title>47656863-9EB0-47A7-B1D5-1255211BCBC1</title>
    <desc>Created with sketchtool.</desc>
    <g id="desktop" stroke="none" stroke-width="1" fill="none" fill-rule="evenodd">
        <g id="About" transform="translate(-732.000000, -1851.000000)" fill="#FFFFFF" fill-rule="nonzero">
            <g id="Group-6" transform="translate(732.000000, 1812.000000)">
                <g id="idea" transform="translate(0.000000, 39.000000)">
                    <path d="M24,0 C32.2503662,0 38.9626464,6.71228025 38.9626464,14.9626464 C38.9626464,19.7109375 36.723999,24.1417237 32.9377442,26.9630127 L32.9377442,28.2121583 C33.8602295,29.0229492 34.4439698,30.2098388 34.4439698,31.5311279 C34.4439698,32.6945801 33.991333,33.7536621 33.2537842,34.5435791 C33.991333,35.3334961 34.4439698,36.3929443 34.4439698,37.5560302 C34.4439698,39.5383301 33.1322021,41.2192383 31.331543,41.7777099 C30.7521973,45.302124 27.6859131,48 24,48 C20.3140869,48 17.248169,45.302124 16.6688232,41.7777099 C14.8677979,41.2196045 13.5563964,39.5383301 13.5563964,37.5563964 C13.5563964,36.3929443 14.0090332,35.3338623 14.746582,34.5439453 C14.0090332,33.7540283 13.5563964,32.6945801 13.5563964,31.5311279 C13.5563964,30.2098388 14.1401367,29.0229492 15.0622558,28.2125244 L15.0622558,26.9630127 C11.276001,24.1417237 9.03735356,19.7109375 9.03735356,14.9626464 C9.03735356,6.71228025 15.7496338,0 24,0 Z M30.0252685,29.9249268 L17.9750977,29.9249268 C17.0892334,29.9249268 16.3685302,30.6456299 16.3685302,31.5311279 C16.3685302,32.4169922 17.0892334,33.1376953 17.9750977,33.1376953 L30.0252685,33.1376953 C30.9107666,33.1376953 31.6314698,32.4169922 31.6314698,31.5311279 C31.6314698,30.6456299 30.9107666,29.9249268 30.0252685,29.9249268 Z M24,45.1875 C26.0566406,45.1875 27.803833,43.8365479 28.4000244,41.9750977 L19.5999756,41.9750977 C20.1965332,43.8361817 21.9433594,45.1875 24,45.1875 Z M30.0252685,39.1625977 C30.9107666,39.1625977 31.6314698,38.4418945 31.6314698,37.5563964 C31.6314698,36.6705323 30.9107666,35.9501953 30.0252685,35.9501953 L17.9750977,35.9501953 C17.0892334,35.9501953 16.3685302,36.6705323 16.3685302,37.5563964 C16.3685302,38.4418945 17.0892334,39.1625977 17.9750977,39.1625977 L30.0252685,39.1625977 Z M30.7492676,25.0667724 C34.1308594,22.8028565 36.1501464,19.0257568 36.1501464,14.9626464 C36.1501464,8.26281741 30.6994629,2.8125 24,2.8125 C17.3005371,2.8125 11.8498536,8.26281741 11.8498536,14.9626464 C11.8498536,19.0257568 13.8691406,22.8028565 17.2507324,25.0667724 C17.6407471,25.3278808 17.8747558,25.7662354 17.8747558,26.2353516 L17.8747558,27.1149902 C17.908081,27.1142578 17.9414062,27.112793 17.9750977,27.112793 L19.5812989,27.112793 L19.5812989,21.5701904 L17.5620117,19.5509033 C17.0126953,19.0015869 17.0126953,18.1113281 17.5620117,17.5620117 C18.1113281,17.0130615 19.0015869,17.0130615 19.5505371,17.5620117 L21.9818115,19.9932862 C22.2454834,20.256958 22.3937989,20.6147461 22.3937989,20.9875489 L22.3937989,27.1124268 L25.6062011,27.1124268 L25.6062011,20.9875489 C25.6062011,20.6143799 25.7545166,20.256958 26.0181885,19.9932862 L28.4494629,17.5620117 C28.9984131,17.0126953 29.8890381,17.0126953 30.4379883,17.5620117 C30.9873047,18.1113281 30.9873047,19.0015869 30.4379883,19.5509033 L28.4187011,21.5701904 L28.4187011,27.1124268 L30.0252685,27.1124268 C30.0585938,27.1124268 30.091919,27.1142578 30.1252442,27.1149902 L30.1252442,26.2353516 C30.1252442,25.7662354 30.3592529,25.3278808 30.7492676,25.0667724 Z M5.82495112,14.9626464 C5.82495112,15.7390136 5.19543459,16.3688964 4.41870112,16.3688964 L1.40625,16.3688964 C0.629516625,16.3688964 -1.78523862e-13,15.7390136 -1.78523862e-13,14.9626464 C-1.78523862e-13,14.1859131 0.629516625,13.5563964 1.40625,13.5563964 L4.41870112,13.5563964 C5.19543459,13.5563964 5.82495112,14.1859131 5.82495112,14.9626464 Z M46.59375,13.5563964 C47.3704834,13.5563964 48,14.1859131 48,14.9626464 C48,15.7390136 47.3704834,16.3688964 46.59375,16.3688964 L43.5812989,16.3688964 C42.8049317,16.3688964 42.1750489,15.7390136 42.1750489,14.9626464 C42.1750489,14.1859131 42.8049317,13.5563964 43.5812989,13.5563964 L46.59375,13.5563964 Z M6.33874509,23.5352783 C7.01147456,23.1470948 7.87170413,23.3774414 8.25988772,24.0501709 C8.64807131,24.7229004 8.41772456,25.5827636 7.74499509,25.9713135 L5.13610838,27.4771729 C4.91491697,27.6053467 4.67285156,27.6657714 4.43444822,27.6657714 C3.94848638,27.6657714 3.47570803,27.4138183 3.21533203,26.9626464 C2.82714844,26.289917 3.05749509,25.4300537 3.72985838,25.0415039 L6.33874509,23.5352783 Z M40.9592286,6.57861328 C40.4732666,6.57861328 40.0004883,6.32629397 39.7401123,5.87512209 C39.3515625,5.20275881 39.5822754,4.34252925 40.2546386,3.95434575 L42.8638916,2.44812009 C43.5362549,2.05957031 44.3961182,2.28991697 44.784668,2.96264644 C45.1732178,3.635376 44.9425049,4.49523928 44.2701416,4.88342287 L41.6608886,6.39001462 C41.439331,6.51782231 41.1976318,6.57861328 40.9592286,6.57861328 Z M44.2697754,25.0415039 C44.9425049,25.4296875 45.1732177,26.289917 44.784668,26.9622802 C44.524292,27.4134521 44.0515136,27.6657714 43.5655518,27.6657714 C43.3267822,27.6657714 43.085083,27.6049805 42.8638916,27.4771729 L40.2546386,25.9713135 C39.5822754,25.5831299 39.3515625,24.7229004 39.7397461,24.0505371 C40.1279297,23.3778076 40.9881592,23.1474609 41.6608886,23.5356445 L44.2697754,25.0415039 Z M7.74536138,3.95397947 C8.41772456,4.34252925 8.6484375,5.20239263 8.26025391,5.87512209 C7.99951172,6.32629397 7.52709956,6.57861328 7.04077144,6.57861328 C6.80236819,6.57861328 6.56066897,6.51782231 6.33911138,6.39001463 L3.73022456,4.88378906 C3.05786138,4.49560547 2.82714844,3.63574219 3.21569822,2.96301272 C3.60388181,2.29028325 4.46374509,2.05957031 5.13647456,2.44812009 L7.74536138,3.95397947 Z" id="Combined-Shape"></path>
                </g>
            </g>
        </g>
    </g>
</svg>