<svg width="24" height="24" viewBox="0 0 24 24" fill="none" xmlns="http://www.w3.org/2000/svg">
<path d="M3.57087 20.1618V9.70535H7.05134V20.1618H3.57087ZM7.27734 6.48102C7.27734 7.47544 6.524 8.28905 5.30357 8.28905H5.2885C4.11328 8.28905 3.35993 7.47544 3.35993 6.48102C3.35993 5.45647 4.14342 4.67298 5.33371 4.67298C6.524 4.67298 7.26228 5.45647 7.27734 6.48102ZM16.0915 20.1618V14.572C16.0915 13.1557 15.5943 12.2065 14.3438 12.2065C13.3795 12.2065 12.8069 12.8543 12.5508 13.4721C12.4604 13.6981 12.4453 14.0145 12.4453 14.3158V20.1618H8.96484C9.01004 10.6847 8.96484 9.70535 8.96484 9.70535H12.4453V11.2271H12.4152C12.8672 10.5039 13.6959 9.46428 15.5642 9.46428C17.8544 9.46428 19.572 10.9559 19.572 14.1652V20.1618H16.0915ZM23.1429 5.12499C23.1429 2.72934 21.1992 0.785706 18.8036 0.785706H4.33929C1.94364 0.785706 0 2.72934 0 5.12499V19.5893C0 21.9849 1.94364 23.9286 4.33929 23.9286H18.8036C21.1992 23.9286 23.1429 21.9849 23.1429 19.5893V5.12499Z" fill="white"/>
</svg>
