<svg width="24" height="24" viewBox="0 0 24 24" fill="none" xmlns="http://www.w3.org/2000/svg">
<path id="&#238;&#128;&#159;" fill-rule="evenodd" clip-rule="evenodd" d="M24 11.1914C24 11.1523 23.9922 11.1172 23.9766 11.0859C23.9609 10.9609 23.9297 10.8359 23.8828 10.7109C23.8359 10.5859 23.7734 10.4766 23.6953 10.3828L23.6719 10.3594C23.6406 10.3125 23.6016 10.2656 23.5547 10.2188L23.4141 10.0781L19.5 6.14062V3.72656C19.5 3.52344 19.4258 3.34766 19.2773 3.19922C19.1289 3.05078 18.9531 2.97656 18.75 2.97656H16.3828L13.6406 0.632812C13.2187 0.210935 12.6875 0 12.0469 0C11.4062 0 10.875 0.210935 10.4531 0.632812L7.73438 2.97656H5.25C5.04687 2.97656 4.87109 3.05078 4.72266 3.19922C4.57422 3.34766 4.5 3.52344 4.5 3.72656V6.1875L0.679688 10.0078C0.476561 10.1484 0.312501 10.3281 0.1875 10.5469C0.0624994 10.7656 0 11.0078 0 11.2734V22.5C0 22.9219 0.148436 23.2773 0.445312 23.5664C0.742189 23.8555 1.09375 24 1.5 24H22.5C22.9063 24 23.2578 23.8555 23.5547 23.5664C23.8516 23.2773 24 22.9219 24 22.5V11.1914ZM1.5 12.7734L6.30469 17.0156L1.5 21.4688V12.7734ZM7.75781 17.7188L2.57812 22.5H21.4922L12.4922 14.3438C12.4297 14.2969 12.3477 14.2539 12.2461 14.2148C12.1445 14.1758 12.0391 14.1562 11.9297 14.1562C11.8203 14.1562 11.7148 14.1758 11.6133 14.2148C11.5117 14.2539 11.4219 14.3047 11.3438 14.3672L8.10938 17.3672C8.09375 17.3984 8.07812 17.4258 8.0625 17.4492C8.04688 17.4727 8.03125 17.4922 8.01562 17.5078C7.96875 17.5547 7.92578 17.5938 7.88672 17.625C7.84766 17.6562 7.80469 17.6875 7.75781 17.7188ZM22.5 21.375L17.7656 17.1094L22.5 12.9141V21.375ZM21.0469 9.77344L19.5 8.22656V13.5703L22.3125 11.0625L21.0234 9.77344H21.0469ZM10.0078 2.97656L11.5078 1.6875C11.5859 1.625 11.6719 1.57422 11.7656 1.53516C11.8594 1.49609 11.9531 1.47656 12.0469 1.47656C12.1406 1.47656 12.2344 1.49609 12.3281 1.53516C12.4219 1.57422 12.5078 1.625 12.5859 1.6875L14.0859 2.97656H10.0078ZM18 4.47656H6V14.7422L7.40625 15.9844L10.3828 13.2188C10.8516 12.8437 11.3711 12.6602 11.9414 12.668C12.5117 12.6758 13.0156 12.8516 13.4531 13.1953L16.6641 16.1016L18 14.9062V4.47656ZM2.39062 10.3828H2.4375L4.5 8.32031V13.4062L1.75781 10.9922L2.39062 10.3828Z" fill="white"/>
</svg>
