<?xml version="1.0" encoding="UTF-8"?>
<svg width="74px" height="96px" viewBox="0 0 74 96" version="1.1" xmlns="http://www.w3.org/2000/svg" xmlns:xlink="http://www.w3.org/1999/xlink">
    <title>icon5</title>
    <g id="Page-1" stroke="none" stroke-width="1" fill="none" fill-rule="evenodd">
        <g id="icon5">
            <path d="M73.295,36.648 C73.295,56.888 56.887,73.296 36.648,73.296 C16.407,73.296 0,56.888 0,36.648 C0,16.408 16.407,0 36.648,0 C56.887,0 73.295,16.408 73.295,36.648" id="Fill-1" fill="#3379AA"></path>
            <path d="M64.5499,36.648 C64.5499,52.058 52.0579,64.551 36.6479,64.551 C21.2369,64.551 8.7449,52.058 8.7449,36.648 C8.7449,21.238 21.2369,8.745 36.6479,8.745 C52.0579,8.745 64.5499,21.238 64.5499,36.648" id="Fill-2" fill="#FFFFFF"></path>
            <path d="M40.7335,81.5577 C40.7335,83.9317 38.8095,85.8557 36.4345,85.8557 C34.0615,85.8557 32.1365,83.9317 32.1365,81.5577 C32.1365,79.1837 34.0615,77.2597 36.4345,77.2597 C38.8095,77.2597 40.7335,79.1837 40.7335,81.5577" id="Fill-3" fill="#3379AA"></path>
            <path d="M39.3068,92.691 C39.3068,94.277 38.0218,95.562 36.4358,95.562 C34.8498,95.562 33.5648,94.277 33.5648,92.691 C33.5648,91.105 34.8498,89.82 36.4358,89.82 C38.0218,89.82 39.3068,91.105 39.3068,92.691" id="Fill-4" fill="#3379AA"></path>
            <path d="M36.6476,51.295 C28.5716,51.295 22.0006,44.724 22.0006,36.648 C22.0006,31.869 24.3456,27.379 28.2756,24.638 L28.4146,24.541 L27.8686,23.704 L30.3926,23.565 L29.2506,25.821 L28.7126,24.999 L28.5646,25.103 C24.7976,27.743 22.5496,32.059 22.5496,36.648 C22.5496,44.422 28.8746,50.747 36.6476,50.747 C36.7986,50.747 36.9216,50.87 36.9216,51.021 C36.9216,51.172 36.7986,51.295 36.6476,51.295 M36.6476,50.397 C29.0666,50.397 22.8996,44.229 22.8996,36.648 C22.8996,32.233 25.0346,28.078 28.6186,25.494 L29.2896,26.521 L30.9786,23.182 L27.2436,23.388 L27.9356,24.449 C23.9976,27.264 21.6506,31.811 21.6506,36.648 C21.6506,44.917 28.3776,51.645 36.6476,51.645 C36.9916,51.645 37.2716,51.365 37.2716,51.021 C37.2716,50.677 36.9916,50.397 36.6476,50.397" id="Fill-5" fill="#3379AA"></path>
            <path d="M51.4698,36.648 C51.4698,28.475 44.8208,21.826 36.6478,21.826 C36.3998,21.826 36.1988,22.027 36.1988,22.275 C36.1988,22.524 36.3998,22.725 36.6478,22.725 C44.3248,22.725 50.5708,28.971 50.5708,36.648 C50.5708,41.214 48.3558,45.44 44.6288,48.05 L44.0258,47.126 L42.6098,49.923 L45.7398,49.751 L45.1198,48.802 C49.1018,46.025 51.4698,41.519 51.4698,36.648" id="Fill-6" fill="#3379AA"></path>
            <path d="M36.6476,50.5719 C28.9696,50.5719 22.7246,44.3259 22.7246,36.6479 C22.7246,32.0829 24.9396,27.8579 28.6656,25.2459 L29.2696,26.1709 L30.6856,23.3729 L27.5556,23.5459 L28.1746,24.4939 C24.1936,27.2719 21.8256,31.7779 21.8256,36.6479 C21.8256,44.8209 28.4746,51.4699 36.6476,51.4699 C36.8966,51.4699 37.0966,51.2689 37.0966,51.0209 C37.0966,50.7729 36.8966,50.5719 36.6476,50.5719" id="Fill-7" fill="#3379AA"></path>
            <path d="M51.6446,36.648 C51.6446,28.379 44.9166,21.651 36.6476,21.651 C36.3036,21.651 36.0236,21.931 36.0236,22.275 C36.0236,22.62 36.3036,22.9 36.6476,22.9 C44.2286,22.9 50.3956,29.067 50.3956,36.648 C50.3956,41.065 48.2606,45.22 44.6756,47.802 L44.0056,46.776 L42.3166,50.114 L46.0516,49.909 L45.3586,48.848 C49.2976,46.033 51.6446,41.486 51.6446,36.648" id="Fill-8" fill="#3379AA"></path>
        </g>
    </g>
</svg>