<?xml version="1.0" encoding="UTF-8"?>
<svg width="74px" height="96px" viewBox="0 0 74 96" version="1.1" xmlns="http://www.w3.org/2000/svg" xmlns:xlink="http://www.w3.org/1999/xlink">
    <title>icon2</title>
    <g id="Page-1" stroke="none" stroke-width="1" fill="none" fill-rule="evenodd">
        <g id="icon2">
            <path d="M73.295,36.648 C73.295,56.888 56.887,73.296 36.647,73.296 C16.407,73.296 0,56.888 0,36.648 C0,16.408 16.407,0 36.647,0 C56.887,0 73.295,16.408 73.295,36.648" id="Fill-1" fill="#3379AA"></path>
            <path d="M64.5499,36.648 C64.5499,52.058 52.0579,64.551 36.6469,64.551 C21.2369,64.551 8.7449,52.058 8.7449,36.648 C8.7449,21.238 21.2369,8.745 36.6469,8.745 C52.0579,8.745 64.5499,21.238 64.5499,36.648" id="Fill-2" fill="#FFFFFF"></path>
            <path d="M40.8926,81.5577 C40.8926,83.9317 38.9686,85.8557 36.5936,85.8557 C34.2196,85.8557 32.2956,83.9317 32.2956,81.5577 C32.2956,79.1837 34.2196,77.2597 36.5936,77.2597 C38.9686,77.2597 40.8926,79.1837 40.8926,81.5577" id="Fill-3" fill="#3379AA"></path>
            <path d="M39.4654,92.691 C39.4654,94.277 38.1804,95.562 36.5944,95.562 C35.0084,95.562 33.7234,94.277 33.7234,92.691 C33.7234,91.105 35.0084,89.82 36.5944,89.82 C38.1804,89.82 39.4654,91.105 39.4654,92.691" id="Fill-4" fill="#3379AA"></path>
            <path d="M47.1646,21.1954 L42.2416,21.1954 L42.2416,20.6854 C42.2416,19.8454 41.5576,19.1604 40.7166,19.1604 L38.6096,19.1604 C38.3816,18.2854 37.5926,17.6344 36.6466,17.6344 C35.7016,17.6344 34.9126,18.2854 34.6846,19.1604 L32.5776,19.1604 C31.7366,19.1604 31.0526,19.8454 31.0526,20.6854 L31.0526,21.1954 L26.1296,21.1954 C24.7266,21.1954 23.5866,22.3364 23.5866,23.7384 L23.5866,48.6604 C23.5866,50.0614 24.7266,51.2034 26.1296,51.2034 L47.1646,51.2034 C48.5676,51.2034 49.7076,50.0614 49.7076,48.6604 L49.7076,23.7384 C49.7076,22.3364 48.5676,21.1954 47.1646,21.1954 L47.1646,21.1954 Z M36.6466,18.6524 C37.2086,18.6524 37.6646,19.1084 37.6646,19.6694 C37.6646,20.2294 37.2086,20.6854 36.6466,20.6854 C36.0856,20.6854 35.6296,20.2294 35.6296,19.6694 C35.6296,19.1084 36.0856,18.6524 36.6466,18.6524 L36.6466,18.6524 Z M32.0696,20.6854 C32.0696,20.4064 32.2976,20.1774 32.5776,20.1774 L34.6846,20.1774 C34.9126,21.0524 35.7016,21.7034 36.6466,21.7034 C37.5926,21.7034 38.3816,21.0524 38.6096,20.1774 L40.7166,20.1774 C40.9966,20.1774 41.2246,20.4064 41.2246,20.6854 L41.2246,22.7204 C41.2246,23.0014 40.9966,23.2294 40.7166,23.2294 L32.5776,23.2294 C32.2976,23.2294 32.0696,23.0014 32.0696,22.7204 L32.0696,20.6854 Z M48.6906,48.6604 C48.6906,49.5014 48.0056,50.1864 47.1646,50.1864 L26.1296,50.1864 C25.2876,50.1864 24.6036,49.5014 24.6036,48.6604 L24.6036,23.7384 C24.6036,22.8964 25.2876,22.2114 26.1296,22.2114 L31.0526,22.2114 L31.0526,22.7204 C31.0526,23.5614 31.7366,24.2464 32.5776,24.2464 L40.7166,24.2464 C41.5576,24.2464 42.2416,23.5614 42.2416,22.7204 L42.2416,22.2114 L47.1646,22.2114 C48.0056,22.2114 48.6906,22.8964 48.6906,23.7384 L48.6906,48.6604 Z" id="Fill-5" fill="#3379AA"></path>
            <path d="M29.0621,29.2066 C28.0811,29.2066 27.2821,30.0046 27.2821,30.9866 C27.2821,31.9676 28.0811,32.7666 29.0621,32.7666 C30.0441,32.7666 30.8431,31.9676 30.8431,30.9866 C30.8431,30.0046 30.0441,29.2066 29.0621,29.2066 M29.0621,31.7496 C28.6411,31.7496 28.3001,31.4066 28.3001,30.9866 C28.3001,30.5656 28.6411,30.2236 29.0621,30.2236 C29.4831,30.2236 29.8261,30.5656 29.8261,30.9866 C29.8261,31.4066 29.4831,31.7496 29.0621,31.7496" id="Fill-6" fill="#3379AA"></path>
            <path d="M29.0621,34.2921 C28.0811,34.2921 27.2821,35.0911 27.2821,36.0721 C27.2821,37.0541 28.0811,37.8521 29.0621,37.8521 C30.0441,37.8521 30.8431,37.0541 30.8431,36.0721 C30.8431,35.0911 30.0441,34.2921 29.0621,34.2921 M29.0621,36.8351 C28.6411,36.8351 28.3001,36.4931 28.3001,36.0721 C28.3001,35.6521 28.6411,35.3101 29.0621,35.3101 C29.4831,35.3101 29.8261,35.6521 29.8261,36.0721 C29.8261,36.4931 29.4831,36.8351 29.0621,36.8351" id="Fill-7" fill="#3379AA"></path>
            <path d="M29.0621,39.379 C28.0811,39.379 27.2821,40.178 27.2821,41.16 C27.2821,42.141 28.0811,42.94 29.0621,42.94 C30.0441,42.94 30.8431,42.141 30.8431,41.16 C30.8431,40.178 30.0441,39.379 29.0621,39.379 M29.0621,41.922 C28.6411,41.922 28.3001,41.58 28.3001,41.16 C28.3001,40.739 28.6411,40.397 29.0621,40.397 C29.4831,40.397 29.8261,40.739 29.8261,41.16 C29.8261,41.58 29.4831,41.922 29.0621,41.922" id="Fill-8" fill="#3379AA"></path>
            <path d="M29.0621,44.4664 C28.0811,44.4664 27.2821,45.2644 27.2821,46.2464 C27.2821,47.2274 28.0811,48.0264 29.0621,48.0264 C30.0441,48.0264 30.8431,47.2274 30.8431,46.2464 C30.8431,45.2644 30.0441,44.4664 29.0621,44.4664 M29.0621,47.0094 C28.6411,47.0094 28.3001,46.6664 28.3001,46.2464 C28.3001,45.8254 28.6411,45.4834 29.0621,45.4834 C29.4831,45.4834 29.8261,45.8254 29.8261,46.2464 C29.8261,46.6664 29.4831,47.0094 29.0621,47.0094" id="Fill-9" fill="#3379AA"></path>
            <path d="M38.8902,30.4771 L33.0842,30.4771 C32.8032,30.4771 32.5752,30.7041 32.5752,30.9861 C32.5752,31.2671 32.8032,31.4951 33.0842,31.4951 L38.8902,31.4951 C39.1712,31.4951 39.3992,31.2671 39.3992,30.9861 C39.3992,30.7041 39.1712,30.4771 38.8902,30.4771" id="Fill-10" fill="#3379AA"></path>
            <path d="M45.5025,30.4771 L41.7315,30.4771 C41.4495,30.4771 41.2235,30.7041 41.2235,30.9861 C41.2235,31.2671 41.4495,31.4951 41.7315,31.4951 L45.5025,31.4951 C45.7835,31.4951 46.0125,31.2671 46.0125,30.9861 C46.0125,30.7041 45.7835,30.4771 45.5025,30.4771" id="Fill-11" fill="#3379AA"></path>
            <path d="M43.4688,36.0729 C43.4688,35.7919 43.2408,35.5639 42.9598,35.5639 L33.0848,35.5639 C32.8038,35.5639 32.5758,35.7919 32.5758,36.0729 C32.5758,36.3539 32.8038,36.5819 33.0848,36.5819 L42.9598,36.5819 C43.2408,36.5819 43.4688,36.3539 43.4688,36.0729" id="Fill-12" fill="#3379AA"></path>
            <path d="M45.5025,40.6505 L39.1875,40.6505 C38.9075,40.6505 38.6795,40.8785 38.6795,41.1595 C38.6795,41.4405 38.9075,41.6675 39.1875,41.6675 L45.5025,41.6675 C45.7835,41.6675 46.0125,41.4405 46.0125,41.1595 C46.0125,40.8785 45.7835,40.6505 45.5025,40.6505" id="Fill-13" fill="#3379AA"></path>
            <path d="M33.084,40.6505 C32.803,40.6505 32.575,40.8785 32.575,41.1595 C32.575,41.4405 32.803,41.6675 33.084,41.6675 L36.346,41.6675 C36.628,41.6675 36.855,41.4405 36.855,41.1595 C36.855,40.8785 36.628,40.6505 36.346,40.6505 L33.084,40.6505 Z" id="Fill-14" fill="#3379AA"></path>
            <path d="M40.9253,45.7374 L33.0843,45.7374 C32.8033,45.7374 32.5753,45.9644 32.5753,46.2464 C32.5753,46.5274 32.8033,46.7554 33.0843,46.7554 L40.9253,46.7554 C41.2063,46.7554 41.4333,46.5274 41.4333,46.2464 C41.4333,45.9644 41.2063,45.7374 40.9253,45.7374" id="Fill-15" fill="#3379AA"></path>
        </g>
    </g>
</svg>