<?xml version="1.0" encoding="UTF-8"?>
<svg width="297px" height="252px" viewBox="0 0 297 252" version="1.1" xmlns="http://www.w3.org/2000/svg" xmlns:xlink="http://www.w3.org/1999/xlink">
    <title>Group</title>
    <g id="Page-1" stroke="none" stroke-width="1" fill="none" fill-rule="evenodd">
        <g id="Group" transform="translate(-0.000000, 0.000000)">
            <path d="M276.079996,127.001442 L276.079996,127.001442 C278.832784,130.574173 283.176255,133.353426 289.077441,134.940384 L293.025301,136.132679 C295.39072,136.523187 296.96904,138.513116 296.96904,140.901861 L296.96904,144.869254 C296.96904,145.268071 297.356409,152.804042 295.39072,164.324025 C294.603621,169.878376 293.025301,176.637486 290.65164,183.774641 C287.111752,193.707666 281.602056,205.62231 272.931598,217.12983 C263.877894,228.25515 251.663428,239.376316 234.730486,248.511708 L232.356825,249.704003 C231.178236,250.098666 229.208427,250.098666 227.634228,249.704003 L225.66854,248.511708 L225.272929,248.511708 C210.697165,240.564457 199.665409,231.437374 191.38232,221.508503 C179.975559,208.80038 173.6664,194.899961 169.730903,183.774641 C167.369604,176.637486 165.791284,170.277193 164.608574,164.324025 C162.647007,152.804042 163.030254,145.268071 163.030254,144.869254 L163.030254,140.901861 C163.030254,138.907778 164.608574,136.523187 167.369604,136.132679 L170.913612,134.940384 C177.21865,133.353426 181.549758,130.574173 184.302546,127.001442 C189.420753,120.641148 189.420753,113.109332 189.420753,112.693898 L189.420753,108.730658 C189.420753,106.350222 191.007315,103.969785 193.764224,103.570969 L197.6956,102.77749 C198.087089,102.378673 202.809686,101.190532 209.122966,100.397054 C215.419762,99.2089127 223.694609,98 229.999647,98 C236.683812,98 244.56717,99.2089127 250.880449,100.397054 C256.781635,101.190532 261.504232,102.378673 262.291332,102.378673 L262.682821,102.77749 L266.239192,103.570969 C268.99198,103.969785 270.566179,105.951405 270.566179,108.730658 L270.566179,112.693898 C270.566179,113.491531 270.96591,121.044119 276.079996,127.001442" id="Fill-209" fill="#6B6C67"></path>
            <path d="M206,252 L0,252 C0,169.185882 30.9585534,190.196131 92.4811515,154.927596 L92.4811515,140.665164 C81.3684635,133.14226 78.9889529,119.273589 75.413458,105.011158 C73.4367617,105.011158 72.2283192,102.242398 72.2283192,99.4736374 C72.2283192,99.0591523 72.2283192,98.2674858 72.2283192,98.2674858 C71.435149,96.6882977 70.2474701,94.3132982 69.4542999,90.7528714 C68.266621,86.7903941 64.2966173,77.6717225 67.8679595,73.71339 C70.6461315,70.9446297 73.0214893,74.1112957 73.0214893,74.1112957 C68.266621,50.7301926 62.3157683,19.8303303 94.860662,10.7240932 C94.860662,-9.49034388 171.071443,-0.371672236 180.207435,31.7136174 C184.173285,43.998955 179.015603,73.71339 179.015603,73.71339 C180.207435,71.3425354 181.399266,70.9446297 183.380115,72.130057 C187.345966,75.296723 182.985607,87.1882998 181.789622,90.7528714 L181.789622,91.1424874 L177.827924,91.9382987 L177.827924,97.0986379 C177.827924,97.4799642 177.827924,100.659065 176.623634,104.617397 C176.245736,105.011158 176.245736,105.011158 175.834617,105.011158 C175.037294,107.390302 174.655243,110.159063 173.845462,112.546497 C170.278273,120.069401 163.139741,127.9985 149.248881,131.165166 L144.871911,132.350594 L144.477402,137.100592 C144.477402,137.896404 143.684232,158.110841 152.421562,183.456603 C159.560094,204.060656 174.655243,231.400092 206,252" id="Fill-210" fill="#6B6C67"></path>
            <path d="M285.967363,145.753689 C277.261149,143.380883 271.328669,139.027983 267.370923,134.290639 C259.848721,125.19626 259.45129,114.142457 259.45129,113.357034 C258.267278,112.943653 253.916241,112.158229 248.385332,110.97596 C242.440433,110.182269 234.914091,109 228.989891,109 C223.450702,109 215.92436,110.182269 209.996021,110.97596 C204.046982,112.158229 199.306794,113.357034 198.909363,113.357034 C198.909363,114.142457 198.516072,125.19626 190.989731,134.290639 C187.040264,139.027983 181.107784,143.380883 172,145.753689 C172,146.543246 172,152.855571 173.593862,162.739506 L173.593862,163.136352 C174.769594,168.270542 175.966026,174.198423 178.33819,180.915861 C181.898506,190.795663 187.822706,203.031735 197.725351,214.904032 C205.632564,223.589163 215.53107,231.893984 228.989891,239 C244.415166,231.100293 255.895114,220.827779 263.814747,210.546998 C271.72196,200.282752 276.859578,189.613394 280.039023,180.915861 C282.411187,174.198423 283.595199,167.869562 284.38592,162.739506 C286.364793,152.855571 285.967363,146.543246 285.967363,145.753689" id="Fill-211" fill="#FFFFFE"></path>
            <polyline id="Fill-212" fill="#71C4E3" points="221.844034 206 221.844034 182.14553 198 182.14553 198 165.85447 221.844034 165.85447 221.844034 142 237.765012 142 237.765012 165.85447 262 165.85447 262 182.14553 237.765012 182.14553 237.765012 206 221.844034 206"></polyline>
        </g>
    </g>
</svg>