<?xml version="1.0" encoding="UTF-8"?>
<svg width="48px" height="48px" viewBox="0 0 48 48" version="1.1" xmlns="http://www.w3.org/2000/svg" xmlns:xlink="http://www.w3.org/1999/xlink">
    <!-- Generator: sketchtool 52.2 (67145) - http://www.bohemiancoding.com/sketch -->
    <title>88462AFD-A25B-4D63-8741-9A0273A1F7BE</title>
    <desc>Created with sketchtool.</desc>
    <g id="desktop" stroke="none" stroke-width="1" fill="none" fill-rule="evenodd">
        <g id="About" transform="translate(-156.000000, -1649.000000)" fill="#FFFFFF" fill-rule="nonzero">
            <g id="Group-3" transform="translate(156.000000, 1610.000000)">
                <g id="start-up" transform="translate(0.000000, 39.000000)">
                    <path d="M47.7955264,1.90713957 C49.0158254,12.6638848 44.7008306,21.8863096 36.810638,29.4653577 C34.4275391,31.754462 31.8752391,33.7354107 29.4218228,35.4146612 C29.5097195,38.214249 28.3201843,41.1985866 26.2688954,43.2078756 L22.2908378,47.1044828 C21.3389899,48.036483 19.7059428,47.2443905 19.9051753,45.9285411 C20.2556633,43.6085854 20.4171735,41.8970486 20.3908044,40.7315103 C18.7943809,41.5487145 17.4631124,42.1800926 17.0844241,42.418653 C16.5277451,42.7687809 15.7971039,42.692011 15.3294202,42.2339032 L12.9082328,39.8622892 C8.80858482,42.8444744 6.55659848,43.1709256 5.77138808,43.1709256 C4.86458726,43.1709256 4.31706412,42.526633 4.29252628,41.8389331 C4.28080672,41.5142757 4.33610841,39.2223014 7.6860709,34.7470506 L5.38427644,32.4923851 C4.91988885,32.0375059 4.83895068,31.3289993 5.18834005,30.7844357 C5.41137787,30.4375364 6.08415374,29.0520921 6.96202187,27.398312 C6.59834936,27.3710479 6.16069717,27.3635145 5.63404948,27.3875499 C4.19327624,27.4531988 2.6935391,27.7355253 1.77062389,27.9783906 C1.15534708,28.1394638 0.506742755,27.8765092 0.188483526,27.3366091 C-0.129775704,26.7967091 -0.0382167022,26.1143904 0.411887558,25.6735019 L4.38994515,21.7768947 C6.57124793,19.6402539 9.64799817,18.4105016 12.4229698,18.5209927 C14.0626093,16.2397807 15.9835181,13.876059 18.1981483,11.6429177 C25.9367192,3.84001746 35.4237016,-0.520796134 46.552887,0.689943102 C47.2069848,0.76097309 47.7230117,1.26679307 47.7955264,1.90713957 Z M45.1051554,3.32487034 C42.0679585,3.1031705 39.1267157,3.33132757 36.2832579,4.00467801 C36.8267524,5.70796378 37.9009232,7.37394103 39.4361853,8.87812754 C40.9659539,10.3762155 42.6597962,11.4262403 44.3924597,11.9607592 C45.0901397,9.1744447 45.3296581,6.29521721 45.1051554,3.32487034 Z M5.45056517,24.6345979 C6.43683922,24.5868859 7.46083562,24.6238358 8.38191967,24.8229352 C8.9781522,23.7836725 9.65422417,22.6575953 10.4126993,21.4784251 C8.96093907,21.8342927 7.50112155,22.6260264 6.37860764,23.7251982 L5.45056517,24.6345979 Z M8.11200362,31.2680139 L9.44034223,32.5687963 C10.0006837,31.9169701 10.6225527,31.2292702 11.311443,30.5053379 L9.46011903,28.6915609 C8.78441318,29.9421199 8.41634583,30.6796843 8.11200362,31.2680139 Z M14.989553,30.7410285 C10.6675997,34.9744902 8.71263098,37.9416085 7.82963549,39.7284801 C9.6194317,38.8761197 12.612314,36.966201 16.9785818,32.6893321 C18.0000146,31.688813 18.1908237,30.6936751 18.2175589,29.5284956 C16.9968936,29.5543247 16.014282,29.7376395 14.989553,30.7410285 Z M16.5713272,39.5541337 C17.3558052,39.1570113 17.8963697,38.9019488 19.1921134,38.2242936 L17.2213965,36.2939269 C16.4830643,36.9712234 15.7831869,37.5821534 15.1210319,38.1331743 L16.5713272,39.5541337 Z M24.2795004,41.259572 C25.3294995,40.2314302 26.0835799,38.8172868 26.4190522,37.3608123 C25.2419691,38.0843859 24.1187227,38.7311898 23.0844717,39.3015825 C23.2133868,40.0527789 23.2448832,41.0263926 23.1536903,42.36269 L24.2795004,41.259572 Z M21.7524707,36.8359793 C33.262908,30.3593317 40.5608967,22.919115 43.5845427,14.6003501 C41.406536,13.9356094 39.3087351,12.649894 37.4475227,10.8264312 C35.5775208,8.99471721 34.2616341,6.93018262 33.5855621,4.78744329 C25.0460327,7.73196106 17.445533,14.8823178 10.8701283,26.1764519 L13.2781313,28.5351512 C15.3836232,26.6618238 17.4616474,26.7751849 19.620976,26.7751849 C20.397763,26.7751849 21.027323,27.3918547 21.027323,28.152737 C21.027323,30.4167297 21.0969078,32.3546299 19.2309345,34.3657126 L21.7524707,36.8359793 Z M34.9521937,12.2917091 C37.6826021,14.9667261 37.6826021,19.3192114 34.9521937,21.9938712 C32.2214204,24.6688883 27.778215,24.6685309 25.0478064,21.9938712 C22.3173979,19.3192114 22.3173979,14.9667261 25.0478064,12.2917091 C27.778215,9.61704936 32.2214204,9.61704936 34.9521937,12.2917091 Z M32.9713162,20.0534388 C34.6097072,18.4485 34.6097072,15.8370803 32.9713162,14.2321415 C31.3325605,12.6272027 28.6667101,12.62756 27.0286839,14.2321415 C25.3902929,15.8370803 25.3902929,18.4485 27.0286839,20.0534388 C28.6667101,21.6583775 31.3329252,21.6583775 32.9713162,20.0534388 Z" id="Combined-Shape"></path>
                </g>
            </g>
        </g>
    </g>
</svg>