<?xml version="1.0" encoding="UTF-8"?>
<svg width="48px" height="45px" viewBox="0 0 48 45" version="1.1" xmlns="http://www.w3.org/2000/svg" xmlns:xlink="http://www.w3.org/1999/xlink">
    <!-- Generator: Sketch 53.2 (72643) - https://sketchapp.com -->
    <title>feature</title>
    <desc>Created with Sketch.</desc>
    <g id="Page-1" stroke="none" stroke-width="1" fill="none" fill-rule="evenodd">
        <g id="About" transform="translate(-156.000000, -2374.000000)" fill="#FFFFFF" fill-rule="nonzero">
            <g id="Group-4-Copy" transform="translate(156.000000, 2335.000000)">
                <g id="feature" transform="translate(0.000000, 39.000000)">
                    <path d="M3.19829424,38.3923241 C1.43203625,38.3923241 1.13686838e-13,36.9602878 1.13686838e-13,35.1940299 L1.13686838e-13,3.21108742 C1.13686838e-13,1.44482942 1.43203625,0.012793177 3.19829424,0.012793177 L38.3795309,0.012793177 C40.1457889,0.012793177 41.5778252,1.44482942 41.5778252,3.21108742 L41.5778252,4.81023454 L39.978678,4.81023454 L39.978678,3.21108742 C39.978678,2.32775852 39.2628598,1.6119403 38.3795309,1.6119403 L3.19829424,1.6119403 C2.31496534,1.6119403 1.59914712,2.32775852 1.59914712,3.21108742 L1.59914712,35.1940299 C1.59914712,36.0773588 2.31496534,36.793177 3.19829424,36.793177 L4.79744136,36.793177 L4.79744136,38.3923241 L3.19829424,38.3923241 Z M3.19829424,3.21108742 L4.79744136,3.21108742 L4.79744136,4.81023454 L3.19829424,4.81023454 L3.19829424,3.21108742 Z M6.39658849,3.21108742 L7.99573561,3.21108742 L7.99573561,4.81023454 L6.39658849,4.81023454 L6.39658849,3.21108742 Z M9.59488273,3.21108742 L11.1940299,3.21108742 L11.1940299,4.81023454 L9.59488273,4.81023454 L9.59488273,3.21108742 Z M6.39658849,41.5906183 L6.39658849,9.60767591 C6.39658849,7.84141791 7.82862473,6.40938166 9.59488273,6.40938166 L44.7761194,6.40938166 C46.5423774,6.40938166 47.9744136,7.84141791 47.9744136,9.60767591 L47.9744136,41.5906183 C47.9744136,43.3568763 46.5423774,44.7889126 44.7761194,44.7889126 L9.59488273,44.7889126 C7.82862473,44.7889126 6.39658849,43.3568763 6.39658849,41.5906183 Z M7.99573561,9.60767591 L7.99573561,41.5906183 C7.99573561,42.4739472 8.71155383,43.1897655 9.59488273,43.1897655 L44.7761194,43.1897655 C45.6594483,43.1897655 46.3752665,42.4739472 46.3752665,41.5906183 L46.3752665,9.60767591 C46.3752665,8.724347 45.6594483,8.00852878 44.7761194,8.00852878 L9.59488273,8.00852878 C8.71155383,8.00852878 7.99573561,8.724347 7.99573561,9.60767591 Z M9.59488273,9.60767591 L11.1940299,9.60767591 L11.1940299,11.206823 L9.59488273,11.206823 L9.59488273,9.60767591 Z M12.793177,9.60767591 L14.3923241,9.60767591 L14.3923241,11.206823 L12.793177,11.206823 L12.793177,9.60767591 Z M15.9914712,9.60767591 L17.5906183,9.60767591 L17.5906183,11.206823 L15.9914712,11.206823 L15.9914712,9.60767591 Z M9.59488273,12.8059701 L44.7761194,12.8059701 L44.7761194,14.4051173 L9.59488273,14.4051173 L9.59488273,12.8059701 Z M9.59488273,16.803838 L15.9914712,16.803838 L15.9914712,18.4029851 L9.59488273,18.4029851 L9.59488273,16.803838 Z M9.59488273,20.0021322 L14.3923241,20.0021322 L14.3923241,21.6012793 L9.59488273,21.6012793 L9.59488273,20.0021322 Z M27.1855011,23.2004264 C30.2750533,23.2040245 32.7789179,25.7078891 32.782516,28.7974414 C32.782516,31.8887926 30.2768523,34.3944563 27.1855011,34.3944563 C24.0941498,34.3944563 21.5884861,31.8887926 21.5884861,28.7974414 C21.5884861,25.7060901 24.0941498,23.2004264 27.1855011,23.2004264 Z M27.1855011,32.7953092 C29.3923241,32.7925106 31.1805703,31.0042644 31.1833689,28.7974414 C31.1833689,26.5896189 29.3933235,24.7995736 27.1855011,24.7995736 C24.9776786,24.7995736 23.1876333,26.5896189 23.1876333,28.7974414 C23.1876333,31.0052638 24.9776786,32.7953092 27.1855011,32.7953092 Z M39.978678,26.3987207 L39.978678,31.196162 C39.978678,31.6379264 39.6208688,31.9957356 39.1791045,31.9957356 L37.0658316,31.9957356 C36.8965218,32.5210554 36.6854344,33.0321828 36.4333689,33.5229211 L37.9277719,35.0163246 C38.2396055,35.328758 38.2396055,35.8346882 37.9277719,36.1471215 L34.5351812,39.5397122 C34.2227479,39.8515458 33.7168177,39.8515458 33.4043843,39.5397122 L31.9109808,38.0461087 C31.419443,38.2971748 30.9087153,38.5082623 30.3837953,38.6777719 L30.3837953,40.7910448 C30.3837953,41.2328091 30.0259861,41.5906183 29.5842217,41.5906183 L24.7867804,41.5906183 C24.345016,41.5906183 23.9872068,41.2328091 23.9872068,40.7910448 L23.9872068,38.6777719 C23.4622868,38.5082623 22.9515592,38.2971748 22.4600213,38.0461087 L20.9666178,39.5397122 C20.6541845,39.8515458 20.1482543,39.8515458 19.8358209,39.5397122 L16.4432303,36.1471215 C16.1313966,35.8346882 16.1313966,35.328758 16.4432303,35.0163246 L17.9376333,33.5229211 C17.6855677,33.0321828 17.4744803,32.5210554 17.3051706,31.9957356 L15.1918977,31.9957356 C14.7501333,31.9957356 14.3923241,31.6379264 14.3923241,31.196162 L14.3923241,26.3987207 C14.3923241,25.9569563 14.7501333,25.5991471 15.1918977,25.5991471 L17.3051706,25.5991471 C17.4295042,25.2133529 17.576226,24.8355544 17.744936,24.466951 C17.8057036,24.3342217 17.8700693,24.2028918 17.9368337,24.0719616 L16.4432303,22.5785581 C16.1313966,22.2661248 16.1313966,21.7601946 16.4432303,21.4477612 L19.8358209,18.0551706 C20.1482543,17.7433369 20.6541845,17.7433369 20.9666178,18.0551706 L22.4600213,19.548774 C22.9515592,19.2977079 23.4622868,19.0866205 23.9872068,18.9171109 L23.9872068,16.803838 C23.9872068,16.3620736 24.345016,16.0042644 24.7867804,16.0042644 L29.5842217,16.0042644 C30.0259861,16.0042644 30.3837953,16.3620736 30.3837953,16.803838 L30.3837953,18.9171109 C30.9087153,19.0866205 31.419443,19.2977079 31.9109808,19.548774 L33.4043843,18.0551706 C33.7168177,17.7433369 34.2227479,17.7433369 34.5351812,18.0551706 L37.9277719,21.4477612 C38.2396055,21.7601946 38.2396055,22.2661248 37.9277719,22.5785581 L36.4333689,24.0719616 C36.6854344,24.5626999 36.8965218,25.0738273 37.0658316,25.5991471 L39.1791045,25.5991471 C39.6208688,25.5991471 39.978678,25.9569563 39.978678,26.3987207 Z M38.3795309,30.3965885 L38.3795309,27.1982942 L36.4653518,27.1982942 C36.1007463,27.1982942 35.782516,26.9514259 35.6913646,26.5986141 C35.4870735,25.8050373 35.1722415,25.0434435 34.7558635,24.33742 C34.5705624,24.0235874 34.6215352,23.6238007 34.8789979,23.3659382 L36.2308769,22.0132596 L33.9696828,19.7510661 L32.6170043,21.1039446 C32.3589419,21.361807 31.9591551,21.41258 31.6451226,21.2270789 C30.9390991,20.8107009 30.1779051,20.495669 29.3843284,20.2915778 C29.0315165,20.2004264 28.7846482,19.8821962 28.7846482,19.5175906 L28.7846482,17.6034115 L25.5863539,17.6034115 L25.5863539,19.5145922 C25.5863539,19.8785981 25.3394856,20.1972281 24.9866738,20.2881797 C24.193097,20.4922708 23.431903,20.8077026 22.7258795,21.2236807 C22.411847,21.4093817 22.0120602,21.3590085 21.7539979,21.101146 L20.4013193,19.7478678 L18.1401253,22.0100613 L19.4920043,23.3627399 C19.7492671,23.6204024 19.7998401,24.0195895 19.6151386,24.3336221 C19.4632196,24.5926839 19.3244936,24.8595416 19.1995602,25.1331956 C18.9828758,25.6051439 18.8087687,26.0952825 18.6796375,26.5986141 C18.5884861,26.9514259 18.2702559,27.1982942 17.9056503,27.1982942 L15.9914712,27.1982942 L15.9914712,30.3965885 L17.9056503,30.3965885 C18.2702559,30.3965885 18.5884861,30.6434568 18.6796375,30.9962687 C18.8839286,31.7898454 19.1987606,32.5514392 19.6151386,33.2574627 C19.8004398,33.5712953 19.749467,33.9710821 19.4920043,34.2289446 L18.1401253,35.5816231 L20.4013193,37.8438166 L21.7539979,36.4909382 C22.0120602,36.2330757 22.411847,36.1823028 22.7258795,36.3678038 C23.431903,36.7841818 24.193097,37.0992138 24.9866738,37.3033049 C25.3394856,37.3944563 25.5863539,37.7126866 25.5863539,38.0772921 L25.5863539,39.9914712 L28.7846482,39.9914712 L28.7846482,38.0772921 C28.7846482,37.7126866 29.0315165,37.3944563 29.3843284,37.3033049 C30.1779051,37.0992138 30.9390991,36.7841818 31.6451226,36.3678038 C31.9591551,36.1823028 32.3589419,36.2330757 32.6170043,36.4909382 L33.9696828,37.8438166 L36.2308769,35.5816231 L34.8789979,34.2289446 C34.6215352,33.9710821 34.5705624,33.5712953 34.7558635,33.2574627 C35.1722415,32.5514392 35.4870735,31.7898454 35.6913646,30.9962687 C35.782516,30.6434568 36.1007463,30.3965885 36.4653518,30.3965885 L38.3795309,30.3965885 Z M39.978678,39.9914712 L44.7761194,39.9914712 L44.7761194,41.5906183 L39.978678,41.5906183 L39.978678,39.9914712 Z" id="Combined-Shape"></path>
                </g>
            </g>
        </g>
    </g>
</svg>