<svg width="20" height="24.3" xmlns="http://www.w3.org/2000/svg" data-name="Layer 1">
 <g id="Layer_1">
  <g id="svg_32">
   <path id="svg_1" fill="#fff" d="m18.04,23.64l-16.12,0a1.18,1.18 0 0 1 -1.18,-1.18l0,-16.86l18.48,0l0,16.86a1.18,1.18 0 0 1 -1.18,1.18m-16.12,-22.9l16.12,0a1.18,1.18 0 0 1 1.18,1.18l0,2.91l-18.48,0l0,-2.91a1.18,1.18 0 0 1 1.18,-1.18m16.12,-0.74l-16.12,0a1.92,1.92 0 0 0 -1.92,1.92l0,20.5a1.92,1.92 0 0 0 1.92,1.92l16.12,0a1.92,1.92 0 0 0 1.92,-1.92l0,-20.5a1.92,1.92 0 0 0 -1.92,-1.92" class="cls-2"/>
   <path id="svg_2" fill="#fff" d="m5.71,9.65a0.74,0.74 0 0 1 -0.74,0.74l-1.09,0a0.74,0.74 0 0 1 -0.74,-0.74l0,-1.09a0.74,0.74 0 0 1 0.74,-0.73l1.09,0a0.74,0.74 0 0 1 0.74,0.73l0,1.09zm-0.74,-2.56l-1.09,0a1.47,1.47 0 0 0 -1.47,1.47l0,1.09a1.47,1.47 0 0 0 1.47,1.48l1.09,0a1.48,1.48 0 0 0 1.48,-1.48l0,-1.09a1.48,1.48 0 0 0 -1.48,-1.47" class="cls-2"/>
   <path id="svg_3" fill="#fff" d="m11.26,9.65a0.74,0.74 0 0 1 -0.73,0.74l-1.09,0a0.74,0.74 0 0 1 -0.74,-0.74l0,-1.09a0.74,0.74 0 0 1 0.74,-0.73l1.13,0a0.73,0.73 0 0 1 0.73,0.73l-0.04,1.09zm-0.69,-2.56l-1.13,0a1.47,1.47 0 0 0 -1.48,1.47l0,1.09a1.48,1.48 0 0 0 1.48,1.48l1.13,0a1.47,1.47 0 0 0 1.47,-1.48l0,-1.09a1.47,1.47 0 0 0 -1.47,-1.47" class="cls-2"/>
   <path id="svg_4" fill="#fff" d="m16.82,9.65a0.74,0.74 0 0 1 -0.74,0.74l-1.09,0a0.74,0.74 0 0 1 -0.73,-0.74l0,-1.09a0.73,0.73 0 0 1 0.73,-0.73l1.09,0a0.74,0.74 0 0 1 0.74,0.73l0,1.09zm-0.74,-2.56l-1.09,0a1.47,1.47 0 0 0 -1.47,1.47l0,1.09a1.47,1.47 0 0 0 1.47,1.48l1.09,0a1.48,1.48 0 0 0 1.48,-1.48l0,-1.09a1.47,1.47 0 0 0 -1.48,-1.47" class="cls-2"/>
   <path id="svg_5" fill="#fff" d="m5.71,15.11a0.74,0.74 0 0 1 -0.74,0.73l-1.09,0a0.74,0.74 0 0 1 -0.74,-0.73l0,-1.09a0.74,0.74 0 0 1 0.74,-0.74l1.09,0a0.74,0.74 0 0 1 0.74,0.74l0,1.09zm-0.74,-2.57l-1.09,0a1.47,1.47 0 0 0 -1.47,1.48l0,1.09a1.47,1.47 0 0 0 1.47,1.47l1.09,0a1.48,1.48 0 0 0 1.48,-1.47l0,-1.09a1.48,1.48 0 0 0 -1.48,-1.48" class="cls-2"/>
   <path id="svg_6" fill="#fff" d="m11.26,15.11a0.73,0.73 0 0 1 -0.73,0.73l-1.09,0a0.74,0.74 0 0 1 -0.74,-0.73l0,-1.09a0.74,0.74 0 0 1 0.74,-0.74l1.13,0a0.74,0.74 0 0 1 0.73,0.74l-0.04,1.09zm-0.69,-2.57l-1.13,0a1.48,1.48 0 0 0 -1.48,1.48l0,1.09a1.47,1.47 0 0 0 1.48,1.47l1.13,0a1.47,1.47 0 0 0 1.47,-1.47l0,-1.09a1.47,1.47 0 0 0 -1.47,-1.48" class="cls-2"/>
   <path id="svg_7" fill="#fff" d="m5.71,20.56a0.74,0.74 0 0 1 -0.74,0.74l-1.09,0a0.74,0.74 0 0 1 -0.74,-0.74l0,-1.09a0.75,0.75 0 0 1 0.74,-0.74l1.09,0a0.74,0.74 0 0 1 0.74,0.74l0,1.09zm-0.74,-2.56l-1.09,0a1.47,1.47 0 0 0 -1.47,1.47l0,1.09a1.48,1.48 0 0 0 1.47,1.48l1.09,0a1.49,1.49 0 0 0 1.48,-1.48l0,-1.09a1.48,1.48 0 0 0 -1.48,-1.47" class="cls-2"/>
   <path id="svg_8" fill="#fff" d="m11.26,20.56a0.74,0.74 0 0 1 -0.73,0.74l-1.09,0a0.74,0.74 0 0 1 -0.74,-0.74l0,-1.09a0.74,0.74 0 0 1 0.74,-0.74l1.13,0a0.74,0.74 0 0 1 0.73,0.74l-0.04,1.09zm-0.69,-2.56l-1.13,0a1.47,1.47 0 0 0 -1.48,1.47l0,1.09a1.48,1.48 0 0 0 1.48,1.48l1.13,0a1.48,1.48 0 0 0 1.47,-1.48l0,-1.09a1.47,1.47 0 0 0 -1.47,-1.47" class="cls-2"/>
   <path id="svg_9" fill="#fff" d="m16.82,20.56a0.74,0.74 0 0 1 -0.74,0.74l-1.09,0a0.74,0.74 0 0 1 -0.73,-0.74l0,-6.54a0.74,0.74 0 0 1 0.73,-0.74l1.09,0a0.74,0.74 0 0 1 0.74,0.74l0,6.54zm-0.74,-8l-1.09,0a1.47,1.47 0 0 0 -1.47,1.48l0,6.54a1.48,1.48 0 0 0 1.47,1.48l1.09,0a1.48,1.48 0 0 0 1.48,-1.48l0,-6.54a1.48,1.48 0 0 0 -1.48,-1.48" class="cls-2"/>
   <path id="svg_10" fill="#fff" d="m16.93,3.33a0.4,0.4 0 0 0 0.26,-0.1a0.38,0.38 0 0 0 0.11,-0.26a0.39,0.39 0 0 0 -0.11,-0.27a0.4,0.4 0 0 0 -0.52,0a0.39,0.39 0 0 0 -0.11,0.27a0.38,0.38 0 0 0 0.11,0.26a0.4,0.4 0 0 0 0.26,0.1" class="cls-2"/>
   <path id="svg_11" fill="#fff" d="m14.98,3.33a0.37,0.37 0 1 0 -0.37,-0.36a0.37,0.37 0 0 0 0.37,0.36" class="cls-2"/>
   <path id="svg_12" fill="#fff" d="m13.03,3.33a0.43,0.43 0 0 0 0.27,-0.1a0.42,0.42 0 0 0 0.1,-0.26a0.43,0.43 0 0 0 -0.1,-0.27a0.41,0.41 0 0 0 -0.53,0a0.37,0.37 0 0 0 0,0.53a0.42,0.42 0 0 0 0.26,0.1" class="cls-2"/>
  </g>
 </g>
</svg>