<svg width="24.7" height="19.25" xmlns="http://www.w3.org/2000/svg" data-name="Layer 1">
 <g id="Layer_1">
  <path id="svg_22" fill="#fff" d="m24.26,19.15l-23.8,0a0.47,0.47 0 0 1 -0.46,-0.46l0,-18.23a0.46,0.46 0 0 1 0.92,0l0,7.91l5.5,-3.79a0.47,0.47 0 0 1 0.47,0l4.42,2.22l5.52,-3.8l-0.15,-0.21a0.48,0.48 0 0 1 -0.07,-0.39a0.47,0.47 0 0 1 0.26,-0.29l3.24,-1.4a0.46,0.46 0 0 1 0.52,0.74l-2.42,2.57a0.47,0.47 0 0 1 -0.37,0.14a0.46,0.46 0 0 1 -0.34,-0.19l-0.15,-0.21l-5.74,4a0.45,0.45 0 0 1 -0.46,0l-4.43,-2.22l-5.8,4l0,8.75l23.34,0a0.46,0.46 0 0 1 0,0.92l0,-0.06zm-7.88,-1.57l-3.26,0a0.46,0.46 0 0 1 -0.46,-0.46l0,-5.72a0.46,0.46 0 0 1 0.46,-0.46l3.26,0a0.46,0.46 0 0 1 0.45,0.46l0,5.72a0.46,0.46 0 0 1 -0.45,0.46zm-2.81,-0.92l2.35,0l0,-4.8l-2.35,0l0,4.8zm-2.59,0.92l-3.27,0a0.46,0.46 0 0 1 -0.45,-0.46l0,-7.5a0.45,0.45 0 0 1 0.45,-0.45l3.29,0a0.45,0.45 0 0 1 0.45,0.45l0,7.5a0.46,0.46 0 0 1 -0.45,0.46l-0.02,0zm-2.81,-0.92l2.35,0l0,-6.58l-2.35,0l0,6.58zm-2.59,0.92l-3.27,0a0.46,0.46 0 0 1 -0.45,-0.46l0,-4.76a0.46,0.46 0 0 1 0.45,-0.46l3.27,0a0.46,0.46 0 0 1 0.45,0.46l0,4.76a0.46,0.46 0 0 1 -0.45,0.46zm-2.81,-0.92l2.35,0l0,-3.84l-2.35,0l0,3.84zm19,0.89l-3.27,0a0.46,0.46 0 0 1 -0.45,-0.46l0,-9.81a0.46,0.46 0 0 1 0.45,-0.46l3.27,0a0.46,0.46 0 0 1 0.45,0.46l0,9.81a0.46,0.46 0 0 1 -0.44,0.46l-0.01,0zm-2.81,-0.92l2.35,0l0,-8.89l-2.31,0l-0.04,8.89z" class="cls-2"/>
 </g>
</svg>