<svg width="35.2" height="22.25" xmlns="http://www.w3.org/2000/svg" data-name="Layer 1">
 <g id="Layer_1">
  <g id="svg_32">
   <path id="svg_1" fill="#fff" d="m1.8383,22.13001a0.82,0.82 0 0 1 -0.47,-0.15a0.81,0.81 0 0 1 -0.32,-0.79l0.25,-1.45l-1.06,-1a0.81,0.81 0 0 1 -0.2,-0.82a0.82,0.82 0 0 1 0.65,-0.55l1.46,-0.21l0.65,-1.33a0.84,0.84 0 0 1 1.44,0l0.65,1.33l1.47,0.21a0.81,0.81 0 0 1 0.44,1.37l-1.06,1l0.25,1.46a0.8,0.8 0 0 1 -1.16,0.84l-1.31,-0.69l-1.31,0.69a0.81,0.81 0 0 1 -0.37,0.09zm1.68,-6l-0.75,1.51a0.38,0.38 0 0 1 -0.3,0.22l-1.67,0.24l1.21,1.18a0.4,0.4 0 0 1 0.12,0.36l-0.29,1.66l1.49,-0.79a0.42,0.42 0 0 1 0.38,0l1.49,0.79l-0.28,-1.66a0.4,0.4 0 0 1 0.11,-0.36l1.21,-1.18l-1.67,-0.24a0.4,0.4 0 0 1 -0.3,-0.22l-0.75,-1.51zm0.36,-0.18l-0.36,0.18l0,0l0.36,-0.18z" class="cls-2"/>
   <path id="svg_2" fill="#fff" d="m8.8583,22.13001a0.82,0.82 0 0 1 -0.47,-0.15a0.81,0.81 0 0 1 -0.32,-0.79l0.25,-1.45l-1.06,-1a0.81,0.81 0 0 1 -0.2,-0.82a0.82,0.82 0 0 1 0.65,-0.55l1.46,-0.21l0.65,-1.33a0.84,0.84 0 0 1 1.44,0l0.65,1.33l1.47,0.21a0.81,0.81 0 0 1 0.44,1.37l-1.06,1l0.25,1.46a0.8,0.8 0 0 1 -1.16,0.84l-1.31,-0.69l-1.31,0.69a0.78,0.78 0 0 1 -0.37,0.09zm1.68,-6l-0.74,1.51a0.42,0.42 0 0 1 -0.31,0.22l-1.67,0.24l1.21,1.18a0.4,0.4 0 0 1 0.12,0.36l-0.29,1.66l1.5,-0.79a0.4,0.4 0 0 1 0.37,0l1.49,0.79l-0.28,-1.66a0.4,0.4 0 0 1 0.11,-0.36l1.21,-1.18l-1.67,-0.24a0.4,0.4 0 0 1 -0.3,-0.22l-0.75,-1.51zm0.36,-0.18l-0.36,0.18l0,0l0.36,-0.18z" class="cls-2"/>
   <path id="svg_3" fill="#fff" d="m15.8783,22.13001a0.82,0.82 0 0 1 -0.47,-0.15a0.83,0.83 0 0 1 -0.32,-0.79l0.25,-1.45l-1.06,-1a0.81,0.81 0 0 1 -0.2,-0.82a0.82,0.82 0 0 1 0.65,-0.55l1.46,-0.21l0.65,-1.33a0.84,0.84 0 0 1 1.44,0l0.65,1.33l1.47,0.21a0.8,0.8 0 0 1 0.64,0.55a0.79,0.79 0 0 1 -0.2,0.82l-1.06,1l0.25,1.46a0.8,0.8 0 0 1 -0.32,0.78a0.82,0.82 0 0 1 -0.84,0.06l-1.31,-0.69l-1.31,0.69a0.78,0.78 0 0 1 -0.37,0.09zm1.68,-6l-0.74,1.51a0.42,0.42 0 0 1 -0.31,0.22l-1.67,0.24l1.21,1.18a0.4,0.4 0 0 1 0.12,0.36l-0.29,1.66l1.5,-0.79a0.4,0.4 0 0 1 0.37,0l1.49,0.79l-0.28,-1.66a0.4,0.4 0 0 1 0.11,-0.36l1.21,-1.18l-1.67,-0.24a0.4,0.4 0 0 1 -0.3,-0.22l-0.75,-1.51z" class="cls-2"/>
   <path id="svg_4" fill="#fff" d="m22.8983,22.13001a0.82,0.82 0 0 1 -0.47,-0.15a0.81,0.81 0 0 1 -0.32,-0.79l0.25,-1.45l-1,-1a0.8,0.8 0 0 1 0.44,-1.37l1.46,-0.21l0.66,-1.33a0.83,0.83 0 0 1 1.43,0l0.65,1.33l1.47,0.21a0.8,0.8 0 0 1 0.64,0.55a0.79,0.79 0 0 1 -0.2,0.82l-1.06,1l0.25,1.46a0.8,0.8 0 0 1 -0.32,0.78a0.82,0.82 0 0 1 -0.84,0.06l-1.31,-0.69l-1.31,0.69a0.78,0.78 0 0 1 -0.42,0.09zm1.68,-6l-0.74,1.51a0.42,0.42 0 0 1 -0.31,0.22l-1.67,0.24l1.21,1.18a0.4,0.4 0 0 1 0.12,0.36l-0.29,1.66l1.5,-0.79a0.4,0.4 0 0 1 0.37,0l1.49,0.79l-0.28,-1.66a0.4,0.4 0 0 1 0.11,-0.36l1.21,-1.18l-1.67,-0.24a0.4,0.4 0 0 1 -0.3,-0.22l-0.75,-1.51z" class="cls-2"/>
   <path id="svg_5" fill="#fff" d="m29.9183,22.13001a0.82,0.82 0 0 1 -0.47,-0.15a0.81,0.81 0 0 1 -0.32,-0.79l0.25,-1.45l-1,-1a0.8,0.8 0 0 1 0.44,-1.37l1.46,-0.21l0.66,-1.33a0.83,0.83 0 0 1 1.43,0l0.65,1.33l1.47,0.21a0.8,0.8 0 0 1 0.64,0.55a0.79,0.79 0 0 1 -0.2,0.82l-1.06,1l0.25,1.46a0.8,0.8 0 0 1 -0.32,0.78a0.82,0.82 0 0 1 -0.84,0.06l-1.31,-0.69l-1.31,0.69a0.78,0.78 0 0 1 -0.42,0.09zm1.68,-6l-0.74,1.51a0.4,0.4 0 0 1 -0.31,0.22l-1.67,0.24l1.21,1.18a0.4,0.4 0 0 1 0.12,0.36l-0.29,1.66l1.5,-0.79a0.4,0.4 0 0 1 0.37,0l1.49,0.79l-0.28,-1.66a0.43,0.43 0 0 1 0.11,-0.36l1.21,-1.18l-1.67,-0.24a0.4,0.4 0 0 1 -0.3,-0.22l-0.75,-1.51z" class="cls-2"/>
   <path id="svg_6" fill="#fff" d="m17.5583,12.96001a6.48,6.48 0 1 1 6.48,-6.48a6.49,6.49 0 0 1 -6.48,6.48zm0,-12.16a5.68,5.68 0 1 0 5.68,5.68a5.69,5.69 0 0 0 -5.68,-5.69l0,0.01zm-0.36,9.16l0,0a0.38,0.38 0 0 1 -0.28,-0.12l-3.28,-3.27a0.42,0.42 0 0 1 0,-0.57l1.56,-1.56a0.42,0.42 0 0 1 0.57,0l1.43,1.43l2.67,-2.67a0.39,0.39 0 0 1 0.28,-0.11l0,0a0.39,0.39 0 0 1 0.28,0.11l1.57,1.57a0.4,0.4 0 0 1 0,0.56l-4.52,4.51a0.36,0.36 0 0 1 -0.28,0.12zm-2.71,-3.67l2.71,2.67l4,-3.95l-1,-1l-2.67,2.67a0.39,0.39 0 0 1 -0.56,0l-1.43,-1.43l-1.05,1.04z" class="cls-2"/>
  </g>
 </g>
</svg>