<svg width="20.3" height="26.8" xmlns="http://www.w3.org/2000/svg" data-name="Layer 1">
 <g id="Layer_1">
  <g id="svg_3">
   <path id="svg_15" fill="#fff" d="m10.71112,22.40005l-1.06,0a0.47,0.47 0 0 1 -0.44,-0.33l-0.17,-0.6a4.61,4.61 0 0 1 -0.63,-0.2l-0.49,0.38a0.47,0.47 0 0 1 -0.55,0l-0.86,-0.63a0.45,0.45 0 0 1 -0.16,-0.52l0.21,-0.59a3.94,3.94 0 0 1 -0.38,-0.53l-0.63,0a0.47,0.47 0 0 1 -0.45,-0.32l-0.33,-1a0.46,0.46 0 0 1 0.18,-0.52l0.52,-0.36c0,-0.11 0,-0.22 0,-0.33s0,-0.21 0,-0.32l-0.52,-0.36a0.45,0.45 0 0 1 -0.18,-0.51l0.33,-1a0.5,0.5 0 0 1 0.45,-0.32l0.62,0a5.17,5.17 0 0 1 0.39,-0.53l-0.21,-0.59a0.46,0.46 0 0 1 0.16,-0.52l0.86,-0.63a0.47,0.47 0 0 1 0.55,0l0.49,0.38a4.21,4.21 0 0 1 0.63,-0.2l0.17,-0.6a0.47,0.47 0 0 1 0.44,-0.33l1.06,0a0.47,0.47 0 0 1 0.44,0.33l0.18,0.6a4.48,4.48 0 0 1 0.62,0.2l0.5,-0.38a0.45,0.45 0 0 1 0.54,0l0.86,0.63a0.44,0.44 0 0 1 0.16,0.52l-0.24,0.64a3.28,3.28 0 0 1 0.39,0.53l0.62,0a0.47,0.47 0 0 1 0.45,0.32l0.33,1a0.45,0.45 0 0 1 -0.18,0.51l-0.51,0.36c0,0.11 0,0.21 0,0.32s0,0.22 0,0.33l0.51,0.36a0.46,0.46 0 0 1 0.18,0.52l-0.33,1a0.42,0.42 0 0 1 -0.45,0.32l-0.62,0a5.17,5.17 0 0 1 -0.39,0.53l0.21,0.59a0.44,0.44 0 0 1 -0.16,0.52l-0.86,0.63a0.45,0.45 0 0 1 -0.54,0l-0.5,-0.38a4.48,4.48 0 0 1 -0.62,0.2l-0.18,0.6a0.47,0.47 0 0 1 -0.41,0.28zm-0.71,-0.92l0.37,0l0.16,-0.53a0.43,0.43 0 0 1 0.35,-0.32a3.82,3.82 0 0 0 0.94,-0.3a0.43,0.43 0 0 1 0.47,0.05l0.44,0.34l0.31,-0.22l-0.19,-0.53a0.46,0.46 0 0 1 0.1,-0.47a3.74,3.74 0 0 0 0.58,-0.79a0.48,0.48 0 0 1 0.41,-0.24l0.56,0l0.11,-0.35l-0.45,-0.32a0.43,0.43 0 0 1 -0.2,-0.43a4.07,4.07 0 0 0 0,-0.5a4,4 0 0 0 0,-0.49a0.45,0.45 0 0 1 0.2,-0.43l0.45,-0.32l-0.11,-0.35l-0.55,0a0.44,0.44 0 0 1 -0.42,-0.24a4,4 0 0 0 -0.58,-0.79a0.46,0.46 0 0 1 -0.1,-0.47l0.19,-0.52l-0.27,-0.2l-0.43,0.33a0.44,0.44 0 0 1 -0.48,0a3.82,3.82 0 0 0 -0.94,-0.3a0.47,0.47 0 0 1 -0.36,-0.32l-0.15,-0.53l-0.38,0l-0.15,0.53a0.47,0.47 0 0 1 -0.36,0.32a4,4 0 0 0 -0.94,0.3a0.43,0.43 0 0 1 -0.47,0l-0.44,-0.33l-0.3,0.22l0.18,0.52a0.44,0.44 0 0 1 -0.1,0.46a4.39,4.39 0 0 0 -0.58,0.8a0.43,0.43 0 0 1 -0.41,0.24l-0.59,0l-0.12,0.35l0.46,0.32a0.43,0.43 0 0 1 0.19,0.43a4,4 0 0 0 0,0.49a4.07,4.07 0 0 0 0,0.5a0.43,0.43 0 0 1 -0.19,0.43l-0.46,0.32l0.12,0.35l0.55,0a0.46,0.46 0 0 1 0.41,0.24a4.06,4.06 0 0 0 0.59,0.79a0.47,0.47 0 0 1 0.09,0.47l-0.18,0.53l0.3,0.22l0.44,-0.34a0.44,0.44 0 0 1 0.48,-0.05a3.75,3.75 0 0 0 0.93,0.3a0.45,0.45 0 0 1 0.36,0.32l0.16,0.51zm0.18,-1.72a2.88,2.88 0 1 1 2.88,-2.9a2.89,2.89 0 0 1 -2.88,2.9zm0,-4.84a2,2 0 1 0 2,2a2,2 0 0 0 -2,-2z" class="cls-2"/>
   <path id="svg_16" fill="#fff" d="m19.25001,26.86005l-18.15,0a1.09,1.09 0 0 1 -1.1,-1.09l0,-24.68a1.09,1.09 0 0 1 1.1,-1.09l12,0a0.56,0.56 0 0 1 0.2,0.11l0,0l6.91,6.76l0,0a0.48,0.48 0 0 1 0.12,0.22l0,0s0,0 0,0.08l0,18.52a1.1,1.1 0 0 1 -1.08,1.17zm-18.15,-25.94a0.19,0.19 0 0 0 -0.19,0.17l0,24.65a0.18,0.18 0 0 0 0.19,0.17l18.15,0a0.17,0.17 0 0 0 0.18,-0.17l0,-18.07l-6.45,0a0.45,0.45 0 0 1 -0.45,-0.46l0,-6.29l-11.43,0zm12.34,5.84l5.32,0l-5.33,-5.21l0.01,5.21z" class="cls-2"/>
  </g>
 </g>
</svg>