<svg width="38" height="50" xmlns="http://www.w3.org/2000/svg" data-name="Layer 1">
 <g id="Layer_1">
  <path stroke="null" id="svg_2" fill="#fff" d="m36.02683,50.1986l-33.93996,0a2.04892,2.04892 0 0 1 -2.08686,-2.02995l0,-46.11965a2.06789,2.06789 0 0 1 2.08686,-2.04892l22.40531,0a1.00549,1.00549 0 0 1 0.41737,0.22766l0,0l12.91957,12.74883l0,0a0.89166,0.89166 0 0 1 0.22766,0.37943l0,0l0,0l0,0a0.32252,0.32252 0 0 1 0,0.1328l0,34.67985a2.04892,2.04892 0 0 1 -2.02995,2.02995zm-33.93996,-48.45314a0.32252,0.32252 0 0 0 -0.34149,0.30354l0,46.11965a0.32252,0.32252 0 0 0 0.34149,0.30354l33.93996,0a0.30354,0.30354 0 0 0 0.32252,-0.30354l0,-33.80716l-12.04688,0a0.85372,0.85372 0 0 1 -0.85372,-0.85372l0,-11.76231l-21.36188,0zm23.08828,10.88963l9.92208,0l-9.92208,-9.69442l0,9.69442zm6.90562,29.38681l-26.04783,0a0.87269,0.87269 0 1 1 0,-1.7264l26.04783,0a0.87269,0.87269 0 0 1 0,1.7264zm0,-5.34996l-26.04783,0a0.87269,0.87269 0 1 1 0,-1.7264l26.04783,0a0.87269,0.87269 0 0 1 0,1.7264zm0,-5.34996l-26.04783,0a0.87269,0.87269 0 1 1 0,-1.7264l26.04783,0a0.87269,0.87269 0 0 1 0,1.7264zm0,-5.34996l-26.04783,0a0.87269,0.87269 0 0 1 0,-1.74538l26.04783,0a0.87269,0.87269 0 0 1 0,1.74538zm0,-5.34996l-26.04783,0a0.87269,0.87269 0 0 1 0,-1.74538l26.04783,0a0.87269,0.87269 0 0 1 0,1.74538zm-10.79477,-5.34996l-15.17718,0a0.87269,0.87269 0 0 1 0,-1.74538l15.17718,0a0.87269,0.87269 0 0 1 0,1.74538zm-0.60709,-5.34996l-14.64598,0a0.87269,0.87269 0 0 1 0,-1.74538l14.64598,0a0.87269,0.87269 0 0 1 0,1.74538z" class="cls-2"/>
 </g>
</svg>