<svg width="25" height="23" xmlns="http://www.w3.org/2000/svg" data-name="Layer 1">
 <g id="Layer_1">
  <path stroke="null" id="svg_23" fill="#fff" d="m18.27009,23.2l-17.81,0a0.45,0.45 0 0 1 -0.46,-0.46l0,-22.28a0.46,0.46 0 0 1 0.46,-0.46l13.35,0a0.46,0.46 0 0 1 0.32,0.13l0,0l4.45,4.45l0,0a0.43,0.43 0 0 1 0.11,0.21l0,0l0,9.71l2.57,2.57l0,0l3.57,3.57a0.49,0.49 0 0 1 0.13,0.33a0.48,0.48 0 0 1 -0.13,0.32l-1,1a0.47,0.47 0 0 1 -0.65,0l-3.57,-3.56l0,0l-0.9,-0.9l0,4.84a0.45,0.45 0 0 1 -0.44,0.53zm-17.36,-0.91l16.9,0l0,-5.33l-7.12,-7.12a0.44,0.44 0 0 1 -0.13,-0.32a0.42,0.42 0 0 1 0.13,-0.32l1,-1a0.46,0.46 0 0 1 0.65,0l5.45,5.45l0,-8.28l-4,0a0.45,0.45 0 0 1 -0.45,-0.46l0,-4l-12.43,0l0,21.38zm19.68,-3.82l2.92,2.93l0.38,-0.38l-2.92,-2.92l-0.38,0.37zm-2,-2l1.35,1.36l0.38,-0.38l-8.29,-8.25l-0.37,0.37l6.93,6.9zm-4.32,-12l2.86,0l-2.89,-2.9l0.03,2.9zm0.76,16a0.46,0.46 0 0 1 -0.45,-0.46l0,-0.76l-0.77,0a0.46,0.46 0 0 1 0,-0.92l0.77,0l0,-0.76a0.46,0.46 0 1 1 0.91,0l0,0.76l0.76,0a0.46,0.46 0 1 1 0,0.92l-0.76,0l0,0.76a0.46,0.46 0 0 1 -0.46,0.48l0,-0.02zm-4.72,-4.91a0.45,0.45 0 0 1 -0.45,-0.46l0,-0.49l-0.5,0a0.46,0.46 0 0 1 0,-0.92l0.5,0l0,-0.49a0.46,0.46 0 1 1 0.91,0l0,0.49l0.5,0a0.46,0.46 0 0 1 0,0.92l-0.5,0l0,0.49a0.45,0.45 0 0 1 -0.46,0.48l0,-0.02zm10.66,-4.08a0.46,0.46 0 0 1 -0.46,-0.46l0,-0.2l-0.2,0a0.46,0.46 0 0 1 0,-0.91l0.2,0l0,-0.2a0.46,0.46 0 0 1 0.91,0l0,0.2l0.2,0a0.46,0.46 0 1 1 0,0.91l-0.2,0l0,0.2a0.46,0.46 0 0 1 -0.45,0.48l0,-0.02zm-5.56,-2.54a0.46,0.46 0 0 1 -0.46,-0.46l0,-0.22l-0.22,0a0.46,0.46 0 1 1 0,-0.92l0.22,0l0,-0.22a0.46,0.46 0 1 1 0.92,0l0,0.22l0.26,0a0.46,0.46 0 1 1 0,0.92l-0.22,0l0,0.22a0.46,0.46 0 0 1 -0.5,0.48l0,-0.02z" class="cls-2"/>
 </g>
</svg>