<svg width="26.93" height="24.6" xmlns="http://www.w3.org/2000/svg" data-name="Layer 1">
 <g id="Layer_1">
  <title>Layer 1</title>
  <g id="svg_3">
   <path id="svg_30" fill="#fff" d="m25.33001,19.41005c-8.33,6.6 -19.3,3.68 -21.16,3.11l0,-6.62c5.56,0 6.48,0.57 7.3,1.05s1.57,0.92 5.56,0.85a1.13,1.13 0 0 1 0.77,0.29a1.36,1.36 0 0 1 0.3,1.09c0,0.12 0,0.48 -0.75,0.77l0,0c-0.76,0.3 -2.44,0.55 -6.11,0.08a0.41,0.41 0 0 0 -0.46,0.35a0.4,0.4 0 0 0 0.35,0.45a27.56,27.56 0 0 0 3.64,0.28a8.16,8.16 0 0 0 2.84,-0.39a30.63,30.63 0 0 0 6.4,-2c0.83,-0.36 1.62,-0.69 1.8,-0.55s0.22,0.3 0.21,0.39c0,0.34 -0.48,0.74 -0.66,0.87m-24.59,-3.51l2.61,0l0,6.49l-2.61,0l0,-6.49zm21.46,1.47c0.75,-0.32 1.77,-0.76 2,-0.64s0.23,0.28 0.23,0.36a1.25,1.25 0 0 1 -0.45,0.74l-0.28,0.12a31.39,31.39 0 0 1 -4.83,1.67a1.5,1.5 0 0 0 0.08,-0.39a3.21,3.21 0 0 0 0,-0.63a26.56,26.56 0 0 0 3.32,-1.23m4.1,0.16a1.18,1.18 0 0 0 -1.13,-0.15a1.27,1.27 0 0 0 0,-0.28a1.22,1.22 0 0 0 -0.54,-1c-0.55,-0.43 -1.39,-0.07 -2.78,0.53a24.67,24.67 0 0 1 -3.26,1.21a1.83,1.83 0 0 0 -0.24,-0.31a2,2 0 0 0 -1.38,-0.53c-3.75,0.06 -4.38,-0.31 -5.12,-0.74c-0.92,-0.55 -2,-1.16 -8.12,-1.16l-3.42,0a0.4,0.4 0 0 0 -0.41,0.4l0,7.33a0.41,0.41 0 0 0 0.41,0.41l3.35,0a29.3,29.3 0 0 0 8.48,1.24a21.63,21.63 0 0 0 13.64,-4.41a2.25,2.25 0 0 0 1,-1.48a1.28,1.28 0 0 0 -0.51,-1.05" class="cls-2"/>
   <path id="svg_31" fill="#fff" d="m17.01001,14.14005l-1.37,0a0.46,0.46 0 0 1 -0.44,-0.33l-0.25,-0.86a6.88,6.88 0 0 1 -0.94,-0.3l-0.71,0.54a0.45,0.45 0 0 1 -0.55,0l-1.11,-0.81a0.45,0.45 0 0 1 -0.17,-0.52l0.3,-0.85a5.61,5.61 0 0 1 -0.58,-0.8l-0.89,0a0.47,0.47 0 0 1 -0.45,-0.32l-0.43,-1.31a0.47,0.47 0 0 1 0.18,-0.52l0.74,-0.5a4.18,4.18 0 0 1 0,-0.5a4,4 0 0 1 0,-0.49l-0.74,-0.51a0.46,0.46 0 0 1 -0.18,-0.52l0.43,-1.3a0.46,0.46 0 0 1 0.43,-0.32l0,0l0.89,0a5.61,5.61 0 0 1 0.58,-0.8l-0.3,-0.84a0.45,0.45 0 0 1 0.17,-0.52l1.11,-0.81a0.45,0.45 0 0 1 0.55,0l0.7,0.54a5.87,5.87 0 0 1 0.95,-0.31l0.25,-0.85a0.45,0.45 0 0 1 0.44,-0.33l1.39,0a0.45,0.45 0 0 1 0.44,0.33l0.25,0.85a5.87,5.87 0 0 1 1,0.31l0.7,-0.54a0.45,0.45 0 0 1 0.55,0l1.12,0.81a0.46,0.46 0 0 1 0.16,0.52l-0.3,0.84a5.68,5.68 0 0 1 0.59,0.8l0.89,0a0.42,0.42 0 0 1 0.44,0.32l0.43,1.3a0.46,0.46 0 0 1 -0.18,0.52l-0.73,0.51c0,0.16 0,0.33 0,0.49a4.19,4.19 0 0 1 0,0.5l0.74,0.5a0.47,0.47 0 0 1 0.18,0.52l-0.43,1.31a0.49,0.49 0 0 1 -0.44,0.32l-0.9,0a5.61,5.61 0 0 1 -0.58,0.8l0.3,0.85a0.46,0.46 0 0 1 -0.16,0.52l-1.12,0.81a0.45,0.45 0 0 1 -0.55,0l-0.7,-0.54a7.89,7.89 0 0 1 -0.94,0.3l-0.26,0.86a0.45,0.45 0 0 1 -0.5,0.33zm-1,-0.92l0.69,0l0.24,-0.79a0.44,0.44 0 0 1 0.35,-0.32a4.83,4.83 0 0 0 1.25,-0.41a0.49,0.49 0 0 1 0.48,0.05l0.65,0.51l0.56,-0.41l-0.27,-0.78a0.47,0.47 0 0 1 0.09,-0.47a5,5 0 0 0 0.78,-1.06a0.5,0.5 0 0 1 0.42,-0.24l0.82,0l0.21,-0.67l-0.68,-0.46a0.47,0.47 0 0 1 -0.19,-0.44a4.68,4.68 0 0 0 0,-0.66a4.87,4.87 0 0 0 0,-0.66a0.45,0.45 0 0 1 0.19,-0.43l0.68,-0.47l-0.21,-0.66l-0.82,0l0,0a0.48,0.48 0 0 1 -0.41,-0.24a4.91,4.91 0 0 0 -0.77,-1.07a0.46,0.46 0 0 1 -0.1,-0.47l0.27,-0.77l-0.56,-0.41l-0.65,0.5a0.47,0.47 0 0 1 -0.47,0.05a5,5 0 0 0 -1.26,-0.41a0.45,0.45 0 0 1 -0.36,-0.32l-0.23,-0.79l-0.7,0l-0.23,0.79a0.45,0.45 0 0 1 -0.36,0.32a4.83,4.83 0 0 0 -1.25,0.41a0.49,0.49 0 0 1 -0.48,-0.05l-0.65,-0.5l-0.56,0.41l0.27,0.77a0.47,0.47 0 0 1 -0.09,0.47a4.81,4.81 0 0 0 -0.78,1.07a0.44,0.44 0 0 1 -0.42,0.24l-0.82,0l-0.21,0.66l0.68,0.47a0.44,0.44 0 0 1 0.19,0.43c0,0.22 0,0.44 0,0.66s0,0.44 0,0.66a0.45,0.45 0 0 1 -0.19,0.44l-0.68,0.46l0.21,0.67l0.83,0a0.48,0.48 0 0 1 0.41,0.24a5,5 0 0 0 0.78,1.06a0.48,0.48 0 0 1 0.1,0.47l-0.28,0.78l0.56,0.41l0.65,-0.51a0.49,0.49 0 0 1 0.48,-0.05a5,5 0 0 0 1.25,0.41a0.45,0.45 0 0 1 0.36,0.32l0.23,0.79zm0.35,-2.16a4,4 0 1 1 3.95,-4a4,4 0 0 1 -3.94,4l-0.01,0zm0,-7a3,3 0 1 0 3,3a3,3 0 0 0 -2.99,-3l-0.01,0z" class="cls-2"/>
  </g>
 </g>
</svg>