<svg width="21.3" height="21.3" xmlns="http://www.w3.org/2000/svg" data-name="Layer 1">
 <g id="Layer_1">
  <g id="svg_32">
   <path id="svg_1" fill="#fff" d="m8.24001,9.34l-7.13,0a1.11,1.11 0 0 1 -1.11,-1.1l0,-7.13a1.11,1.11 0 0 1 1.11,-1.1l7.13,0a1.1,1.1 0 0 1 1.1,1.1l0,7.13a1.11,1.11 0 0 1 -1.1,1.1zm-7.13,-8.43a0.19,0.19 0 0 0 -0.19,0.19l0,7.14a0.18,0.18 0 0 0 0.19,0.19l7.13,0a0.19,0.19 0 0 0 0.19,-0.19l0,-7.13a0.2,0.2 0 0 0 -0.19,-0.19l-7.13,-0.01z" class="cls-2"/>
   <path id="svg_2" fill="#fff" d="m20.13001,9.34l-7.13,0a1.11,1.11 0 0 1 -1.1,-1.11l0,-7.13a1.1,1.1 0 0 1 1.1,-1.1l7.13,0a1.11,1.11 0 0 1 1.11,1.1l0,7.14a1.11,1.11 0 0 1 -1.11,1.1zm-7.13,-8.43a0.2,0.2 0 0 0 -0.19,0.19l0,7.14a0.19,0.19 0 0 0 0.19,0.19l7.13,0a0.18,0.18 0 0 0 0.17,-0.19l0,-7.13a0.19,0.19 0 0 0 -0.19,-0.19l-7.11,-0.01z" class="cls-2"/>
   <path id="svg_3" fill="#fff" d="m8.24001,21.24l-7.13,0a1.11,1.11 0 0 1 -1.11,-1.11l0,-7.13a1.11,1.11 0 0 1 1.11,-1.1l7.13,0a1.1,1.1 0 0 1 1.1,1.1l0,7.13a1.11,1.11 0 0 1 -1.1,1.11zm-7.13,-8.43a0.19,0.19 0 0 0 -0.19,0.19l0,7.13a0.18,0.18 0 0 0 0.19,0.19l7.13,0a0.19,0.19 0 0 0 0.19,-0.19l0,-7.13a0.2,0.2 0 0 0 -0.19,-0.19l-7.13,0z" class="cls-2"/>
   <path id="svg_4" fill="#fff" d="m16.78001,21.32a0.46,0.46 0 0 1 -0.46,-0.46l0,-8.39a0.46,0.46 0 1 1 0.91,0l0,8.39a0.46,0.46 0 0 1 -0.45,0.46z" class="cls-2"/>
   <path id="svg_5" fill="#fff" d="m20.86001,17.24l-8.39,0a0.46,0.46 0 1 1 0,-0.92l8.39,0a0.46,0.46 0 0 1 0,0.92z" class="cls-2"/>
  </g>
 </g>
</svg>